{
.appVersion = "3151";
.formatVersion = 3;
customParameters = (
{
name = vendorID;
value = "1BOU";
},
{
name = panose;
value = (
0,
0,
9,
0,
0,
0,
0,
0,
0,
0
);
},
{
name = unicodeRanges;
value = (
0,
1,
2,
3,
5,
13,
31,
33,
35,
38,
45,
60,
63,
67
);
},
{
name = codePageRanges;
value = (
"1252",
"1256"
);
},
{
name = fsType;
value = (
);
},
{
name = glyphOrder;
value = (
.notdef,
uni000D,
space,
exclam,
quotedbl,
numbersign,
dollar,
percent,
ampersand,
quotesingle,
parenleft,
parenright,
asterisk,
plus,
comma,
hyphen,
period,
slash,
zero,
one,
two,
three,
four,
five,
six,
seven,
eight,
nine,
colon,
semicolon,
less,
equal,
greater,
question,
at,
A,
B,
C,
D,
E,
F,
G,
H,
I,
J,
K,
L,
M,
N,
O,
P,
Q,
R,
S,
T,
U,
V,
W,
X,
Y,
Z,
bracketleft,
backslash,
bracketright,
asciicircum,
underscore,
grave,
a,
b,
c,
d,
e,
f,
g,
h,
i,
j,
k,
l,
m,
n,
o,
p,
q,
r,
s,
t,
u,
v,
w,
x,
y,
z,
braceleft,
bar,
braceright,
asciitilde,
exclamdown,
cent,
sterling,
yen,
brokenbar,
section,
dieresis,
copyright,
ordfeminine,
guillemotleft,
uni00AD,
registered,
macron,
degree,
plusminus,
twosuperior,
threesuperior,
acute,
paragraph,
periodcentered,
cedilla,
onesuperior,
ordmasculine,
guillemotright,
onequarter,
onehalf,
threequarters,
questiondown,
Agrave,
Aacute,
Acircumflex,
Atilde,
Adieresis,
Aring,
AE,
Ccedilla,
Egrave,
Eacute,
Ecircumflex,
Edieresis,
Igrave,
Iacute,
Icircumflex,
Idieresis,
Eth,
Ntilde,
Ograve,
Oacute,
Ocircumflex,
Otilde,
Odieresis,
multiply,
Oslash,
Ugrave,
Uacute,
Ucircumflex,
Udieresis,
Yacute,
Thorn,
germandbls,
agrave,
aacute,
acircumflex,
atilde,
adieresis,
aring,
ae,
ccedilla,
egrave,
eacute,
ecircumflex,
edieresis,
igrave,
iacute,
icircumflex,
idieresis,
eth,
ntilde,
ograve,
oacute,
ocircumflex,
otilde,
odieresis,
divide,
oslash,
ugrave,
uacute,
ucircumflex,
udieresis,
yacute,
thorn,
ydieresis,
dotlessi,
Lslash,
lslash,
OE,
oe,
Scaron,
scaron,
Ydieresis,
Zcaron,
zcaron,
florin,
circumflex,
caron,
breve,
dotaccent,
ring,
ogonek,
tilde,
hungarumlaut,
uni03BC,
uni060C,

glyphs = (
{
glyphname = .notdef;
layers = (
{
layerId = m01;
shapes = (
{
closed = 1;
nodes = (
(265,-72,qs),
(283,-72,o),
(301,-48,o),
(298,-29,qs),
(295,-10,o),
(267,14,o),
(249,14,qs),
(209,14,o),
(214,-29,q),
(225,-72,o)
);
},
{
closed = 1;
nodes = (
(262,75,ls),
(258,97,o),
(275,112,qs),
(331,160,o),
(364,221,o),
(355,262,qs),
(346,311,o),
(263,365,o),
(197,365,qs),
(149,365,o),
(108,347,qs),
(78,334,o),
(83,312,q),
(86,304,o),
(90,294,qs),
(99,277,l),
(158,308,o),
(205,307,qs),
(277,306,o),
(287,247,qs),
(294,209,o),
(248,165,qs),
(203,123,o),
(210,88,qs),
(213,67,l),
(264,67,l)
);
},
{
closed = 1;
nodes = (
(541,-254,l),
(400,545,l),
(-61,545,l),
(80,-254,l)
);
},
{
closed = 1;
nodes = (
(485,-206,l),
(120,-206,l),
(-5,497,l),
(361,497,l)
);
}
);
userData = {
assembly = "NPUSHB[ ]	/* 81 values pushed */
19 1 4 2 1 76 9 1 4 2 0 2 4 0 128 0 5 10 1 8 3 5 8 103 0 3 0 2 4 3 2 105 0 0 0 1 7 0 1 105 0 7 6 6 7 87 0 7 7 6 95 0 6 7 6 79 40 40 10 10 40 43 40 43 42 41 39 38 37 36 10 35 10 35 39 39 36 33 11 6 26 
CALL[ ]	/* CallFunction */";
};
width = 531;
}
);
note = ".notdef";
},
{
glyphname = exclam;
layers = (
{
layerId = m01;
shapes = (
{
closed = 1;
nodes = (
(33,154,qs),
(95,547,ls),
(97,556,o),
(105,556,qs),
(111,556,ls),
(172,556,o),
(158,485,qs),
(94,154,ls),
(93,146,o),
(85,146,qs),
(39,146,ls),
(31,146,o)
);
},
{
closed = 1;
nodes = (
(-3,34,qs),
(-3,57,o),
(30,91,o),
(53,91,qs),
(94,91,o),
(94,49,qs),
(94,24,o),
(62,-10,o),
(40,-10,qs),
(-3,-10,o)
);
}
);
userData = {
assembly = "NPUSHB[ ]	/* 45 values pushed */
4 1 0 1 3 1 0 3 128 0 1 1 39 77 0 3 3 2 97 5 1 2 2 46 2 78 13 12 2 0 18 16 12 21 13 21 8 5 0 11 2 11 6 9 22 
CALL[ ]	/* CallFunction */";
};
width = 153;
}
);
note = exclam;
unicode = 33;
},
{
glyphname = quotedbl;
layers = (
{
layerId = m01;
shapes = (
{
closed = 1;
nodes = (
(89,556,o),
(99,556,qs),
(111,556,ls),
(143,556,o),
(161,525,o),
(152,488,qs),
(123,379,l),
(119,371,o),
(114,371,qs),
(80,371,ls),
(74,371,o),
(74,379,qs),
(89,547,l)
);
},
{
closed = 1;
nodes = (
(209,556,o),
(217,556,qs),
(230,556,ls),
(262,556,o),
(279,525,o),
(270,488,qs),
(241,379,ls),
(239,371,o),
(233,371,qs),
(200,371,ls),
(192,371,o),
(192,379,qs),
(207,547,l)
);
}
);
userData = {
assembly = "NPUSHB[ ]	/* 28 values pushed */
13 12 0 3 0 1 1 76 2 1 0 0 1 97 3 1 1 1 39 0 78 53 35 53 33 4 9 26 
CALL[ ]	/* CallFunction */";
};
width = 252;
}
);
note = quotedbl;
unicode = 34;
},
{
glyphname = numbersign;
layers = (
{
layerId = m01;
shapes = (
{
closed = 1;
nodes = (
(9,151,o),
(13,159,qs),
(30,198,ls),
(34,207,o),
(43,207,qs),
(109,207,l),
(168,347,l),
(103,347,ls),
(92,347,o),
(97,356,q),
(113,394,ls),
(117,403,o),
(123,403,qs),
(190,403,l),
(251,547,ls),
(254,556,o),
(262,556,qs),
(278,556,ls),
(324,556,o),
(301,502,qs),
(259,403,l),
(400,403,l),
(461,547,l),
(463,556,o),
(471,556,qs),
(487,556,ls),
(534,556,o),
(511,502,qs),
(468,403,l),
(534,403,ls),
(544,403,o),
(540,394,qs),
(523,356,ls),
(520,347,o),
(513,347,qs),
(447,347,l),
(388,207,l),
(453,207,ls),
(462,207,o),
(458,198,qs),
(442,159,l),
(437,151,o),
(431,151,qs),
(364,151,l),
(304,9,ls),
(301,0,o),
(296,0,qs),
(239,0,ls),
(233,0,o),
(236,9,qs),
(294,151,l),
(155,151,l),
(96,9,ls),
(93,0,o),
(86,0,qs),
(30,0,ls),
(22,0,o),
(26,9,qs),
(84,151,l),
(19,151,ls)
);
},
{
closed = 1;
nodes = (
(377,347,l),
(238,347,l),
(178,207,l),
(317,207,l)
);
}
);
userData = {
assembly = "NPUSHB[ ]	/* 73 values pushed */
10 8 2 6 14 11 2 5 4 6 5 104 17 15 12 3 4 16 13 3 3 1 0 4 1 103 9 1 7 7 39 77 2 1 0 0 40 0 78 60 60 0 0 60 63 60 63 62 61 0 59 0 58 55 53 52 50 46 45 43 40 18 50 35 33 36 19 34 18 50 18 9 31 
CALL[ ]	/* CallFunction */";
};
width = 529;
}
);
note = numbersign;
unicode = 35;
},
{
glyphname = dollar;
layers = (
{
layerId = m01;
shapes = (
{
closed = 1;
nodes = (
(133,284,o),
(73,349,o),
(73,399,qs),
(73,468,o),
(125,513,qs),
(178,559,o),
(263,566,q),
(272,612,ls),
(274,621,o),
(280,621,qs),
(311,621,ls),
(319,621,o),
(318,612,qs),
(309,566,l),
(355,562,o),
(410,538,qs),
(455,518,o),
(436,477,qs),
(429,461,ls),
(424,451,o),
(418,451,qs),
(414,451,o),
(407,456,qs),
(356,492,o),
(297,498,q),
(264,313,l),
(398,261,o),
(398,180,qs),
(398,111,o),
(352,60,qs),
(300,2,o),
(209,-8,q),
(200,-56,ls),
(198,-64,o),
(190,-64,qs),
(160,-64,ls),
(152,-64,o),
(154,-56,qs),
(162,-8,l),
(94,-4,o),
(6,67,o),
(6,119,qs),
(6,154,o),
(24,154,qs),
(30,154,o),
(35,146,qs),
(84,63,o),
(174,59,q),
(209,254,l)
);
},
{
closed = 1;
nodes = (
(267,68,o),
(324,124,o),
(324,163,qs),
(324,210,o),
(252,241,q),
(220,61,l)
);
},
{
closed = 1;
nodes = (
(203,495,o),
(145,447,o),
(145,411,qs),
(145,361,o),
(222,328,q),
(252,499,l)
);
}
);
userData = {
assembly = "NPUSHB[ ]	/* 18 values pushed */
60 34 23 3 4 5 48 22 2 1 4 2 76 54 1 0 1 75 
MPPEM[ ]	/* MeasurePixelPerEm */
PUSHB[ ]	/* 1 value pushed */
9 
LT[ ]	/* LessThan */
IF[ ]	/* If */
NPUSHB[ ]	/* 32 values pushed */
0 5 4 5 133 0 4 1 4 133 0 1 0 1 133 0 3 2 2 3 113 0 0 0 2 97 0 2 2 49 2 78 
ELSE[ ]	/* Else */
MPPEM[ ]	/* MeasurePixelPerEm */
PUSHB[ ]	/* 1 value pushed */
11 
LT[ ]	/* LessThan */
IF[ ]	/* If */
NPUSHB[ ]	/* 32 values pushed */
0 5 4 5 133 0 4 1 4 133 0 1 0 1 133 0 3 2 2 3 113 0 0 0 2 97 0 2 2 46 2 78 
ELSE[ ]	/* Else */
MPPEM[ ]	/* MeasurePixelPerEm */
PUSHB[ ]	/* 1 value pushed */
18 
LT[ ]	/* LessThan */
IF[ ]	/* If */
NPUSHB[ ]	/* 32 values pushed */
0 5 4 5 133 0 4 1 4 133 0 1 0 1 133 0 3 2 2 3 113 0 0 0 2 97 0 2 2 49 2 78 
ELSE[ ]	/* Else */
NPUSHB[ ]	/* 31 values pushed */
0 5 4 5 133 0 4 1 4 133 0 1 0 1 133 0 3 2 3 134 0 0 0 2 97 0 2 2 49 2 78 
EIF[ ]	/* EndIf */
EIF[ ]	/* EndIf */
EIF[ ]	/* EndIf */
NPUSHB[ ]	/* 9 values pushed */
40 44 50 19 34 16 6 9 28 
CALL[ ]	/* CallFunction */";
};
width = 439;
}
);
note = dollar;
unicode = 36;
},
{
glyphname = percent;
layers = (
{
layerId = m01;
shapes = (
{
closed = 1;
nodes = (
(248,314,qs),
(280,358,o),
(280,434,qs),
(280,513,o),
(222,513,qs),
(181,513,o),
(153,474,qs),
(121,428,o),
(121,355,qs),
(121,276,o),
(180,276,qs),
(221,276,o)
);
},
{
closed = 1;
nodes = (
(156,9,qs),
(537,547,ls),
(544,556,o),
(551,556,qs),
(563,556,ls),
(586,556,o),
(593,522,o),
(575,496,qs),
(229,9,ls),
(223,0,o),
(215,0,qs),
(157,0,ls),
(149,0,o)
);
},
{
closed = 1;
nodes = (
(63,295,o),
(63,355,qs),
(63,438,o),
(105,497,qs),
(155,567,o),
(232,567,qs),
(281,567,o),
(339,496,o),
(339,436,qs),
(339,350,o),
(299,291,qs),
(253,223,o),
(173,223,qs),
(123,223,o)
);
},
{
closed = 1;
nodes = (
(613,83,qs),
(645,127,o),
(645,203,qs),
(645,281,o),
(586,281,qs),
(546,281,o),
(518,242,qs),
(486,197,o),
(486,123,qs),
(486,45,o),
(545,45,qs),
(586,45,o)
);
},
{
closed = 1;
nodes = (
(427,63,o),
(427,123,qs),
(427,206,o),
(470,266,qs),
(519,335,o),
(596,335,qs),
(646,335,o),
(704,264,o),
(704,205,qs),
(704,118,o),
(664,60,qs),
(617,-9,o),
(538,-9,qs),
(488,-9,o)
);
}
);
userData = {
assembly = "MPPEM[ ]	/* MeasurePixelPerEm */
PUSHB[ ]	/* 1 value pushed */
18 
LT[ ]	/* LessThan */
IF[ ]	/* If */
NPUSHB[ ]	/* 44 values pushed */
0 9 0 7 0 9 7 106 10 1 0 12 1 4 6 0 4 105 0 1 1 3 97 5 1 3 3 39 77 13 1 6 6 2 97 14 8 11 3 2 2 40 2 78 
ELSE[ ]	/* Else */
MPPEM[ ]	/* MeasurePixelPerEm */
PUSHB[ ]	/* 1 value pushed */
20 
LT[ ]	/* LessThan */
IF[ ]	/* If */
NPUSHB[ ]	/* 48 values pushed */
0 9 0 7 0 9 7 106 10 1 0 12 1 4 6 0 4 105 0 3 3 39 77 0 1 1 5 97 0 5 5 39 77 13 1 6 6 2 97 14 8 11 3 2 2 40 2 78 
ELSE[ ]	/* Else */
MPPEM[ ]	/* MeasurePixelPerEm */
PUSHB[ ]	/* 1 value pushed */
35 
LT[ ]	/* LessThan */
IF[ ]	/* If */
NPUSHB[ ]	/* 52 values pushed */
0 9 0 7 0 9 7 106 10 1 0 12 1 4 6 0 4 105 0 3 3 39 77 0 1 1 5 97 0 5 5 39 77 11 1 2 2 40 77 13 1 6 6 8 97 14 1 8 8 49 8 78 
ELSE[ ]	/* Else */
NPUSHB[ ]	/* 50 values pushed */
0 5 0 1 9 5 1 105 0 9 0 7 0 9 7 106 10 1 0 12 1 4 6 0 4 105 0 3 3 39 77 11 1 2 2 40 77 13 1 6 6 8 97 14 1 8 8 49 8 78 
EIF[ ]	/* EndIf */
EIF[ ]	/* EndIf */
EIF[ ]	/* EndIf */
NPUSHB[ ]	/* 43 values pushed */
52 51 40 39 26 25 14 12 1 0 59 57 51 64 52 64 46 44 39 50 40 50 33 31 25 38 26 38 21 18 12 24 14 24 7 5 0 11 1 11 15 9 22 
CALL[ ]	/* CallFunction */";
};
width = 747;
}
);
note = percent;
unicode = 37;
},
{
glyphname = ampersand;
layers = (
{
layerId = m01;
shapes = (
{
closed = 1;
nodes = (
(433,290,o),
(445,290,qs),
(494,290,ls),
(506,290,o),
(498,281,qs),
(376,130,l),
(452,10,ls),
(454,7,o),
(450,0,o),
(446,0,qs),
(398,0,ls),
(372,0,o),
(359,22,qs),
(325,73,l),
(248,-7,o),
(158,-7,qs),
(102,-7,o),
(65,25,qs),
(23,62,o),
(23,125,qs),
(23,187,o),
(63,231,qs),
(94,266,o),
(172,307,q),
(129,369,o),
(129,418,qs),
(129,480,o),
(170,520,qs),
(218,567,o),
(299,567,qs),
(355,567,o),
(425,509,o),
(425,462,qs),
(425,365,o),
(270,288,q),
(344,177,l),
(425,279,ls)
);
},
{
closed = 1;
nodes = (
(352,454,qs),
(352,506,o),
(291,506,qs),
(252,506,o),
(201,461,o),
(201,426,qs),
(201,386,o),
(242,334,q),
(352,386,o)
);
},
{
closed = 1;
nodes = (
(145,230,o),
(96,171,o),
(96,130,qs),
(96,57,o),
(174,57,qs),
(230,57,o),
(295,122,q),
(204,259,l)
);
}
);
userData = {
assembly = "NPUSHB[ ]	/* 13 values pushed */
12 1 3 4 53 30 22 1 4 5 3 2 76 
MPPEM[ ]	/* MeasurePixelPerEm */
PUSHB[ ]	/* 1 value pushed */
27 
LT[ ]	/* LessThan */
IF[ ]	/* If */
NPUSHB[ ]	/* 33 values pushed */
0 4 4 0 97 0 0 0 39 77 0 3 3 1 97 2 1 1 1 49 77 0 5 5 1 97 2 1 1 1 49 1 78 
ELSE[ ]	/* Else */
MPPEM[ ]	/* MeasurePixelPerEm */
PUSHB[ ]	/* 1 value pushed */
35 
LT[ ]	/* LessThan */
IF[ ]	/* If */
NPUSHB[ ]	/* 31 values pushed */
0 4 4 0 97 0 0 0 39 77 0 3 3 2 97 0 2 2 40 77 0 5 5 1 97 0 1 1 49 1 78 
ELSE[ ]	/* Else */
NPUSHB[ ]	/* 29 values pushed */
0 0 0 4 3 0 4 105 0 3 3 2 97 0 2 2 40 77 0 5 5 1 97 0 1 1 49 1 78 
EIF[ ]	/* EndIf */
EIF[ ]	/* EndIf */
NPUSHB[ ]	/* 9 values pushed */
36 38 54 35 44 37 6 9 28 
CALL[ ]	/* CallFunction */";
};
width = 519;
}
);
note = ampersand;
unicode = 38;
},
{
glyphname = quotesingle;
layers = (
{
layerId = m01;
shapes = (
{
closed = 1;
nodes = (
(89,556,o),
(99,556,qs),
(112,556,ls),
(143,556,o),
(161,525,o),
(152,488,qs),
(123,379,ls),
(121,371,o),
(114,371,qs),
(80,371,ls),
(74,371,o),
(74,379,qs),
(89,547,l)
);
}
);
userData = {
assembly = "NPUSHB[ ]	/* 23 values pushed */
12 0 2 0 1 1 76 0 0 0 1 97 0 1 1 39 0 78 52 49 2 9 24 
CALL[ ]	/* CallFunction */";
};
width = 133;
}
);
note = quotesingle;
unicode = 39;
},
{
glyphname = parenleft;
layers = (
{
layerId = m01;
shapes = (
{
closed = 1;
nodes = (
(107,-42,qs),
(57,46,o),
(57,169,qs),
(57,315,o),
(123,453,qs),
(207,629,o),
(353,693,qs),
(364,698,o),
(362,687,qs),
(358,665,ls),
(352,632,o),
(325,613,qs),
(321,610,o),
(319,608,qs),
(230,534,o),
(181,424,qs),
(129,306,o),
(129,166,qs),
(129,88,o),
(162,-16,o),
(201,-61,qs),
(203,-63,o),
(205,-65,qs),
(226,-86,o),
(220,-117,qs),
(216,-137,ls),
(215,-146,o),
(206,-143,q),
(146,-112,o)
);
}
);
userData = {
assembly = "PUSHB[ ]	/* 4 values pushed */
20 1 1 50 
CALL[ ]	/* CallFunction */";
};
width = 344;
}
);
note = parenleft;
unicode = 40;
},
{
glyphname = parenright;
layers = (
{
layerId = m01;
shapes = (
{
closed = 1;
nodes = (
(239,593,qs),
(289,504,o),
(289,382,qs),
(289,236,o),
(223,98,qs),
(139,-78,o),
(-8,-142,qs),
(-17,-146,o),
(-16,-136,qs),
(-12,-114,ls),
(-6,-82,o),
(20,-62,qs),
(24,-59,o),
(26,-58,q),
(115,16,o),
(165,127,qs),
(217,245,o),
(217,384,qs),
(217,526,o),
(145,611,qs),
(143,613,o),
(140,616,qs),
(119,636,o),
(126,668,qs),
(130,688,ls),
(132,696,o),
(140,694,q),
(200,663,o)
);
}
);
userData = {
assembly = "PUSHB[ ]	/* 4 values pushed */
19 1 1 50 
CALL[ ]	/* CallFunction */";
};
width = 344;
}
);
note = parenright;
unicode = 41;
},
{
glyphname = asterisk;
layers = (
{
layerId = m01;
shapes = (
{
closed = 1;
nodes = (
(68,403,o),
(73,413,qs),
(99,463,l),
(101,471,o),
(109,468,qs),
(190,431,l),
(200,531,l),
(202,539,o),
(210,539,qs),
(266,539,ls),
(273,539,o),
(272,531,q),
(248,431,l),
(340,468,ls),
(349,471,o),
(350,463,qs),
(356,413,l),
(358,404,o),
(349,402,qs),
(255,377,l),
(299,300,l),
(306,294,o),
(296,289,qs),
(250,261,ls),
(242,257,o),
(240,262,qs),
(203,348,l),
(139,262,ls),
(133,255,o),
(128,261,q),
(90,289,ls),
(84,293,o),
(90,300,qs),
(163,377,l),
(76,402,l)
);
}
);
userData = {
assembly = "PUSHB[ ]	/* 7 values pushed */
28 21 14 7 4 0 73 
MPPEM[ ]	/* MeasurePixelPerEm */
PUSHB[ ]	/* 1 value pushed */
22 
LT[ ]	/* LessThan */
IF[ ]	/* If */
PUSHB[ ]	/* 6 values pushed */
0 0 0 39 0 78 
ELSE[ ]	/* Else */
PUSHB[ ]	/* 4 values pushed */
0 0 0 118 
EIF[ ]	/* EndIf */
PUSHB[ ]	/* 5 values pushed */
26 23 1 9 22 
CALL[ ]	/* CallFunction */";
};
width = 350;
}
);
note = asterisk;
unicode = 42;
},
{
glyphname = plus;
layers = (
{
layerId = m01;
shapes = (
{
closed = 1;
nodes = (
(37,238,o),
(37,247,qs),
(37,295,ls),
(37,304,o),
(45,304,qs),
(168,304,l),
(168,441,ls),
(168,450,o),
(176,450,qs),
(235,450,o),
(235,389,qs),
(235,304,l),
(358,304,ls),
(366,304,o),
(366,295,qs),
(366,247,ls),
(366,238,o),
(358,238,qs),
(235,238,l),
(235,101,ls),
(235,92,o),
(227,92,qs),
(176,92,ls),
(168,92,o),
(168,101,qs),
(168,238,l),
(45,238,ls)
);
}
);
userData = {
assembly = "NPUSHB[ ]	/* 41 values pushed */
0 3 2 0 3 89 4 1 2 6 5 2 1 0 2 1 103 0 3 3 0 97 0 0 3 0 81 0 0 0 26 0 25 34 34 35 34 50 7 9 27 
CALL[ ]	/* CallFunction */";
};
width = 403;
}
);
note = plus;
unicode = 43;
},
{
glyphname = comma;
layers = (
{
layerId = m01;
shapes = (
{
closed = 1;
nodes = (
(-1,-49,qs),
(22,-28,o),
(29,-8,q),
(-4,-1,o),
(-4,33,qs),
(-4,57,o),
(28,91,o),
(51,91,qs),
(93,91,o),
(93,48,qs),
(93,-17,o),
(3,-86,qs),
(-2,-90,o),
(-5,-86,qs),
(-21,-66,o)
);
}
);
userData = {
assembly = "NPUSHB[ ]	/* 12 values pushed */
11 1 0 73 0 0 0 118 37 1 9 23 
CALL[ ]	/* CallFunction */";
};
width = 145;
}
);
note = comma;
unicode = 44;
},
{
glyphname = hyphen;
layers = (
{
layerId = m01;
shapes = (
{
closed = 1;
nodes = (
(30,177,qs),
(40,229,ls),
(42,238,o),
(49,238,qs),
(253,238,ls),
(262,238,o),
(261,229,qs),
(251,177,ls),
(249,168,o),
(242,168,qs),
(37,168,ls),
(28,168,o)
);
}
);
userData = {
assembly = "NPUSHB[ ]	/* 28 values pushed */
0 1 0 0 1 87 0 1 1 0 95 2 1 0 1 0 79 2 0 8 5 0 11 2 11 3 9 22 
CALL[ ]	/* CallFunction */";
};
width = 297;
}
);
note = hyphen;
unicode = 45;
},
{
glyphname = period;
layers = (
{
layerId = m01;
shapes = (
{
closed = 1;
nodes = (
(-13,34,qs),
(-13,57,o),
(20,91,o),
(43,91,qs),
(84,91,o),
(84,49,qs),
(84,24,o),
(52,-10,o),
(30,-10,qs),
(-13,-10,o)
);
}
);
userData = {
assembly = "NPUSHB[ ]	/* 23 values pushed */
0 1 1 0 97 2 1 0 0 46 0 78 1 0 6 4 0 9 1 9 3 9 22 
CALL[ ]	/* CallFunction */";
};
width = 145;
}
);
note = period;
unicode = 46;
},
{
glyphname = slash;
layers = (
{
layerId = m01;
shapes = (
{
closed = 1;
nodes = (
(-38,9,qs),
(276,547,ls),
(282,556,o),
(291,556,qs),
(301,556,ls),
(324,556,o),
(333,520,o),
(317,493,qs),
(35,9,ls),
(29,0,o),
(20,0,qs),
(-36,0,ls),
(-43,0,o)
);
}
);
userData = {
assembly = "NPUSHB[ ]	/* 23 values pushed */
0 1 1 39 77 2 1 0 0 40 0 78 2 0 9 6 0 12 2 12 3 9 22 
CALL[ ]	/* CallFunction */";
};
width = 267;
}
);
note = slash;
unicode = 47;
},
{
glyphname = zero;
layers = (
{
layerId = m01;
shapes = (
{
closed = 1;
nodes = (
(331,138,qs),
(389,228,o),
(389,363,qs),
(389,496,o),
(298,496,qs),
(233,496,o),
(182,417,qs),
(123,324,o),
(123,195,qs),
(123,61,o),
(214,61,qs),
(281,61,o)
);
},
{
closed = 1;
nodes = (
(95,38,qs),
(49,91,o),
(49,192,qs),
(49,334,o),
(117,442,qs),
(195,567,o),
(308,567,qs),
(463,567,o),
(463,366,qs),
(463,219,o),
(396,113,qs),
(320,-10,o),
(203,-10,qs),
(135,-10,o)
);
}
);
userData = {
assembly = "MPPEM[ ]	/* MeasurePixelPerEm */
PUSHB[ ]	/* 1 value pushed */
35 
LT[ ]	/* LessThan */
IF[ ]	/* If */
NPUSHB[ ]	/* 23 values pushed */
0 1 1 3 97 0 3 3 39 77 4 1 0 0 2 97 5 1 2 2 46 2 78 
ELSE[ ]	/* Else */
NPUSHB[ ]	/* 21 values pushed */
0 3 0 1 0 3 1 105 4 1 0 0 2 97 5 1 2 2 46 2 78 
EIF[ ]	/* EndIf */
NPUSHB[ ]	/* 19 values pushed */
13 12 1 0 19 17 12 25 13 25 7 5 0 11 1 11 6 9 22 
CALL[ ]	/* CallFunction */";
};
width = 493;
}
);
note = zero;
unicode = 48;
},
{
glyphname = one;
layers = (
{
layerId = m01;
shapes = (
{
closed = 1;
nodes = (
(79,447,ls),
(69,443,o),
(70,453,qs),
(81,511,ls),
(83,522,o),
(94,525,qs),
(156,547,ls),
(181,556,o),
(205,556,qs),
(219,556,ls),
(265,556,o),
(255,501,qs),
(179,69,l),
(249,69,ls),
(294,69,o),
(286,26,qs),
(283,11,ls),
(281,0,o),
(270,0,qs),
(4,0,ls),
(-4,0,o),
(-2,9,qs),
(7,61,ls),
(9,69,o),
(16,69,qs),
(108,69,l),
(181,484,l)
);
}
);
userData = {
assembly = "NPUSHB[ ]	/* 30 values pushed */
26 1 0 3 1 76 0 3 3 39 77 2 1 0 0 1 96 0 1 1 40 1 78 50 35 51 32 4 9 26 
CALL[ ]	/* CallFunction */";
};
width = 346;
}
);
note = one;
unicode = 49;
},
{
glyphname = two;
layers = (
{
layerId = m01;
shapes = (
{
closed = 1;
nodes = (
(360,69,o),
(352,27,qs),
(350,11,ls),
(348,0,o),
(337,0,qs),
(5,0,ls),
(-3,0,o),
(-1,9,qs),
(16,102,o),
(80,168,qs),
(118,208,o),
(204,262,qs),
(288,313,o),
(343,378,o),
(343,426,qs),
(343,498,o),
(255,498,qs),
(191,498,o),
(118,455,qs),
(108,450,o),
(104,450,qs),
(99,450,o),
(97,458,q),
(95,478,ls),
(91,519,o),
(138,538,qs),
(208,567,o),
(270,567,qs),
(340,567,o),
(419,498,o),
(419,438,qs),
(419,364,o),
(368,305,qs),
(334,266,o),
(255,217,qs),
(160,157,o),
(104,106,o),
(94,69,q),
(316,69,ls)
);
}
);
userData = {
assembly = "MPPEM[ ]	/* MeasurePixelPerEm */
PUSHB[ ]	/* 1 value pushed */
35 
LT[ ]	/* LessThan */
IF[ ]	/* If */
NPUSHB[ ]	/* 30 values pushed */
0 1 2 4 2 1 4 128 0 2 2 0 97 0 0 0 39 77 5 1 4 4 3 95 0 3 3 40 3 78 
ELSE[ ]	/* Else */
NPUSHB[ ]	/* 28 values pushed */
0 1 2 4 2 1 4 128 0 0 0 2 1 0 2 105 5 1 4 4 3 95 0 3 3 40 3 78 
EIF[ ]	/* EndIf */
NPUSHB[ ]	/* 13 values pushed */
0 0 0 38 0 37 57 34 37 41 6 9 26 
CALL[ ]	/* CallFunction */";
};
width = 433;
}
);
note = two;
unicode = 50;
},
{
glyphname = three;
layers = (
{
layerId = m01;
shapes = (
{
closed = 1;
nodes = (
(380,186,qs),
(380,108,o),
(328,54,qs),
(267,-10,o),
(169,-10,qs),
(98,-10,o),
(4,60,o),
(4,112,qs),
(4,144,o),
(23,144,qs),
(29,144,o),
(35,134,qs),
(76,58,o),
(166,58,qs),
(228,58,o),
(304,125,o),
(304,180,qs),
(304,254,o),
(204,254,qs),
(149,254,ls),
(109,254,o),
(115,294,qs),
(117,314,ls),
(119,324,o),
(130,324,qs),
(218,324,ls),
(271,324,o),
(334,380,o),
(334,428,qs),
(334,499,o),
(243,499,qs),
(179,499,o),
(107,456,qs),
(105,455,o),
(102,453,qs),
(96,450,o),
(93,450,qs),
(88,450,o),
(87,458,qs),
(85,478,ls),
(80,515,o),
(127,539,qs),
(186,567,o),
(253,567,qs),
(323,567,o),
(407,497,o),
(407,440,qs),
(407,333,o),
(297,291,q),
(380,267,o)
);
}
);
userData = {
assembly = "MPPEM[ ]	/* MeasurePixelPerEm */
PUSHB[ ]	/* 1 value pushed */
35 
LT[ ]	/* LessThan */
IF[ ]	/* If */
NPUSHB[ ]	/* 45 values pushed */
0 1 2 3 2 1 3 128 0 6 4 5 4 6 5 128 0 3 0 4 6 3 4 105 0 2 2 0 97 0 0 0 39 77 0 5 5 7 97 0 7 7 46 7 78 
ELSE[ ]	/* Else */
NPUSHB[ ]	/* 43 values pushed */
0 1 2 3 2 1 3 128 0 6 4 5 4 6 5 128 0 0 0 2 1 0 2 105 0 3 0 4 6 3 4 105 0 5 5 7 97 0 7 7 46 7 78 
EIF[ ]	/* EndIf */
NPUSHB[ ]	/* 11 values pushed */
35 34 35 51 51 36 37 36 8 9 30 
CALL[ ]	/* CallFunction */";
};
width = 429;
}
);
note = three;
unicode = 51;
},
{
glyphname = four;
layers = (
{
layerId = m01;
shapes = (
{
closed = 1;
nodes = (
(-2,128,o),
(-1,136,qs),
(6,177,ls),
(10,195,o),
(21,208,qs),
(290,537,l),
(303,556,o),
(327,556,qs),
(356,556,ls),
(400,556,o),
(392,508,qs),
(337,197,l),
(373,197,ls),
(416,197,o),
(409,154,qs),
(407,138,l),
(403,128,o),
(394,128,qs),
(325,128,l),
(304,9,ls),
(303,0,o),
(296,0,qs),
(238,0,ls),
(231,0,o),
(233,9,qs),
(254,128,l),
(5,128,ls)
);
},
{
closed = 1;
nodes = (
(314,476,l),
(87,197,l),
(266,197,l)
);
}
);
userData = {
assembly = "NPUSHB[ ]	/* 48 values pushed */
28 1 2 3 1 76 7 5 2 2 6 4 2 1 0 2 1 104 0 3 3 39 77 0 0 0 40 0 78 27 27 0 0 27 29 27 29 0 26 0 25 50 35 34 50 8 9 26 
CALL[ ]	/* CallFunction */";
};
width = 446;
}
);
note = four;
unicode = 52;
},
{
glyphname = five;
layers = (
{
layerId = m01;
shapes = (
{
closed = 1;
nodes = (
(192,353,o),
(233,353,qs),
(302,353,o),
(344,318,qs),
(390,279,o),
(390,208,qs),
(390,120,o),
(337,60,qs),
(274,-10,o),
(173,-10,qs),
(102,-10,o),
(7,57,o),
(7,106,qs),
(7,140,o),
(26,140,qs),
(34,140,o),
(40,131,qs),
(86,58,o),
(167,58,qs),
(227,58,o),
(267,91,qs),
(315,131,o),
(315,199,qs),
(315,286,o),
(215,286,qs),
(147,286,o),
(71,259,qs),
(60,256,o),
(61,268,q),
(110,547,ls),
(111,556,o),
(120,556,qs),
(378,556,ls),
(422,556,o),
(414,513,qs),
(411,497,ls),
(410,486,o),
(398,486,qs),
(171,486,l),
(145,340,l)
);
}
);
userData = {
assembly = "PUSHB[ ]	/* 6 values pushed */
39 1 2 6 1 76 
MPPEM[ ]	/* MeasurePixelPerEm */
PUSHB[ ]	/* 1 value pushed */
27 
LT[ ]	/* LessThan */
IF[ ]	/* If */
NPUSHB[ ]	/* 39 values pushed */
0 4 2 3 2 4 3 128 0 0 0 1 95 0 1 1 39 77 0 2 2 6 97 0 6 6 42 77 0 3 3 5 97 0 5 5 46 5 78 
ELSE[ ]	/* Else */
NPUSHB[ ]	/* 37 values pushed */
0 4 2 3 2 4 3 128 0 6 0 2 4 6 2 105 0 0 0 1 95 0 1 1 39 77 0 3 3 5 97 0 5 5 46 5 78 
EIF[ ]	/* EndIf */
NPUSHB[ ]	/* 10 values pushed */
38 35 34 36 37 51 32 7 9 29 
CALL[ ]	/* CallFunction */";
};
width = 436;
}
);
note = five;
unicode = 53;
},
{
glyphname = six;
layers = (
{
layerId = m01;
shapes = (
{
closed = 1;
nodes = (
(269,361,qs),
(326,361,o),
(366,324,qs),
(413,282,o),
(413,214,qs),
(413,126,o),
(357,63,qs),
(293,-10,o),
(194,-10,qs),
(126,-10,o),
(81,28,qs),
(31,72,o),
(31,145,qs),
(31,195,o),
(67,271,o),
(130,353,qs),
(285,557,ls),
(293,567,o),
(303,567,qs),
(327,567,o),
(331,544,qs),
(337,516,o),
(309,479,qs),
(211,352,l),
(236,361,o)
);
},
{
closed = 1;
nodes = (
(202,59,qs),
(256,59,o),
(293,95,qs),
(337,137,o),
(337,204,qs),
(337,296,o),
(244,296,qs),
(189,296,o),
(149,258,qs),
(104,215,o),
(104,151,qs),
(104,59,o)
);
}
);
userData = {
assembly = "MPPEM[ ]	/* MeasurePixelPerEm */
PUSHB[ ]	/* 1 value pushed */
35 
LT[ ]	/* LessThan */
IF[ ]	/* If */
NPUSHB[ ]	/* 26 values pushed */
0 0 0 39 77 0 3 3 2 97 0 2 2 42 77 0 4 4 1 97 0 1 1 46 1 78 
ELSE[ ]	/* Else */
NPUSHB[ ]	/* 26 values pushed */
0 0 2 0 133 0 3 3 2 97 0 2 2 42 77 0 4 4 1 97 0 1 1 46 1 78 
EIF[ ]	/* EndIf */
PUSHB[ ]	/* 8 values pushed */
36 36 38 40 36 5 9 27 
CALL[ ]	/* CallFunction */";
};
width = 454;
}
);
note = six;
unicode = 54;
},
{
glyphname = seven;
layers = (
{
layerId = m01;
shapes = (
{
closed = 1;
nodes = (
(81,486,o),
(83,495,qs),
(92,547,ls),
(93,556,o),
(102,556,qs),
(397,556,ls),
(440,556,o),
(433,513,qs),
(431,502,ls),
(427,482,o),
(413,456,q),
(136,12,l),
(130,0,o),
(118,0,qs),
(59,0,ls),
(48,0,o),
(55,9,q),
(352,486,l),
(89,486,ls)
);
}
);
userData = {
assembly = "NPUSHB[ ]	/* 28 values pushed */
3 1 2 2 1 95 0 1 1 39 77 0 0 0 40 0 78 0 0 0 18 0 17 54 50 4 9 24 
CALL[ ]	/* CallFunction */";
};
width = 412;
}
);
note = seven;
unicode = 55;
},
{
glyphname = eight;
layers = (
{
layerId = m01;
shapes = (
{
closed = 1;
nodes = (
(150,53,o),
(196,53,qs),
(256,53,o),
(333,122,o),
(333,175,qs),
(333,214,o),
(278,261,o),
(232,261,qs),
(182,261,o),
(143,232,qs),
(96,196,o),
(96,139,qs),
(96,99,o)
);
},
{
closed = 1;
nodes = (
(203,324,o),
(243,324,qs),
(293,324,o),
(364,386,o),
(364,429,qs),
(364,503,o),
(271,503,qs),
(220,503,o),
(154,443,o),
(154,397,qs),
(154,364,o)
);
},
{
closed = 1;
nodes = (
(84,398,qs),
(84,463,o),
(132,511,qs),
(189,567,o),
(276,567,qs),
(347,567,o),
(435,497,o),
(435,441,qs),
(435,338,o),
(325,294,q),
(407,263,o),
(407,183,qs),
(407,101,o),
(350,47,qs),
(288,-11,o),
(192,-11,qs),
(119,-11,o),
(74,24,qs),
(22,64,o),
(22,132,qs),
(22,245,o),
(150,294,q),
(84,326,o)
);
}
);
userData = {
assembly = "PUSHB[ ]	/* 6 values pushed */
36 1 0 3 1 76 
MPPEM[ ]	/* MeasurePixelPerEm */
PUSHB[ ]	/* 1 value pushed */
35 
LT[ ]	/* LessThan */
IF[ ]	/* If */
NPUSHB[ ]	/* 29 values pushed */
0 3 0 0 1 3 0 105 0 2 2 5 97 0 5 5 39 77 0 1 1 4 97 0 4 4 46 4 78 
ELSE[ ]	/* Else */
NPUSHB[ ]	/* 27 values pushed */
0 5 0 2 3 5 2 105 0 3 0 0 1 3 0 105 0 1 1 4 97 0 4 4 46 4 78 
EIF[ ]	/* EndIf */
NPUSHB[ ]	/* 9 values pushed */
41 39 35 36 36 35 6 9 28 
CALL[ ]	/* CallFunction */";
};
width = 451;
}
);
note = eight;
unicode = 56;
},
{
glyphname = nine;
layers = (
{
layerId = m01;
shapes = (
{
closed = 1;
nodes = (
(207,195,qs),
(147,195,o),
(107,233,qs),
(63,275,o),
(63,342,qs),
(63,429,o),
(120,492,qs),
(186,567,o),
(290,567,qs),
(355,567,o),
(397,530,qs),
(445,488,o),
(445,414,qs),
(445,366,o),
(404,278,o),
(346,204,qs),
(191,1,ls),
(183,-10,o),
(173,-10,qs),
(150,-10,o),
(145,13,qs),
(139,40,o),
(162,71,qs),
(265,205,l),
(237,195,o)
);
},
{
closed = 1;
nodes = (
(230,259,qs),
(285,259,o),
(326,299,qs),
(372,343,o),
(372,407,qs),
(372,498,o),
(275,498,qs),
(221,498,o),
(181,460,qs),
(135,416,o),
(135,351,qs),
(135,259,o)
);
}
);
userData = {
assembly = "MPPEM[ ]	/* MeasurePixelPerEm */
PUSHB[ ]	/* 1 value pushed */
35 
LT[ ]	/* LessThan */
IF[ ]	/* If */
NPUSHB[ ]	/* 24 values pushed */
0 4 0 2 0 4 2 105 0 3 3 1 97 0 1 1 39 77 0 0 0 46 0 78 
ELSE[ ]	/* Else */
NPUSHB[ ]	/* 22 values pushed */
0 1 0 3 4 1 3 105 0 4 0 2 0 4 2 105 0 0 0 46 0 78 
EIF[ ]	/* EndIf */
PUSHB[ ]	/* 8 values pushed */
36 36 38 40 36 5 9 27 
CALL[ ]	/* CallFunction */";
};
width = 455;
}
);
note = nine;
unicode = 57;
},
{
glyphname = colon;
layers = (
{
layerId = m01;
shapes = (
{
closed = 1;
nodes = (
(39,262,qs),
(39,285,o),
(72,319,o),
(95,319,qs),
(136,319,o),
(136,277,qs),
(136,253,o),
(105,219,o),
(82,219,qs),
(39,219,o)
);
},
{
closed = 1;
nodes = (
(-2,34,qs),
(-2,57,o),
(31,91,o),
(54,91,qs),
(96,91,o),
(96,49,qs),
(96,24,o),
(64,-10,o),
(41,-10,qs),
(-2,-10,o)
);
}
);
userData = {
assembly = "NPUSHB[ ]	/* 40 values pushed */
0 1 4 1 0 3 1 0 105 0 3 3 2 97 5 1 2 2 46 2 78 11 10 1 0 16 14 10 19 11 19 6 4 0 9 1 9 6 9 22 
CALL[ ]	/* CallFunction */";
};
width = 162;
}
);
note = colon;
unicode = 58;
},
{
glyphname = semicolon;
layers = (
{
layerId = m01;
shapes = (
{
closed = 1;
nodes = (
(8,-49,qs),
(30,-29,o),
(38,-8,q),
(5,-1,o),
(5,33,qs),
(5,57,o),
(37,91,o),
(60,91,qs),
(102,91,o),
(102,48,qs),
(102,-17,o),
(12,-86,qs),
(8,-89,o),
(4,-86,q),
(-11,-67,o)
);
},
{
closed = 1;
nodes = (
(47,262,qs),
(47,285,o),
(80,319,o),
(102,319,qs),
(144,319,o),
(144,277,qs),
(144,253,o),
(112,219,o),
(90,219,qs),
(47,219,o)
);
}
);
userData = {
assembly = "NPUSHB[ ]	/* 38 values pushed */
11 1 0 73 0 0 1 0 134 0 2 1 1 2 89 0 2 2 1 97 3 1 1 2 1 81 16 15 21 19 15 24 16 24 37 4 9 23 
CALL[ ]	/* CallFunction */";
};
width = 162;
}
);
note = semicolon;
unicode = 59;
},
{
glyphname = less;
layers = (
{
layerId = m01;
shapes = (
{
closed = 1;
nodes = (
(407,158,o),
(407,99,qs),
(407,94,ls),
(407,86,o),
(399,88,q),
(45,238,l),
(37,240,o),
(37,251,qs),
(37,290,ls),
(37,299,o),
(45,303,qs),
(397,451,ls),
(407,455,o),
(407,445,qs),
(407,396,ls),
(407,382,o),
(393,377,qs),
(133,271,l),
(354,180,ls)
);
}
);
userData = {
assembly = "PUSHB[ ]	/* 4 values pushed */
14 5 1 50 
CALL[ ]	/* CallFunction */";
};
width = 450;
}
);
note = less;
unicode = 60;
},
{
glyphname = equal;
layers = (
{
layerId = m01;
shapes = (
{
closed = 1;
nodes = (
(37,334,qs),
(37,382,ls),
(37,391,o),
(45,391,qs),
(315,391,ls),
(366,391,o),
(366,343,qs),
(366,334,ls),
(366,325,o),
(358,325,qs),
(45,325,ls),
(37,325,o)
);
},
{
closed = 1;
nodes = (
(37,157,qs),
(37,205,ls),
(37,214,o),
(45,214,qs),
(315,214,ls),
(366,214,o),
(366,166,qs),
(366,157,ls),
(366,148,o),
(358,148,qs),
(45,148,ls),
(37,148,o)
);
}
);
userData = {
assembly = "NPUSHB[ ]	/* 45 values pushed */
0 1 4 1 0 3 1 0 103 0 3 2 2 3 87 0 3 3 2 95 5 1 2 3 2 79 14 12 2 0 20 17 12 23 14 23 8 5 0 11 2 11 6 9 22 
CALL[ ]	/* CallFunction */";
};
width = 403;
}
);
note = equal;
unicode = 61;
},
{
glyphname = greater;
layers = (
{
layerId = m01;
shapes = (
{
closed = 1;
nodes = (
(43,383,o),
(43,396,qs),
(43,445,ls),
(43,456,o),
(53,451,qs),
(406,303,ls),
(414,299,o),
(414,290,qs),
(414,251,ls),
(414,240,o),
(406,238,q),
(52,88,ls),
(43,85,o),
(43,94,qs),
(43,99,ls),
(43,159,o),
(96,180,qs),
(318,271,l),
(57,377,ls)
);
}
);
userData = {
assembly = "PUSHB[ ]	/* 4 values pushed */
14 5 1 50 
CALL[ ]	/* CallFunction */";
};
width = 450;
}
);
note = greater;
unicode = 62;
},
{
glyphname = question;
layers = (
{
layerId = m01;
shapes = (
{
closed = 1;
nodes = (
(143,220,o),
(179,265,o),
(226,298,qs),
(279,337,o),
(317,389,o),
(317,426,qs),
(317,497,o),
(230,497,qs),
(163,497,o),
(96,456,q),
(86,451,o),
(82,451,qs),
(77,451,o),
(75,459,q),
(73,479,ls),
(69,519,o),
(116,539,qs),
(179,567,o),
(240,567,qs),
(311,567,o),
(392,500,o),
(392,441,qs),
(392,376,o),
(344,322,qs),
(317,292,o),
(224,226,qs),
(202,209,o),
(198,183,qs),
(193,154,ls),
(192,146,o),
(184,146,qs),
(138,146,ls),
(129,146,o),
(131,154,qs),
(138,192,ls)
);
},
{
closed = 1;
nodes = (
(93,34,qs),
(93,57,o),
(126,91,o),
(148,91,qs),
(190,91,o),
(190,49,qs),
(190,24,o),
(158,-10,o),
(136,-10,qs),
(93,-10,o)
);
}
);
userData = {
assembly = "MPPEM[ ]	/* MeasurePixelPerEm */
PUSHB[ ]	/* 1 value pushed */
35 
LT[ ]	/* LessThan */
IF[ ]	/* If */
NPUSHB[ ]	/* 37 values pushed */
0 2 3 0 3 2 0 128 0 0 5 3 0 5 126 0 3 3 1 97 0 1 1 39 77 0 5 5 4 97 6 1 4 4 46 4 78 
ELSE[ ]	/* Else */
NPUSHB[ ]	/* 35 values pushed */
0 2 3 0 3 2 0 128 0 0 5 3 0 5 126 0 1 0 3 2 1 3 105 0 5 5 4 97 6 1 4 4 46 4 78 
EIF[ ]	/* EndIf */
NPUSHB[ ]	/* 15 values pushed */
36 35 41 39 35 44 36 44 34 37 42 49 7 9 26 
CALL[ ]	/* CallFunction */";
};
width = 387;
}
);
note = question;
unicode = 63;
},
{
glyphname = at;
layers = (
{
layerId = m01;
shapes = (
{
closed = 1;
nodes = (
(430,147,qs),
(474,198,o),
(474,267,qs),
(474,344,o),
(396,344,qs),
(341,344,o),
(301,297,qs),
(259,247,o),
(259,181,qs),
(259,144,o),
(298,101,o),
(331,101,qs),
(390,101,o)
);
},
{
closed = 1;
nodes = (
(306,34,qs),
(257,34,o),
(224,66,qs),
(186,104,o),
(186,171,qs),
(186,255,o),
(241,325,qs),
(307,409,o),
(404,409,qs),
(480,409,o),
(502,352,q),
(522,403,o),
(568,403,qs),
(574,403,ls),
(582,403,o),
(580,393,qs),
(518,163,ls),
(517,158,o),
(514,149,qs),
(510,133,o),
(508,126,q),
(504,96,o),
(530,96,qs),
(583,96,o),
(618,172,qs),
(651,245,o),
(651,321,qs),
(651,507,o),
(438,507,qs),
(305,507,o),
(211,416,qs),
(106,313,o),
(106,161,qs),
(106,60,o),
(160,0,qs),
(221,-69,o),
(334,-69,qs),
(464,-69,o),
(557,-7,qs),
(559,-6,o),
(562,-3,q),
(570,2,o),
(574,2,qs),
(581,2,o),
(581,-8,qs),
(581,-37,o),
(517,-77,qs),
(431,-131,o),
(324,-131,qs),
(204,-131,o),
(127,-61,qs),
(37,19,o),
(37,159,qs),
(37,314,o),
(142,431,qs),
(265,568,o),
(448,568,qs),
(562,568,o),
(635,509,qs),
(718,441,o),
(718,321,qs),
(718,227,o),
(670,144,qs),
(606,35,o),
(503,35,qs),
(473,35,o),
(438,73,o),
(440,103,q),
(388,34,o)
);
}
);
userData = {
assembly = "NPUSHB[ ]	/* 10 values pushed */
70 1 1 9 13 1 0 1 2 76 
MPPEM[ ]	/* MeasurePixelPerEm */
PUSHB[ ]	/* 1 value pushed */
31 
LT[ ]	/* LessThan */
IF[ ]	/* If */
NPUSHB[ ]	/* 46 values pushed */
0 5 2 6 2 5 6 128 10 1 9 0 1 0 9 1 105 8 12 2 0 11 1 2 5 0 2 106 0 6 0 4 6 4 101 0 7 7 3 97 0 3 3 39 7 78 
ELSE[ ]	/* Else */
MPPEM[ ]	/* MeasurePixelPerEm */
PUSHB[ ]	/* 1 value pushed */
33 
LT[ ]	/* LessThan */
IF[ ]	/* If */
NPUSHB[ ]	/* 53 values pushed */
0 9 10 1 10 9 1 128 0 5 2 6 2 5 6 128 0 10 0 1 0 10 1 105 8 12 2 0 11 1 2 5 0 2 106 0 6 0 4 6 4 101 0 7 7 3 97 0 3 3 39 7 78 
ELSE[ ]	/* Else */
MPPEM[ ]	/* MeasurePixelPerEm */
PUSHB[ ]	/* 1 value pushed */
37 
LT[ ]	/* LessThan */
IF[ ]	/* If */
NPUSHB[ ]	/* 59 values pushed */
0 9 10 1 10 9 1 128 0 5 2 6 2 5 6 128 0 3 0 7 10 3 7 105 0 10 0 1 0 10 1 105 8 12 2 0 11 1 2 5 0 2 106 0 6 4 4 6 89 0 6 6 4 97 0 4 6 4 81 
ELSE[ ]	/* Else */
NPUSHB[ ]	/* 64 values pushed */
0 9 10 1 10 9 1 128 0 5 2 6 2 5 6 128 0 3 0 7 10 3 7 105 0 10 0 1 0 10 1 105 12 1 0 8 2 0 89 0 8 11 1 2 5 8 2 106 0 6 4 4 6 89 0 6 6 4 97 0 4 6 4 81 
EIF[ ]	/* EndIf */
EIF[ ]	/* EndIf */
EIF[ ]	/* EndIf */
NPUSHB[ ]	/* 31 values pushed */
1 0 81 79 73 71 69 66 59 57 53 51 45 43 38 37 33 31 25 23 17 15 8 6 0 12 1 12 13 9 22 
CALL[ ]	/* CallFunction */";
};
width = 748;
}
);
note = at;
unicode = 64;
},
{
glyphname = A;
kernLeft = A;
kernRight = A;
layers = (
{
layerId = m01;
shapes = (
{
closed = 1;
nodes = (
(289,463,l),
(161,221,l),
(332,221,l)
);
},
{
closed = 1;
nodes = (
(45,0,o),
(35,0,qs),
(-25,0,ls),
(-34,0,o),
(-29,9,qs),
(261,548,ls),
(266,556,o),
(274,556,qs),
(293,556,ls),
(322,556,o),
(348,532,o),
(354,500,qs),
(446,9,ls),
(448,0,o),
(438,0,qs),
(383,0,ls),
(371,0,o),
(369,12,qs),
(344,153,l),
(125,153,l),
(51,12,ls)
);
}
);
userData = {
assembly = "NPUSHB[ ]	/* 44 values pushed */
1 1 0 3 1 76 5 1 0 0 1 2 0 1 104 0 3 3 39 77 4 1 2 2 40 2 78 0 0 22 19 16 13 9 6 4 3 0 2 0 2 6 9 22 
CALL[ ]	/* CallFunction */";
};
width = 495;
}
);
note = A;
unicode = 65;
},
{
glyphname = B;
layers = (
{
layerId = m01;
shapes = (
{
closed = 1;
nodes = (
(122,556,o),
(130,556,qs),
(309,556,ls),
(375,556,o),
(453,492,o),
(453,438,qs),
(453,329,o),
(349,291,q),
(432,267,o),
(432,176,qs),
(432,102,o),
(385,54,qs),
(332,0,o),
(237,0,qs),
(32,0,ls),
(26,0,o),
(26,4,qs),
(26,9,l),
(120,547,ls)
);
},
{
closed = 1;
nodes = (
(358,68,o),
(358,177,qs),
(358,215,o),
(309,258,o),
(267,258,qs),
(143,258,l),
(109,68,l),
(233,68,ls)
);
},
{
closed = 1;
nodes = (
(324,325,o),
(378,376,o),
(378,419,qs),
(378,488,o),
(301,488,qs),
(184,488,l),
(155,325,l),
(279,325,ls)
);
}
);
userData = {
assembly = "NPUSHB[ ]	/* 61 values pushed */
10 1 2 5 0 1 0 3 2 76 7 1 5 0 2 3 5 2 103 0 4 4 1 95 0 1 1 39 77 6 1 3 3 0 95 0 0 0 40 0 78 27 27 19 19 27 34 27 33 30 28 19 26 19 25 35 57 50 8 9 25 
CALL[ ]	/* CallFunction */";
};
width = 473;
}
);
note = B;
unicode = 66;
},
{
glyphname = C;
kernLeft = C;
kernRight = C;
layers = (
{
layerId = m01;
shapes = (
{
closed = 1;
nodes = (
(115,42,qs),
(54,104,o),
(54,222,qs),
(54,353,o),
(132,452,qs),
(223,567,o),
(361,567,qs),
(422,567,o),
(485,538,qs),
(526,517,o),
(511,477,qs),
(502,456,ls),
(498,446,o),
(491,446,qs),
(486,446,o),
(478,452,qs),
(421,495,o),
(351,495,qs),
(263,495,o),
(201,425,qs),
(131,346,o),
(131,224,qs),
(131,61,o),
(272,61,qs),
(367,61,o),
(435,132,qs),
(445,142,o),
(452,142,qs),
(463,142,o),
(463,128,qs),
(463,92,o),
(418,50,qs),
(354,-11,o),
(258,-11,qs),
(169,-11,o)
);
}
);
userData = {
assembly = "MPPEM[ ]	/* MeasurePixelPerEm */
PUSHB[ ]	/* 1 value pushed */
35 
LT[ ]	/* LessThan */
IF[ ]	/* If */
NPUSHB[ ]	/* 37 values pushed */
0 4 3 1 3 4 1 128 0 1 2 3 1 2 126 0 3 3 5 97 0 5 5 39 77 0 2 2 0 97 6 1 0 0 46 0 78 
ELSE[ ]	/* Else */
NPUSHB[ ]	/* 35 values pushed */
0 4 3 1 3 4 1 128 0 1 2 3 1 2 126 0 5 0 3 4 5 3 105 0 2 2 0 97 6 1 0 0 46 0 78 
EIF[ ]	/* EndIf */
NPUSHB[ ]	/* 19 values pushed */
1 0 28 26 21 19 17 15 11 9 7 5 0 34 1 34 7 9 22 
CALL[ ]	/* CallFunction */";
};
width = 499;
}
);
note = C;
unicode = 67;
},
{
glyphname = D;
layers = (
{
layerId = m01;
shapes = (
{
closed = 1;
nodes = (
(303,71,o),
(363,132,qs),
(432,202,o),
(432,330,qs),
(432,485,o),
(265,485,qs),
(184,485,l),
(111,71,l),
(205,71,ls)
);
},
{
closed = 1;
nodes = (
(27,9,qs),
(121,547,ls),
(123,556,o),
(131,556,qs),
(282,556,ls),
(381,556,o),
(441,505,qs),
(510,447,o),
(510,339,qs),
(510,199,o),
(439,109,qs),
(353,0,o),
(195,0,qs),
(33,0,ls),
(26,0,o)
);
}
);
userData = {
assembly = "NPUSHB[ ]	/* 41 values pushed */
0 0 0 3 95 0 3 3 39 77 4 1 1 1 2 95 5 1 2 2 40 2 78 11 9 0 0 20 17 9 23 11 23 0 8 0 7 33 6 9 23 
CALL[ ]	/* CallFunction */";
};
width = 544;
}
);
note = D;
unicode = 68;
},
{
glyphname = E;
kernRight = E;
layers = (
{
layerId = m01;
shapes = (
{
closed = 1;
nodes = (
(347,71,o),
(340,27,qs),
(337,11,ls),
(334,0,o),
(324,0,qs),
(34,0,ls),
(26,0,o),
(28,9,qs),
(123,547,ls),
(124,556,o),
(132,556,qs),
(381,556,ls),
(424,556,o),
(416,513,qs),
(414,496,ls),
(412,485,o),
(401,485,qs),
(186,485,l),
(155,312,l),
(319,312,ls),
(362,312,o),
(355,268,qs),
(353,252,l),
(350,242,o),
(340,242,qs),
(143,242,l),
(113,71,l),
(304,71,ls)
);
}
);
userData = {
assembly = "NPUSHB[ ]	/* 44 values pushed */
0 1 0 0 5 1 0 103 0 2 2 3 95 0 3 3 39 77 6 1 5 5 4 95 0 4 4 40 4 78 0 0 0 27 0 26 51 51 33 35 33 7 9 27 
CALL[ ]	/* CallFunction */";
};
width = 399;
}
);
note = E;
unicode = 69;
},
{
glyphname = F;
layers = (
{
layerId = m01;
shapes = (
{
closed = 1;
nodes = (
(99,0,o),
(90,0,qs),
(33,0,ls),
(26,0,o),
(27,9,qs),
(121,547,ls),
(123,556,o),
(131,556,qs),
(379,556,ls),
(423,556,o),
(415,513,qs),
(412,496,ls),
(411,485,o),
(399,485,qs),
(184,485,l),
(153,310,l),
(316,310,ls),
(359,310,o),
(352,266,qs),
(349,251,ls),
(347,239,o),
(336,239,qs),
(140,239,l),
(100,9,ls)
);
}
);
userData = {
assembly = "NPUSHB[ ]	/* 32 values pushed */
0 1 0 0 4 1 0 103 0 2 2 3 95 0 3 3 39 77 0 4 4 40 4 78 51 51 33 35 32 5 9 27 
CALL[ ]	/* CallFunction */";
};
width = 383;
}
);
note = F;
unicode = 70;
},
{
glyphname = G;
layers = (
{
layerId = m01;
shapes = (
{
closed = 1;
nodes = (
(333,224,ls),
(291,224,o),
(297,268,qs),
(298,284,ls),
(300,295,o),
(312,295,qs),
(506,295,ls),
(516,295,o),
(515,285,qs),
(482,106,ls),
(477,76,o),
(450,54,qs),
(371,-11,o),
(263,-11,qs),
(172,-11,o),
(117,42,qs),
(54,104,o),
(54,219,qs),
(54,356,o),
(134,454,qs),
(226,567,o),
(370,567,qs),
(441,567,o),
(498,539,qs),
(543,519,o),
(525,479,qs),
(516,458,ls),
(512,448,o),
(506,448,qs),
(503,448,o),
(493,454,qs),
(435,495,o),
(360,495,qs),
(268,495,o),
(205,426,qs),
(132,347,o),
(132,219,qs),
(132,61,o),
(269,61,qs),
(353,61,o),
(413,107,q),
(434,224,l)
);
}
);
userData = {
assembly = "PUSHB[ ]	/* 7 values pushed */
38 37 2 6 5 1 76 
MPPEM[ ]	/* MeasurePixelPerEm */
PUSHB[ ]	/* 1 value pushed */
35 
LT[ ]	/* LessThan */
IF[ ]	/* If */
NPUSHB[ ]	/* 37 values pushed */
0 2 1 5 1 2 5 128 0 5 0 6 0 5 6 103 0 1 1 3 97 0 3 3 39 77 0 0 0 4 97 0 4 4 46 4 78 
ELSE[ ]	/* Else */
NPUSHB[ ]	/* 35 values pushed */
0 2 1 5 1 2 5 128 0 3 0 1 2 3 1 105 0 5 0 6 0 5 6 103 0 0 0 4 97 0 4 4 46 4 78 
EIF[ ]	/* EndIf */
NPUSHB[ ]	/* 10 values pushed */
35 53 38 37 34 36 33 7 9 29 
CALL[ ]	/* CallFunction */";
};
width = 552;
}
);
note = G;
unicode = 71;
},
{
glyphname = H;
layers = (
{
layerId = m01;
shapes = (
{
closed = 1;
nodes = (
(99,0,o),
(90,0,qs),
(33,0,ls),
(26,0,o),
(27,9,qs),
(121,547,ls),
(123,556,o),
(131,556,qs),
(138,556,ls),
(196,556,o),
(184,485,qs),
(153,310,l),
(392,310,l),
(433,547,ls),
(435,556,o),
(443,556,qs),
(450,556,ls),
(508,556,o),
(496,485,qs),
(412,9,ls),
(411,0,o),
(403,0,qs),
(345,0,ls),
(337,0,o),
(339,9,qs),
(379,239,l),
(141,239,l),
(100,9,ls)
);
}
);
userData = {
assembly = "NPUSHB[ ]	/* 30 values pushed */
0 3 0 0 1 3 0 104 4 1 2 2 39 77 5 1 1 1 40 1 78 51 50 18 51 50 16 6 9 28 
CALL[ ]	/* CallFunction */";
};
width = 514;
}
);
note = H;
unicode = 72;
},
{
glyphname = I;
kernRight = I;
layers = (
{
layerId = m01;
shapes = (
{
closed = 1;
nodes = (
(28,9,qs),
(123,547,ls),
(124,556,o),
(132,556,qs),
(139,556,ls),
(198,556,o),
(185,485,qs),
(101,9,ls),
(100,0,o),
(92,0,qs),
(34,0,ls),
(26,0,o)
);
}
);
userData = {
assembly = "NPUSHB[ ]	/* 23 values pushed */
0 1 1 39 77 2 1 0 0 40 0 78 2 0 8 5 0 11 2 11 3 9 22 
CALL[ ]	/* CallFunction */";
};
width = 202;
}
);
note = I;
unicode = 73;
},
{
glyphname = J;
layers = (
{
layerId = m01;
shapes = (
{
closed = 1;
nodes = (
(-10,97,qs),
(-6,97,o),
(-1,91,qs),
(26,54,o),
(62,54,qs),
(118,54,o),
(129,117,qs),
(205,547,ls),
(206,556,o),
(214,556,qs),
(269,556,o),
(269,508,qs),
(269,501,o),
(268,488,q),
(267,485,l),
(202,114,ls),
(179,-10,o),
(65,-10,qs),
(27,-10,o),
(-24,34,o),
(-24,68,qs),
(-24,97,o)
);
}
);
userData = {
assembly = "NPUSHB[ ]	/* 31 values pushed */
0 3 1 2 1 3 2 128 0 1 1 39 77 0 2 2 0 97 0 0 0 46 0 78 34 35 38 34 4 9 26 
CALL[ ]	/* CallFunction */";
};
width = 283;
}
);
note = J;
unicode = 74;
},
{
glyphname = K;
layers = (
{
layerId = m01;
shapes = (
{
closed = 1;
nodes = (
(99,0,o),
(90,0,qs),
(33,0,ls),
(26,0,o),
(27,9,qs),
(121,547,ls),
(123,556,o),
(131,556,qs),
(138,556,ls),
(195,556,o),
(184,485,qs),
(148,282,l),
(403,544,ls),
(414,556,o),
(424,556,qs),
(490,556,ls),
(497,556,o),
(491,547,q),
(284,332,l),
(424,10,ls),
(428,0,o),
(417,0,qs),
(363,0,ls),
(350,0,o),
(346,11,qs),
(228,277,l),
(130,178,l),
(100,9,ls)
);
}
);
userData = {
assembly = "NPUSHB[ ]	/* 28 values pushed */
15 8 1 3 0 1 1 76 2 1 1 1 39 77 3 1 0 0 40 0 78 51 52 52 51 4 9 26 
CALL[ ]	/* CallFunction */";
};
width = 474;
}
);
note = K;
unicode = 75;
},
{
glyphname = L;
layers = (
{
layerId = m01;
shapes = (
{
closed = 1;
nodes = (
(316,71,o),
(308,27,qs),
(305,11,ls),
(303,0,o),
(293,0,qs),
(33,0,ls),
(26,0,o),
(27,9,qs),
(121,547,ls),
(123,556,o),
(131,556,qs),
(138,556,ls),
(196,556,o),
(184,485,qs),
(111,71,l),
(273,71,ls)
);
}
);
userData = {
assembly = "NPUSHB[ ]	/* 28 values pushed */
0 0 0 39 77 3 1 2 2 1 96 0 1 1 40 1 78 0 0 0 15 0 14 51 50 4 9 24 
CALL[ ]	/* CallFunction */";
};
width = 366;
}
);
note = L;
unicode = 76;
},
{
glyphname = M;
layers = (
{
layerId = m01;
shapes = (
{
closed = 1;
nodes = (
(504,556,o),
(512,556,qs),
(543,556,ls),
(566,556,o),
(591,525,o),
(587,500,qs),
(528,9,l),
(526,0,o),
(519,0,qs),
(460,0,ls),
(453,0,o),
(455,9,q),
(505,416,l),
(305,9,ls),
(301,0,o),
(291,0,qs),
(237,0,ls),
(230,0,o),
(229,9,qs),
(175,412,l),
(83,9,ls),
(81,0,o),
(75,0,qs),
(14,0,ls),
(8,0,o),
(10,9,qs),
(133,547,ls),
(135,556,o),
(142,556,qs),
(174,556,ls),
(201,556,o),
(227,536,o),
(231,511,qs),
(286,108,l),
(499,547,ls)
);
}
);
userData = {
assembly = "NPUSHB[ ]	/* 29 values pushed */
21 14 2 1 0 1 76 4 1 0 0 39 77 3 2 2 1 1 40 1 78 52 52 53 35 51 5 9 27 
CALL[ ]	/* CallFunction */";
};
width = 612;
}
);
note = M;
unicode = 77;
},
{
glyphname = N;
kernRight = N;
layers = (
{
layerId = m01;
shapes = (
{
closed = 1;
nodes = (
(440,556,o),
(447,556,qs),
(453,556,ls),
(511,556,o),
(499,485,qs),
(415,9,ls),
(414,0,o),
(406,0,qs),
(358,0,ls),
(344,0,o),
(339,13,qs),
(172,412,l),
(101,9,ls),
(100,0,o),
(92,0,qs),
(34,0,ls),
(26,0,o),
(28,9,qs),
(123,547,ls),
(124,556,o),
(132,556,qs),
(149,556,ls),
(174,556,o),
(198,538,o),
(209,511,qs),
(366,138,l),
(438,547,ls)
);
}
);
userData = {
assembly = "NPUSHB[ ]	/* 26 values pushed */
14 1 1 0 1 76 3 1 0 0 39 77 2 1 1 1 40 1 78 51 52 51 51 4 9 26 
CALL[ ]	/* CallFunction */";
};
width = 516;
}
);
note = N;
unicode = 78;
},
{
glyphname = O;
kernLeft = O;
kernRight = O;
layers = (
{
layerId = m01;
shapes = (
{
closed = 1;
nodes = (
(134,451,qs),
(226,567,o),
(357,567,qs),
(442,567,o),
(495,515,qs),
(557,456,o),
(557,347,qs),
(557,214,o),
(487,114,qs),
(401,-10,o),
(259,-10,qs),
(170,-10,o),
(116,42,qs),
(54,103,o),
(54,219,qs),
(54,350,o)
);
},
{
closed = 1;
nodes = (
(263,62,qs),
(351,62,o),
(411,133,qs),
(480,214,o),
(480,347,qs),
(480,495,o),
(346,495,qs),
(265,495,o),
(204,424,qs),
(131,341,o),
(131,219,qs),
(132,62,o)
);
}
);
userData = {
assembly = "MPPEM[ ]	/* MeasurePixelPerEm */
PUSHB[ ]	/* 1 value pushed */
35 
LT[ ]	/* LessThan */
IF[ ]	/* If */
NPUSHB[ ]	/* 21 values pushed */
0 2 2 1 97 0 1 1 39 77 0 3 3 0 97 0 0 0 46 0 78 
ELSE[ ]	/* Else */
NPUSHB[ ]	/* 19 values pushed */
0 1 0 2 3 1 2 105 0 3 3 0 97 0 0 0 46 0 78 
EIF[ ]	/* EndIf */
PUSHB[ ]	/* 7 values pushed */
36 38 38 35 4 9 26 
CALL[ ]	/* CallFunction */";
};
width = 592;
}
);
note = O;
unicode = 79;
},
{
glyphname = P;
layers = (
{
layerId = m01;
shapes = (
{
closed = 1;
nodes = (
(98,0,o),
(89,0,qs),
(32,0,ls),
(26,0,o),
(26,4,qs),
(26,9,l),
(120,547,ls),
(122,556,o),
(130,556,qs),
(310,556,ls),
(377,556,o),
(421,522,qs),
(475,482,o),
(475,407,qs),
(475,321,o),
(423,266,qs),
(363,203,o),
(259,203,qs),
(133,203,l),
(99,9,ls)
);
},
{
closed = 1;
nodes = (
(329,273,o),
(399,340,o),
(399,398,qs),
(399,438,o),
(350,485,o),
(308,485,qs),
(183,485,l),
(145,273,l),
(267,273,ls)
);
}
);
userData = {
assembly = "NPUSHB[ ]	/* 44 values pushed */
13 1 2 0 1 76 5 1 4 0 0 2 4 0 103 0 3 3 1 95 0 1 1 39 77 0 2 2 40 2 78 20 20 20 28 20 27 35 52 54 32 6 9 26 
CALL[ ]	/* CallFunction */";
};
width = 475;
}
);
note = P;
unicode = 80;
},
{
glyphname = Q;
layers = (
{
layerId = m01;
shapes = (
{
closed = 1;
nodes = (
(104,55,qs),
(54,115,o),
(54,219,qs),
(54,350,o),
(134,451,qs),
(226,567,o),
(356,567,qs),
(443,567,o),
(496,515,qs),
(557,456,o),
(557,347,qs),
(557,228,o),
(500,132,qs),
(429,15,o),
(308,-6,q),
(326,-45,o),
(371,-45,qs),
(414,-45,o),
(462,-7,q),
(467,-2,o),
(473,-2,qs),
(482,-2,o),
(482,-17,qs),
(482,-50,o),
(444,-78,qs),
(401,-111,o),
(346,-111,qs),
(240,-111,o),
(219,-7,q),
(146,4,o)
);
},
{
closed = 1;
nodes = (
(411,133,qs),
(480,214,o),
(480,347,qs),
(480,495,o),
(346,495,qs),
(266,495,o),
(204,424,qs),
(132,341,o),
(132,219,qs),
(132,62,o),
(263,62,qs),
(351,62,o)
);
}
);
userData = {
assembly = "PUSHB[ ]	/* 6 values pushed */
14 1 2 1 1 76 
MPPEM[ ]	/* MeasurePixelPerEm */
PUSHB[ ]	/* 1 value pushed */
9 
LT[ ]	/* LessThan */
IF[ ]	/* If */
NPUSHB[ ]	/* 33 values pushed */
6 1 4 5 1 2 4 114 0 1 2 5 1 2 126 0 2 0 0 2 0 102 0 5 5 3 97 0 3 3 39 5 78 
ELSE[ ]	/* Else */
MPPEM[ ]	/* MeasurePixelPerEm */
PUSHB[ ]	/* 1 value pushed */
35 
LT[ ]	/* LessThan */
IF[ ]	/* If */
NPUSHB[ ]	/* 34 values pushed */
6 1 4 5 1 5 4 1 128 0 1 2 5 1 2 126 0 2 0 0 2 0 102 0 5 5 3 97 0 3 3 39 5 78 
ELSE[ ]	/* Else */
NPUSHB[ ]	/* 40 values pushed */
6 1 4 5 1 5 4 1 128 0 1 2 5 1 2 126 0 3 0 5 4 3 5 105 0 2 0 0 2 89 0 2 2 0 98 0 0 2 0 82 
EIF[ ]	/* EndIf */
EIF[ ]	/* EndIf */
NPUSHB[ ]	/* 15 values pushed */
31 30 37 35 30 41 31 41 40 35 20 33 7 9 26 
CALL[ ]	/* CallFunction */";
};
width = 591;
}
);
note = Q;
unicode = 81;
},
{
glyphname = R;
layers = (
{
layerId = m01;
shapes = (
{
closed = 1;
nodes = (
(98,0,o),
(89,0,qs),
(32,0,ls),
(26,0,o),
(26,4,qs),
(26,9,l),
(120,547,ls),
(122,556,o),
(130,556,qs),
(313,556,ls),
(384,556,o),
(427,519,qs),
(475,477,o),
(475,403,qs),
(475,332,o),
(400,232,o),
(332,212,q),
(409,6,ls),
(411,0,o),
(404,0,qs),
(347,0,ls),
(334,0,o),
(330,11,qs),
(258,203,l),
(133,203,l),
(99,9,ls)
);
},
{
closed = 1;
nodes = (
(330,273,o),
(400,338,o),
(400,397,qs),
(400,437,o),
(351,485,o),
(309,485,qs),
(183,485,l),
(145,273,l),
(267,273,ls)
);
}
);
userData = {
assembly = "NPUSHB[ ]	/* 50 values pushed */
8 1 0 5 19 1 1 0 2 76 6 1 5 0 0 1 5 0 103 0 4 4 2 95 0 2 2 39 77 3 1 1 1 40 1 78 26 26 26 34 26 33 35 52 56 50 16 7 9 27 
CALL[ ]	/* CallFunction */";
};
width = 484;
}
);
note = R;
unicode = 82;
},
{
glyphname = S;
kernLeft = S;
kernRight = S;
layers = (
{
layerId = m01;
shapes = (
{
closed = 1;
nodes = (
(19,154,qs),
(26,154,o),
(30,147,qs),
(82,59,o),
(183,59,qs),
(246,59,o),
(318,115,o),
(318,163,qs),
(318,188,o),
(279,225,o),
(229,245,qs),
(152,277,o),
(131,289,qs),
(66,329,o),
(66,394,qs),
(66,466,o),
(118,513,qs),
(177,567,o),
(275,567,qs),
(344,567,o),
(403,538,qs),
(443,518,o),
(429,477,qs),
(423,459,ls),
(419,449,o),
(413,449,qs),
(407,449,o),
(400,455,qs),
(341,498,o),
(264,498,qs),
(213,498,o),
(142,447,o),
(142,411,qs),
(142,381,o),
(168,359,qs),
(190,341,o),
(256,313,qs),
(324,285,o),
(351,265,qs),
(395,231,o),
(395,182,qs),
(395,101,o),
(346,50,qs),
(287,-11,o),
(180,-11,qs),
(107,-11,o),
(2,67,o),
(2,121,qs),
(1,154,o)
);
}
);
userData = {
assembly = "MPPEM[ ]	/* MeasurePixelPerEm */
PUSHB[ ]	/* 1 value pushed */
35 
LT[ ]	/* LessThan */
IF[ ]	/* If */
NPUSHB[ ]	/* 36 values pushed */
0 2 1 5 1 2 5 128 0 5 4 1 5 4 126 0 1 1 3 97 0 3 3 39 77 0 4 4 0 97 0 0 0 46 0 78 
ELSE[ ]	/* Else */
NPUSHB[ ]	/* 34 values pushed */
0 2 1 5 1 2 5 128 0 5 4 1 5 4 126 0 3 0 1 2 3 1 105 0 4 4 0 97 0 0 0 46 0 78 
EIF[ ]	/* EndIf */
NPUSHB[ ]	/* 9 values pushed */
34 44 37 34 45 34 6 9 28 
CALL[ ]	/* CallFunction */";
};
width = 431;
}
);
note = S;
unicode = 83;
},
{
glyphname = T;
layers = (
{
layerId = m01;
shapes = (
{
closed = 1;
nodes = (
(66,485,o),
(68,494,qs),
(77,547,ls),
(79,556,o),
(86,556,qs),
(419,556,ls),
(463,556,o),
(456,513,qs),
(453,496,ls),
(451,485,o),
(440,485,qs),
(295,485,l),
(211,9,ls),
(210,0,o),
(201,0,qs),
(145,0,ls),
(136,0,o),
(138,9,qs),
(221,485,l),
(73,485,ls)
);
}
);
userData = {
assembly = "NPUSHB[ ]	/* 30 values pushed */
4 3 2 1 1 2 95 0 2 2 39 77 0 0 0 40 0 78 0 0 0 19 0 18 51 34 50 5 9 25 
CALL[ ]	/* CallFunction */";
};
width = 413;
}
);
note = T;
unicode = 84;
},
{
glyphname = U;
kernLeft = U;
kernRight = U;
layers = (
{
layerId = m01;
shapes = (
{
closed = 1;
nodes = (
(113,47,qs),
(60,112,o),
(79,223,qs),
(136,547,ls),
(138,556,o),
(146,556,qs),
(152,556,ls),
(211,556,o),
(199,485,qs),
(152,221,ls),
(139,145,o),
(190,61,o),
(249,61,qs),
(365,61,o),
(392,213,qs),
(451,547,ls),
(452,556,o),
(460,556,qs),
(467,556,ls),
(525,556,o),
(513,485,qs),
(463,201,ls),
(446,107,o),
(396,52,qs),
(338,-10,o),
(244,-10,qs),
(159,-10,o)
);
}
);
userData = {
assembly = "NPUSHB[ ]	/* 33 values pushed */
3 1 1 1 39 77 0 2 2 0 98 4 1 0 0 46 0 78 1 0 21 18 14 12 9 6 0 26 1 26 5 9 22 
CALL[ ]	/* CallFunction */";
};
width = 517;
}
);
note = U;
unicode = 85;
},
{
glyphname = V;
layers = (
{
layerId = m01;
shapes = (
{
closed = 1;
nodes = (
(444,556,o),
(459,556,qs),
(514,556,ls),
(524,556,o),
(518,547,q),
(247,9,ls),
(242,0,o),
(235,0,qs),
(169,0,ls),
(161,0,o),
(159,9,qs),
(77,546,ls),
(75,556,o),
(84,556,qs),
(107,556,ls),
(133,556,o),
(156,533,o),
(160,503,qs),
(217,89,l),
(439,544,ls)
);
}
);
userData = {
assembly = "NPUSHB[ ]	/* 18 values pushed */
2 1 0 0 39 77 0 1 1 40 1 78 51 51 51 3 9 25 
CALL[ ]	/* CallFunction */";
};
width = 467;
}
);
note = V;
unicode = 86;
},
{
glyphname = W;
layers = (
{
layerId = m01;
shapes = (
{
closed = 1;
nodes = (
(390,556,o),
(402,556,qs),
(421,556,ls),
(446,556,o),
(468,533,o),
(470,503,qs),
(509,99,l),
(691,544,l),
(697,556,o),
(710,556,qs),
(765,556,ls),
(773,556,o),
(769,547,qs),
(537,9,ls),
(533,0,o),
(525,0,qs),
(463,0,ls),
(454,0,o),
(454,9,q),
(410,454,l),
(213,9,l),
(210,0,o),
(201,0,qs),
(139,0,ls),
(129,0,o),
(129,9,qs),
(92,546,ls),
(92,556,o),
(101,556,qs),
(115,556,ls),
(142,556,o),
(166,532,o),
(168,503,qs),
(193,99,l),
(384,544,ls)
);
}
);
userData = {
assembly = "NPUSHB[ ]	/* 32 values pushed */
28 27 15 14 0 5 1 0 1 76 4 3 2 0 0 39 77 2 1 1 1 40 1 78 53 51 52 51 51 5 9 27 
CALL[ ]	/* CallFunction */";
};
width = 731;
}
);
note = W;
unicode = 87;
},
{
glyphname = X;
layers = (
{
layerId = m01;
shapes = (
{
closed = 1;
nodes = (
(47,0,o),
(38,0,qs),
(-22,0,ls),
(-31,0,o),
(-24,9,qs),
(204,301,l),
(92,546,ls),
(88,556,o),
(99,556,qs),
(122,556,ls),
(147,556,o),
(170,539,o),
(183,510,qs),
(257,345,l),
(411,544,l),
(422,556,o),
(432,556,qs),
(490,556,ls),
(499,556,o),
(491,547,q),
(289,282,l),
(413,9,ls),
(417,0,o),
(406,0,qs),
(353,0,ls),
(341,0,o),
(335,12,qs),
(233,236,l),
(56,12,ls)
);
}
);
userData = {
assembly = "NPUSHB[ ]	/* 28 values pushed */
22 14 7 3 0 1 1 76 2 1 1 1 39 77 3 1 0 0 40 0 78 52 53 52 50 4 9 26 
CALL[ ]	/* CallFunction */";
};
width = 460;
}
);
note = X;
unicode = 88;
},
{
glyphname = Y;
kernLeft = Y;
kernRight = Y;
layers = (
{
layerId = m01;
shapes = (
{
closed = 1;
nodes = (
(66,556,o),
(76,556,qs),
(96,556,ls),
(142,556,o),
(159,506,qs),
(235,286,l),
(412,544,l),
(419,556,o),
(431,556,qs),
(488,556,ls),
(499,556,o),
(491,544,qs),
(258,213,l),
(222,9,ls),
(221,0,o),
(213,0,qs),
(156,0,ls),
(148,0,o),
(150,9,qs),
(186,213,l),
(68,547,l)
);
}
);
userData = {
assembly = "NPUSHB[ ]	/* 24 values pushed */
14 1 0 1 1 76 2 1 1 1 39 77 0 0 0 40 0 78 52 52 50 3 9 25 
CALL[ ]	/* CallFunction */";
};
width = 432;
}
);
note = Y;
unicode = 89;
},
{
glyphname = Z;
kernLeft = Z;
kernRight = Z;
layers = (
{
layerId = m01;
shapes = (
{
closed = 1;
nodes = (
(375,71,o),
(367,27,qs),
(365,11,ls),
(363,0,o),
(352,0,qs),
(1,0,ls),
(-7,0,o),
(-5,9,qs),
(2,51,ls),
(6,69,o),
(22,88,qs),
(365,485,l),
(93,485,ls),
(86,485,o),
(87,494,qs),
(97,547,ls),
(98,556,o),
(106,556,qs),
(405,556,ls),
(460,556,o),
(451,505,qs),
(448,492,ls),
(446,477,o),
(428,455,qs),
(95,71,l),
(332,71,ls)
);
}
);
userData = {
assembly = "NPUSHB[ ]	/* 34 values pushed */
0 1 1 0 95 0 0 0 39 77 4 1 3 3 2 95 0 2 2 40 2 78 0 0 0 25 0 24 53 35 53 5 9 25 
CALL[ ]	/* CallFunction */";
};
width = 432;
}
);
note = Z;
unicode = 90;
},
{
glyphname = bracketleft;
layers = (
{
layerId = m01;
shapes = (
{
closed = 1;
nodes = (
(160,-144,qs),
(40,-144,ls),
(-4,-144,o),
(4,-101,qs),
(137,653,ls),
(144,696,o),
(188,696,qs),
(308,696,ls),
(320,696,o),
(317,685,qs),
(316,678,ls),
(308,635,o),
(265,635,qs),
(202,635,ls),
(198,635,o),
(197,629,qs),
(71,-78,ls),
(70,-83,o),
(75,-83,qs),
(138,-83,ls),
(182,-83,o),
(175,-126,q),
(173,-133,ls),
(171,-144,o)
);
}
);
userData = {
assembly = "NPUSHB[ ]	/* 31 values pushed */
0 2 0 1 0 2 1 103 0 0 3 3 0 87 0 0 0 3 95 0 3 0 3 79 51 51 52 34 4 9 26 
CALL[ ]	/* CallFunction */";
};
width = 246;
}
);
note = bracketleft;
unicode = 91;
},
{
glyphname = backslash;
layers = (
{
layerId = m01;
shapes = (
{
closed = 1;
nodes = (
(66,556,o),
(76,556,qs),
(83,556,ls),
(112,556,o),
(138,532,o),
(145,502,qs),
(262,9,l),
(263,0,o),
(255,0,qs),
(204,0,ls),
(195,0,o),
(193,9,qs),
(68,547,ls)
);
}
);
userData = {
assembly = "NPUSHB[ ]	/* 16 values pushed */
0 1 1 39 77 0 0 0 40 0 78 52 49 2 9 24 
CALL[ ]	/* CallFunction */";
};
width = 302;
}
);
note = backslash;
unicode = 92;
},
{
glyphname = bracketright;
layers = (
{
layerId = m01;
shapes = (
{
closed = 1;
nodes = (
(-36,-83,o),
(8,-83,qs),
(70,-83,ls),
(75,-83,o),
(76,-78,qs),
(202,629,ls),
(203,635,o),
(197,635,qs),
(135,635,ls),
(90,635,o),
(97,678,q),
(99,685,ls),
(101,696,o),
(111,696,qs),
(231,696,ls),
(277,696,o),
(269,653,qs),
(136,-101,ls),
(129,-144,o),
(84,-144,qs),
(-37,-144,ls),
(-48,-144,o),
(-46,-133,qs),
(-44,-126,ls)
);
}
);
userData = {
assembly = "NPUSHB[ ]	/* 31 values pushed */
0 1 0 2 3 1 2 103 0 3 0 0 3 87 0 3 3 0 95 0 0 3 0 79 37 35 51 49 4 9 26 
CALL[ ]	/* CallFunction */";
};
width = 244;
}
);
note = bracketright;
unicode = 93;
},
{
glyphname = asciicircum;
layers = (
{
layerId = m01;
shapes = (
{
closed = 1;
nodes = (
(98,271,o),
(86,271,qs),
(36,271,ls),
(26,271,o),
(30,279,qs),
(171,544,l),
(176,556,o),
(190,556,qs),
(235,556,o),
(259,512,qs),
(384,279,ls),
(389,271,o),
(377,271,qs),
(327,271,ls),
(316,271,o),
(309,282,q),
(207,477,l),
(104,282,ls)
);
}
);
userData = {
assembly = "PUSHB[ ]	/* 2 values pushed */
6 100 
WCVTP[ ]	/* WriteCVTInPixels */
NPUSHB[ ]	/* 16 values pushed */
0 1 0 1 133 2 1 0 0 118 51 35 50 3 9 25 
CALL[ ]	/* CallFunction */
PUSHB[ ]	/* 2 values pushed */
6 0 
WCVTP[ ]	/* WriteCVTInPixels */";
};
width = 407;
}
);
note = asciicircum;
unicode = 94;
},
{
glyphname = underscore;
layers = (
{
layerId = m01;
shapes = (
{
closed = 1;
nodes = (
(-85,-180,qs),
(-76,-131,ls),
(-74,-122,o),
(-67,-122,qs),
(351,-122,ls),
(359,-122,o),
(357,-131,qs),
(348,-180,ls),
(347,-188,o),
(340,-188,qs),
(-78,-188,ls),
(-86,-188,o)
);
}
);
userData = {
assembly = "PUSHB[ ]	/* 2 values pushed */
6 100 
WCVTP[ ]	/* WriteCVTInPixels */
NPUSHB[ ]	/* 28 values pushed */
0 1 0 0 1 87 0 1 1 0 95 2 1 0 1 0 79 2 0 8 5 0 11 2 11 3 9 22 
CALL[ ]	/* CallFunction */
PUSHB[ ]	/* 2 values pushed */
6 0 
WCVTP[ ]	/* WriteCVTInPixels */";
};
width = 418;
}
);
note = underscore;
unicode = 95;
},
{
glyphname = grave;
layers = (
{
layerId = m01;
shapes = (
{
closed = 1;
nodes = (
(152,431,o),
(148,431,qs),
(97,431,ls),
(81,431,o),
(71,441,qs),
(3,507,ls),
(1,509,o),
(5,516,o),
(9,516,qs),
(72,516,ls),
(84,516,o),
(94,506,qs),
(153,439,l),
(156,437,o)
);
}
);
userData = {
assembly = "PUSHB[ ]	/* 2 values pushed */
6 100 
WCVTP[ ]	/* WriteCVTInPixels */
NPUSHB[ ]	/* 21 values pushed */
0 0 1 1 0 87 0 0 0 1 97 0 1 0 1 81 37 34 2 9 24 
CALL[ ]	/* CallFunction */
PUSHB[ ]	/* 2 values pushed */
6 0 
WCVTP[ ]	/* WriteCVTInPixels */";
};
width = 154;
}
);
note = grave;
unicode = 96;
},
{
glyphname = a;
kernLeft = a;
layers = (
{
layerId = m01;
shapes = (
{
closed = 1;
nodes = (
(165,-9,qs),
(107,-9,o),
(70,29,qs),
(28,73,o),
(28,148,qs),
(27,237,o),
(82,302,qs),
(145,377,o),
(235,377,qs),
(315,377,o),
(345,319,q),
(362,368,o),
(409,368,qs),
(414,368,ls),
(422,368,o),
(420,360,qs),
(359,9,ls),
(357,0,o),
(349,0,qs),
(293,0,ls),
(285,0,o),
(286,9,qs),
(294,52,l),
(243,-9,o)
);
},
{
closed = 1;
nodes = (
(184,59,qs),
(244,59,o),
(281,103,qs),
(320,148,o),
(320,218,qs),
(320,308,o),
(235,308,qs),
(179,308,o),
(142,264,qs),
(102,217,o),
(103,152,qs),
(104,59,o)
);
}
);
userData = {
assembly = "PUSHB[ ]	/* 6 values pushed */
12 1 4 1 1 76 
MPPEM[ ]	/* MeasurePixelPerEm */
PUSHB[ ]	/* 1 value pushed */
20 
LT[ ]	/* LessThan */
IF[ ]	/* If */
NPUSHB[ ]	/* 23 values pushed */
0 4 4 1 97 2 1 1 1 42 77 0 5 5 0 97 3 1 0 0 40 0 78 
ELSE[ ]	/* Else */
NPUSHB[ ]	/* 31 values pushed */
0 1 1 42 77 0 4 4 2 97 0 2 2 48 77 0 0 0 40 77 0 5 5 3 97 0 3 3 49 3 78 
EIF[ ]	/* EndIf */
NPUSHB[ ]	/* 9 values pushed */
36 36 38 34 51 50 6 9 28 
CALL[ ]	/* CallFunction */";
};
width = 449;
}
);
note = a;
unicode = 97;
},
{
glyphname = b;
layers = (
{
layerId = m01;
shapes = (
{
closed = 1;
nodes = (
(86,0,o),
(78,0,qs),
(21,0,ls),
(13,0,o),
(15,9,qs),
(110,547,ls),
(111,556,o),
(120,556,qs),
(125,556,ls),
(183,556,o),
(171,487,qs),
(141,316,l),
(193,377,o),
(270,377,qs),
(328,377,o),
(365,341,qs),
(408,301,o),
(408,232,qs),
(408,137,o),
(357,69,qs),
(299,-9,o),
(209,-9,qs),
(123,-9,o),
(95,49,q),
(88,9,ls)
);
},
{
closed = 1;
nodes = (
(291,99,qs),
(333,145,o),
(333,214,qs),
(333,308,o),
(248,308,qs),
(194,308,o),
(157,269,qs),
(116,224,o),
(116,151,qs),
(116,110,o),
(164,59,o),
(203,59,qs),
(254,59,o)
);
}
);
userData = {
assembly = "PUSHB[ ]	/* 6 values pushed */
12 1 5 1 1 76 
MPPEM[ ]	/* MeasurePixelPerEm */
PUSHB[ ]	/* 1 value pushed */
20 
LT[ ]	/* LessThan */
IF[ ]	/* If */
NPUSHB[ ]	/* 28 values pushed */
0 2 2 39 77 0 5 5 1 97 0 1 1 48 77 6 1 4 4 0 98 3 1 0 0 49 0 78 
ELSE[ ]	/* Else */
NPUSHB[ ]	/* 32 values pushed */
0 2 2 39 77 0 5 5 1 97 0 1 1 48 77 0 3 3 40 77 6 1 4 4 0 98 0 0 0 49 0 78 
EIF[ ]	/* EndIf */
NPUSHB[ ]	/* 15 values pushed */
26 25 33 31 25 37 26 37 51 51 38 33 7 9 26 
CALL[ ]	/* CallFunction */";
};
width = 450;
}
);
note = b;
unicode = 98;
},
{
glyphname = c;
kernLeft = c;
kernRight = c;
layers = (
{
layerId = m01;
shapes = (
{
closed = 1;
nodes = (
(68,29,qs),
(27,71,o),
(27,147,qs),
(27,234,o),
(80,299,qs),
(145,377,o),
(247,377,qs),
(287,377,o),
(321,362,qs),
(355,346,o),
(338,307,qs),
(330,289,ls),
(327,281,o),
(323,281,qs),
(319,281,o),
(315,284,qs),
(276,308,o),
(233,308,qs),
(182,308,o),
(145,269,qs),
(103,223,o),
(103,151,qs),
(103,54,o),
(190,54,qs),
(247,54,o),
(288,91,qs),
(299,101,o),
(304,101,qs),
(313,101,o),
(313,91,qs),
(313,58,o),
(279,28,qs),
(235,-10,o),
(169,-10,qs),
(106,-10,o)
);
}
);
userData = {
assembly = "NPUSHB[ ]	/* 56 values pushed */
0 4 3 1 3 4 1 128 0 1 2 3 1 2 126 0 3 3 5 97 0 5 5 48 77 0 2 2 0 97 6 1 0 0 46 0 78 1 0 28 26 21 19 17 15 11 9 6 5 0 34 1 34 7 9 22 
CALL[ ]	/* CallFunction */";
};
width = 355;
}
);
note = c;
unicode = 99;
},
{
glyphname = d;
layers = (
{
layerId = m01;
shapes = (
{
closed = 1;
nodes = (
(381,556,o),
(390,556,qs),
(395,556,ls),
(454,556,o),
(441,487,qs),
(358,9,ls),
(356,0,o),
(348,0,qs),
(291,0,ls),
(285,0,o),
(285,9,q),
(293,52,l),
(243,-9,o),
(163,-9,qs),
(105,-9,o),
(69,28,qs),
(27,71,o),
(27,148,qs),
(27,235,o),
(81,301,qs),
(144,377,o),
(235,377,qs),
(316,377,o),
(340,318,q),
(380,547,ls)
);
},
{
closed = 1;
nodes = (
(279,104,qs),
(319,150,o),
(319,217,qs),
(319,308,o),
(235,308,qs),
(184,308,o),
(146,269,qs),
(103,223,o),
(103,154,qs),
(103,59,o),
(183,59,qs),
(241,59,o)
);
}
);
userData = {
assembly = "MPPEM[ ]	/* MeasurePixelPerEm */
PUSHB[ ]	/* 1 value pushed */
20 
LT[ ]	/* LessThan */
IF[ ]	/* If */
PUSHB[ ]	/* 7 values pushed */
13 12 2 1 4 1 76 
ELSE[ ]	/* Else */
PUSHB[ ]	/* 7 values pushed */
13 12 2 2 4 1 76 
EIF[ ]	/* EndIf */
MPPEM[ ]	/* MeasurePixelPerEm */
PUSHB[ ]	/* 1 value pushed */
20 
LT[ ]	/* LessThan */
IF[ ]	/* If */
NPUSHB[ ]	/* 28 values pushed */
0 3 3 39 77 0 5 5 0 97 0 0 0 48 77 6 1 4 4 1 97 2 1 1 1 49 1 78 
ELSE[ ]	/* Else */
NPUSHB[ ]	/* 32 values pushed */
0 3 3 39 77 0 5 5 0 97 0 0 0 48 77 0 2 2 40 77 6 1 4 4 1 97 0 1 1 49 1 78 
EIF[ ]	/* EndIf */
NPUSHB[ ]	/* 15 values pushed */
26 25 32 30 25 36 26 36 51 51 38 33 7 9 26 
CALL[ ]	/* CallFunction */";
};
width = 446;
}
);
note = d;
unicode = 100;
},
{
glyphname = e;
kernLeft = e;
kernRight = e;
layers = (
{
layerId = m01;
shapes = (
{
closed = 1;
nodes = (
(198,54,qs),
(255,54,o),
(315,93,qs),
(316,94,o),
(318,95,qs),
(327,101,o),
(330,101,qs),
(338,101,o),
(338,92,qs),
(338,58,o),
(299,28,qs),
(251,-9,o),
(180,-9,qs),
(115,-9,o),
(75,27,qs),
(26,70,o),
(28,154,qs),
(29,244,o),
(83,306,qs),
(144,377,o),
(237,377,qs),
(297,377,o),
(368,308,o),
(368,249,qs),
(367,216,o),
(355,171,qs),
(352,159,o),
(339,159,qs),
(99,159,l),
(90,54,o)
);
},
{
closed = 1;
nodes = (
(296,223,o),
(298,239,q),
(298,313,o),
(225,313,qs),
(137,313,o),
(110,214,q),
(294,214,l)
);
}
);
userData = {
assembly = "NPUSHB[ ]	/* 59 values pushed */
34 1 6 5 1 76 0 3 0 4 0 3 4 128 7 1 6 0 0 3 6 0 103 0 5 5 1 97 0 1 1 48 77 0 4 4 2 97 0 2 2 49 2 78 30 30 30 36 30 36 34 37 20 38 37 32 8 9 28 
CALL[ ]	/* CallFunction */";
};
width = 403;
}
);
note = e;
unicode = 101;
},
{
glyphname = f;
kernLeft = f;
layers = (
{
layerId = m01;
shapes = (
{
closed = 1;
nodes = (
(30,302,o),
(31,310,qs),
(39,360,ls),
(41,368,o),
(48,368,qs),
(107,368,l),
(119,442,ls),
(141,562,o),
(237,562,qs),
(269,562,o),
(310,522,o),
(310,490,q),
(311,484,o),
(303,471,o),
(298,471,qs),
(293,471,o),
(287,477,qs),
(266,498,o),
(243,498,qs),
(202,498,o),
(192,438,qs),
(179,368,l),
(267,368,ls),
(274,368,o),
(272,360,qs),
(263,310,ls),
(262,302,o),
(255,302,qs),
(168,302,l),
(116,9,ls),
(114,0,o),
(107,0,qs),
(49,0,ls),
(42,0,o),
(43,9,qs),
(95,302,l),
(36,302,ls)
);
}
);
userData = {
assembly = "NPUSHB[ ]	/* 59 values pushed */
24 1 4 3 1 76 0 4 3 2 3 4 2 128 0 3 3 5 97 0 5 5 39 77 8 7 2 1 1 2 95 6 1 2 2 42 77 0 0 0 40 0 78 0 0 0 36 0 35 34 36 34 34 35 34 50 9 9 29 
CALL[ ]	/* CallFunction */";
};
width = 279;
}
);
note = f;
unicode = 102;
},
{
glyphname = g;
layers = (
{
layerId = m01;
shapes = (
{
closed = 1;
nodes = (
(162,-6,qs),
(100,-6,o),
(64,32,qs),
(25,73,o),
(25,146,qs),
(25,235,o),
(81,301,qs),
(145,377,o),
(238,377,qs),
(312,377,o),
(343,319,q),
(358,368,o),
(405,368,qs),
(410,368,ls),
(419,368,o),
(417,360,qs),
(355,12,ls),
(323,-171,o),
(148,-171,qs),
(86,-171,o),
(2,-114,o),
(2,-72,qs),
(2,-45,o),
(16,-45,qs),
(21,-45,o),
(28,-52,qs),
(76,-101,o),
(142,-101,qs),
(261,-101,o),
(284,20,qs),
(291,54,l),
(243,-6,o)
);
},
{
closed = 1;
nodes = (
(273,98,qs),
(317,142,o),
(317,213,qs),
(317,308,o),
(231,308,qs),
(181,308,o),
(143,269,qs),
(100,222,o),
(100,153,qs),
(100,59,o),
(181,59,qs),
(235,59,o)
);
}
);
userData = {
assembly = "PUSHB[ ]	/* 6 values pushed */
20 1 7 3 1 76 
MPPEM[ ]	/* MeasurePixelPerEm */
PUSHB[ ]	/* 1 value pushed */
9 
LT[ ]	/* LessThan */
IF[ ]	/* If */
NPUSHB[ ]	/* 41 values pushed */
0 1 5 0 5 1 0 128 0 7 7 3 97 4 1 3 3 42 77 8 1 6 6 5 97 0 5 5 49 77 0 0 0 2 97 0 2 2 44 2 78 
ELSE[ ]	/* Else */
MPPEM[ ]	/* MeasurePixelPerEm */
PUSHB[ ]	/* 1 value pushed */
11 
LT[ ]	/* LessThan */
IF[ ]	/* If */
NPUSHB[ ]	/* 41 values pushed */
0 1 5 0 5 1 0 128 0 7 7 3 97 4 1 3 3 42 77 8 1 6 6 5 97 0 5 5 46 77 0 0 0 2 97 0 2 2 44 2 78 
ELSE[ ]	/* Else */
MPPEM[ ]	/* MeasurePixelPerEm */
PUSHB[ ]	/* 1 value pushed */
20 
LT[ ]	/* LessThan */
IF[ ]	/* If */
NPUSHB[ ]	/* 41 values pushed */
0 1 5 0 5 1 0 128 0 7 7 3 97 4 1 3 3 42 77 8 1 6 6 5 97 0 5 5 49 77 0 0 0 2 97 0 2 2 44 2 78 
ELSE[ ]	/* Else */
NPUSHB[ ]	/* 45 values pushed */
0 1 5 0 5 1 0 128 0 3 3 42 77 0 7 7 4 97 0 4 4 48 77 8 1 6 6 5 97 0 5 5 49 77 0 0 0 2 97 0 2 2 44 2 78 
EIF[ ]	/* EndIf */
EIF[ ]	/* EndIf */
EIF[ ]	/* EndIf */
NPUSHB[ ]	/* 17 values pushed */
33 32 39 37 32 43 33 43 38 34 51 35 34 34 9 9 28 
CALL[ ]	/* CallFunction */";
};
width = 446;
}
);
note = g;
unicode = 103;
},
{
glyphname = h;
layers = (
{
layerId = m01;
shapes = (
{
closed = 1;
nodes = (
(267,377,qs),
(319,377,o),
(383,312,o),
(383,261,qs),
(383,247,o),
(380,221,qs),
(379,216,l),
(343,9,ls),
(342,0,o),
(333,0,qs),
(277,0,ls),
(269,0,o),
(271,9,qs),
(305,204,ls),
(308,229,o),
(308,238,qs),
(308,310,o),
(237,310,qs),
(141,310,o),
(121,199,qs),
(88,9,ls),
(86,0,o),
(78,0,qs),
(21,0,ls),
(13,0,o),
(15,9,qs),
(110,547,ls),
(111,556,o),
(120,556,qs),
(125,556,ls),
(183,556,o),
(171,487,qs),
(142,323,l),
(189,377,o)
);
}
);
userData = {
assembly = "NPUSHB[ ]	/* 30 values pushed */
0 0 0 39 77 0 2 2 4 97 0 4 4 48 77 3 1 1 1 40 1 78 39 53 35 51 50 5 9 27 
CALL[ ]	/* CallFunction */";
};
width = 433;
}
);
note = h;
unicode = 104;
},
{
glyphname = i;
kernLeft = i;
kernRight = i;
layers = (
{
layerId = m01;
shapes = (
{
closed = 1;
nodes = (
(15,9,qs),
(77,360,ls),
(78,368,o),
(86,368,qs),
(91,368,ls),
(151,368,o),
(138,299,qs),
(87,9,ls),
(86,0,o),
(78,0,qs),
(21,0,ls),
(13,0,o)
);
},
{
closed = 1;
nodes = (
(112,513,o),
(133,513,qs),
(172,513,o),
(172,476,qs),
(171,454,o),
(141,422,o),
(119,422,qs),
(82,422,o),
(82,460,qs),
(82,482,o)
);
}
);
userData = {
assembly = "NPUSHB[ ]	/* 35 values pushed */
0 3 0 2 1 3 2 105 0 1 1 42 77 4 1 0 0 40 0 78 2 0 20 18 15 13 8 5 0 11 2 11 5 9 22 
CALL[ ]	/* CallFunction */";
};
width = 176;
}
);
note = i;
unicode = 105;
},
{
glyphname = j;
layers = (
{
layerId = m01;
shapes = (
{
closed = 1;
nodes = (
(-114,-78,qs),
(-110,-78,o),
(-106,-82,qs),
(-80,-106,o),
(-59,-106,qs),
(-37,-106,o),
(-15,-78,o),
(-8,-42,qs),
(63,360,ls),
(64,368,o),
(72,368,qs),
(77,368,ls),
(136,368,o),
(124,299,qs),
(63,-48,ls),
(42,-171,o),
(-49,-171,qs),
(-83,-171,o),
(-125,-132,o),
(-125,-101,qs),
(-125,-78,o)
);
},
{
closed = 1;
nodes = (
(68,460,qs),
(68,482,o),
(97,513,o),
(118,513,qs),
(157,513,o),
(157,476,qs),
(157,454,o),
(126,422,o),
(104,422,qs),
(68,422,o)
);
}
);
userData = {
assembly = "NPUSHB[ ]	/* 48 values pushed */
0 3 1 2 1 3 2 128 0 5 6 1 4 1 5 4 105 0 1 1 42 77 0 2 2 0 97 0 0 0 44 0 78 22 21 27 25 21 30 22 30 34 36 51 34 7 9 26 
CALL[ ]	/* CallFunction */";
};
width = 163;
}
);
note = j;
unicode = 106;
},
{
glyphname = k;
layers = (
{
layerId = m01;
shapes = (
{
closed = 1;
nodes = (
(86,0,o),
(78,0,qs),
(21,0,ls),
(13,0,o),
(15,9,qs),
(110,547,ls),
(111,556,o),
(120,556,qs),
(125,556,ls),
(183,556,o),
(171,487,qs),
(126,229,l),
(270,358,ls),
(281,368,o),
(293,368,qs),
(359,368,ls),
(368,368,o),
(362,360,q),
(221,234,l),
(316,9,ls),
(319,0,o),
(310,0,qs),
(255,0,ls),
(242,0,o),
(238,11,qs),
(166,185,l),
(110,135,l),
(88,9,ls)
);
}
);
userData = {
assembly = "NPUSHB[ ]	/* 32 values pushed */
15 8 1 3 0 1 1 76 0 2 2 39 77 0 1 1 42 77 3 1 0 0 40 0 78 51 52 52 51 4 9 26 
CALL[ ]	/* CallFunction */";
};
width = 366;
}
);
note = k;
unicode = 107;
},
{
glyphname = l;
kernRight = l;
layers = (
{
layerId = m01;
shapes = (
{
closed = 1;
nodes = (
(32,107,qs),
(34,117,l),
(109,547,ls),
(111,556,o),
(119,556,qs),
(124,556,ls),
(183,556,o),
(171,487,qs),
(105,111,l),
(104,109,o),
(104,105,q),
(102,96,o),
(102,93,qs),
(102,59,o),
(136,59,qs),
(159,59,o),
(184,83,q),
(189,89,o),
(195,89,qs),
(202,89,o),
(202,81,qs),
(201,44,o),
(144,-9,o),
(105,-9,qs),
(30,-9,o),
(28,74,qs),
(28,84,o)
);
}
);
userData = {
assembly = "NPUSHB[ ]	/* 37 values pushed */
13 1 1 3 1 76 0 1 3 2 3 1 2 128 0 3 3 39 77 0 2 2 0 98 0 0 0 49 0 78 55 35 19 33 4 9 26 
CALL[ ]	/* CallFunction */";
};
width = 231;
}
);
note = l;
unicode = 108;
},
{
glyphname = m;
layers = (
{
layerId = m01;
shapes = (
{
closed = 1;
nodes = (
(258,376,qs),
(345,376,o),
(367,305,q),
(427,376,o),
(507,376,qs),
(564,376,o),
(628,312,o),
(628,257,qs),
(628,246,o),
(626,227,qs),
(625,218,o),
(625,216,qs),
(588,9,ls),
(587,0,o),
(578,0,qs),
(522,0,ls),
(515,0,o),
(516,9,qs),
(550,203,ls),
(554,225,o),
(554,238,qs),
(554,309,o),
(485,309,qs),
(391,309,o),
(371,199,qs),
(338,9,ls),
(337,0,o),
(329,0,qs),
(271,0,ls),
(264,0,o),
(266,9,qs),
(300,203,l),
(303,229,o),
(303,237,qs),
(303,309,o),
(233,309,qs),
(140,309,o),
(121,199,qs),
(88,9,ls),
(86,0,o),
(78,0,qs),
(21,0,ls),
(13,0,o),
(15,9,qs),
(77,360,ls),
(78,368,o),
(86,368,qs),
(91,368,ls),
(138,368,o),
(140,319,q),
(186,376,o)
);
}
);
userData = {
assembly = "NPUSHB[ ]	/* 10 values pushed */
0 1 2 0 47 1 1 2 2 76 
MPPEM[ ]	/* MeasurePixelPerEm */
PUSHB[ ]	/* 1 value pushed */
25 
LT[ ]	/* LessThan */
IF[ ]	/* If */
NPUSHB[ ]	/* 21 values pushed */
4 1 2 2 0 97 7 6 2 0 0 42 77 5 3 2 1 1 40 1 78 
ELSE[ ]	/* Else */
NPUSHB[ ]	/* 25 values pushed */
0 0 0 42 77 4 1 2 2 6 97 7 1 6 6 48 77 5 3 2 1 1 40 1 78 
EIF[ ]	/* EndIf */
NPUSHB[ ]	/* 11 values pushed */
34 40 53 35 53 35 51 49 8 9 30 
CALL[ ]	/* CallFunction */";
};
width = 679;
}
);
note = m;
unicode = 109;
},
{
glyphname = n;
kernLeft = n;
kernRight = n;
layers = (
{
layerId = m01;
shapes = (
{
closed = 1;
nodes = (
(266,377,qs),
(318,377,o),
(382,312,o),
(382,261,qs),
(382,248,o),
(379,224,qs),
(378,216,l),
(342,9,ls),
(341,0,o),
(332,0,qs),
(276,0,ls),
(268,0,o),
(270,9,qs),
(303,204,ls),
(307,228,o),
(307,238,qs),
(307,310,o),
(236,310,qs),
(140,310,o),
(120,199,qs),
(87,9,l),
(87,0,o),
(78,0,qs),
(21,0,ls),
(13,0,o),
(15,9,qs),
(77,360,ls),
(78,368,o),
(86,368,qs),
(91,368,ls),
(139,368,o),
(139,318,q),
(190,377,o)
);
}
);
userData = {
assembly = "NPUSHB[ ]	/* 10 values pushed */
0 1 2 0 11 1 1 2 2 76 
MPPEM[ ]	/* MeasurePixelPerEm */
PUSHB[ ]	/* 1 value pushed */
20 
LT[ ]	/* LessThan */
IF[ ]	/* If */
NPUSHB[ ]	/* 18 values pushed */
0 2 2 0 97 4 1 0 0 42 77 3 1 1 1 40 1 78 
ELSE[ ]	/* Else */
NPUSHB[ ]	/* 22 values pushed */
0 0 0 42 77 0 2 2 4 97 0 4 4 48 77 3 1 1 1 40 1 78 
EIF[ ]	/* EndIf */
PUSHB[ ]	/* 8 values pushed */
39 53 35 51 49 5 9 27 
CALL[ ]	/* CallFunction */";
};
width = 432;
}
);
note = n;
unicode = 110;
},
{
glyphname = o;
kernLeft = o;
kernRight = o;
layers = (
{
layerId = m01;
shapes = (
{
closed = 1;
nodes = (
(84,306,qs),
(149,377,o),
(244,377,qs),
(309,377,o),
(349,339,qs),
(395,296,o),
(395,222,qs),
(395,131,o),
(345,68,qs),
(285,-9,o),
(179,-9,qs),
(115,-9,o),
(74,31,qs),
(28,76,o),
(28,158,qs),
(27,244,o)
);
},
{
closed = 1;
nodes = (
(189,59,qs),
(244,59,o),
(281,103,qs),
(320,148,o),
(320,214,qs),
(319,308,o),
(232,308,qs),
(177,308,o),
(141,265,qs),
(103,220,o),
(103,156,qs),
(103,59,o)
);
}
);
userData = {
assembly = "NPUSHB[ ]	/* 28 values pushed */
0 2 2 1 97 0 1 1 48 77 0 3 3 0 97 0 0 0 49 0 78 36 38 38 35 4 9 26 
CALL[ ]	/* CallFunction */";
};
width = 440;
}
);
note = o;
unicode = 111;
},
{
glyphname = p;
layers = (
{
layerId = m01;
shapes = (
{
closed = 1;
nodes = (
(56,-160,o),
(47,-160,qs),
(-9,-160,ls),
(-18,-160,o),
(-16,-151,qs),
(75,360,l),
(75,368,o),
(84,368,qs),
(89,368,ls),
(134,368,o),
(136,316,q),
(187,377,o),
(265,377,qs),
(324,377,o),
(361,341,qs),
(405,300,o),
(405,228,qs),
(405,134,o),
(355,68,qs),
(297,-9,o),
(206,-9,qs),
(124,-9,o),
(92,49,q),
(56,-151,l)
);
},
{
closed = 1;
nodes = (
(290,99,qs),
(331,145,o),
(331,213,qs),
(331,308,o),
(241,308,qs),
(191,308,o),
(155,270,qs),
(113,226,o),
(113,159,qs),
(113,112,o),
(160,59,o),
(202,59,qs),
(254,59,o)
);
}
);
userData = {
assembly = "MPPEM[ ]	/* MeasurePixelPerEm */
PUSHB[ ]	/* 1 value pushed */
20 
LT[ ]	/* LessThan */
IF[ ]	/* If */
NPUSHB[ ]	/* 11 values pushed */
17 12 2 5 1 23 1 3 0 2 76 
ELSE[ ]	/* Else */
NPUSHB[ ]	/* 11 values pushed */
17 12 2 5 2 23 1 3 0 2 76 
EIF[ ]	/* EndIf */
MPPEM[ ]	/* MeasurePixelPerEm */
PUSHB[ ]	/* 1 value pushed */
20 
LT[ ]	/* LessThan */
IF[ ]	/* If */
NPUSHB[ ]	/* 28 values pushed */
0 5 5 1 97 2 1 1 1 48 77 6 1 4 4 0 98 0 0 0 49 77 0 3 3 44 3 78 
ELSE[ ]	/* Else */
MPPEM[ ]	/* MeasurePixelPerEm */
PUSHB[ ]	/* 1 value pushed */
35 
LT[ ]	/* LessThan */
IF[ ]	/* If */
NPUSHB[ ]	/* 32 values pushed */
0 2 2 42 77 0 5 5 1 97 0 1 1 48 77 6 1 4 4 0 98 0 0 0 49 77 0 3 3 44 3 78 
ELSE[ ]	/* Else */
NPUSHB[ ]	/* 32 values pushed */
0 3 0 3 134 0 2 2 42 77 0 5 5 1 97 0 1 1 48 77 6 1 4 4 0 98 0 0 0 49 0 78 
EIF[ ]	/* EndIf */
EIF[ ]	/* EndIf */
NPUSHB[ ]	/* 15 values pushed */
25 24 32 30 24 36 25 36 51 50 38 33 7 9 26 
CALL[ ]	/* CallFunction */";
};
width = 447;
}
);
note = p;
unicode = 112;
},
{
glyphname = q;
layers = (
{
layerId = m01;
shapes = (
{
closed = 1;
nodes = (
(170,-9,qs),
(109,-9,o),
(72,26,qs),
(27,68,o),
(27,151,qs),
(27,238,o),
(83,303,qs),
(146,377,o),
(239,377,qs),
(316,377,o),
(345,319,q),
(360,368,o),
(408,368,qs),
(413,368,ls),
(421,368,o),
(420,360,qs),
(329,-151,ls),
(328,-160,o),
(320,-160,qs),
(264,-160,ls),
(255,-160,o),
(257,-151,qs),
(293,52,l),
(243,-9,o)
);
},
{
closed = 1;
nodes = (
(278,98,qs),
(319,144,o),
(319,217,qs),
(319,259,o),
(273,308,o),
(232,308,qs),
(181,308,o),
(144,269,qs),
(103,224,o),
(103,155,qs),
(103,59,o),
(188,59,qs),
(241,59,o)
);
}
);
userData = {
assembly = "PUSHB[ ]	/* 6 values pushed */
12 1 5 1 1 76 
MPPEM[ ]	/* MeasurePixelPerEm */
PUSHB[ ]	/* 1 value pushed */
20 
LT[ ]	/* LessThan */
IF[ ]	/* If */
NPUSHB[ ]	/* 28 values pushed */
0 5 5 1 97 2 1 1 1 42 77 6 1 4 4 3 97 0 3 3 49 77 0 0 0 44 0 78 
ELSE[ ]	/* Else */
MPPEM[ ]	/* MeasurePixelPerEm */
PUSHB[ ]	/* 1 value pushed */
35 
LT[ ]	/* LessThan */
IF[ ]	/* If */
NPUSHB[ ]	/* 32 values pushed */
0 1 1 42 77 0 5 5 2 97 0 2 2 48 77 6 1 4 4 3 97 0 3 3 49 77 0 0 0 44 0 78 
ELSE[ ]	/* Else */
NPUSHB[ ]	/* 32 values pushed */
0 0 3 0 134 0 1 1 42 77 0 5 5 2 97 0 2 2 48 77 6 1 4 4 3 97 0 3 3 49 3 78 
EIF[ ]	/* EndIf */
EIF[ ]	/* EndIf */
NPUSHB[ ]	/* 15 values pushed */
25 24 31 29 24 36 25 36 38 34 51 50 7 9 26 
CALL[ ]	/* CallFunction */";
};
width = 448;
}
);
note = q;
unicode = 113;
},
{
glyphname = r;
kernLeft = r;
layers = (
{
layerId = m01;
shapes = (
{
closed = 1;
nodes = (
(253,368,qs),
(263,368,ls),
(271,368,o),
(270,360,qs),
(260,305,ls),
(258,296,o),
(252,296,qs),
(228,296,ls),
(180,296,o),
(129,245,o),
(118,184,qs),
(88,9,ls),
(86,0,o),
(78,0,qs),
(21,0,ls),
(13,0,o),
(15,9,qs),
(77,360,ls),
(78,368,o),
(86,368,qs),
(91,368,ls),
(142,368,o),
(140,315,q),
(179,368,o)
);
}
);
userData = {
assembly = "NPUSHB[ ]	/* 30 values pushed */
0 1 2 0 1 76 0 2 2 0 97 3 1 0 0 42 77 0 1 1 40 1 78 52 36 51 49 4 9 26 
CALL[ ]	/* CallFunction */";
};
width = 271;
}
);
note = r;
unicode = 114;
},
{
glyphname = s;
kernLeft = s;
layers = (
{
layerId = m01;
shapes = (
{
closed = 1;
nodes = (
(176,315,qs),
(145,315,o),
(108,289,o),
(108,268,qs),
(108,244,o),
(164,221,qs),
(227,195,o),
(268,157,o),
(268,125,qs),
(268,70,o),
(234,34,qs),
(193,-11,o),
(119,-11,qs),
(67,-11,o),
(-4,40,o),
(-4,78,qs),
(-6,106,o),
(10,106,qs),
(13,106,o),
(17,102,qs),
(18,101,ls),
(59,51,o),
(118,51,qs),
(153,51,o),
(195,82,o),
(194,107,qs),
(194,133,o),
(138,156,qs),
(76,183,o),
(35,222,o),
(35,257,qs),
(34,306,o),
(71,339,qs),
(113,377,o),
(181,377,qs),
(231,377,o),
(267,359,qs),
(299,342,o),
(283,304,qs),
(278,292,ls),
(275,285,o),
(270,285,qs),
(268,285,o),
(265,287,qs),
(263,288,o),
(262,288,q),
(217,315,o)
);
}
);
userData = {
assembly = "NPUSHB[ ]	/* 51 values pushed */
30 1 2 3 1 76 0 0 5 3 5 0 3 128 0 3 2 5 3 2 126 0 5 5 1 97 0 1 1 48 77 0 2 2 4 97 0 4 4 46 4 78 42 35 35 42 37 35 6 9 28 
CALL[ ]	/* CallFunction */";
};
width = 307;
}
);
note = s;
unicode = 115;
},
{
glyphname = t;
layers = (
{
layerId = m01;
shapes = (
{
closed = 1;
nodes = (
(33,302,o),
(34,310,qs),
(43,360,ls),
(45,368,o),
(51,368,qs),
(116,368,l),
(139,492,ls),
(140,501,o),
(149,501,qs),
(153,501,ls),
(213,501,o),
(201,431,qs),
(189,368,l),
(264,368,ls),
(271,368,o),
(270,360,qs),
(261,310,ls),
(259,302,o),
(252,302,qs),
(178,302,l),
(126,9,ls),
(125,0,o),
(116,0,qs),
(60,0,ls),
(52,0,o),
(54,9,qs),
(106,302,l),
(40,302,ls)
);
}
);
userData = {
assembly = "NPUSHB[ ]	/* 38 values pushed */
0 3 2 3 133 6 5 2 1 1 2 95 4 1 2 2 42 77 0 0 0 40 0 78 0 0 0 27 0 26 18 50 35 34 50 7 9 27 
CALL[ ]	/* CallFunction */";
};
width = 271;
}
);
note = t;
unicode = 116;
},
{
glyphname = u;
kernLeft = u;
kernRight = u;
layers = (
{
layerId = m01;
shapes = (
{
closed = 1;
nodes = (
(42,182,qs),
(73,360,ls),
(75,368,o),
(83,368,qs),
(87,368,ls),
(148,368,o),
(136,299,qs),
(113,168,l),
(112,167,o),
(112,166,qs),
(109,144,o),
(109,133,qs),
(109,57,o),
(182,57,qs),
(266,57,o),
(285,161,qs),
(320,360,ls),
(322,368,o),
(329,368,qs),
(334,368,ls),
(393,368,o),
(382,299,qs),
(358,161,ls),
(343,79,o),
(250,-10,o),
(180,-10,qs),
(112,-10,o),
(37,64,o),
(37,131,qs),
(37,155,o)
);
}
);
userData = {
assembly = "NPUSHB[ ]	/* 24 values pushed */
3 1 1 1 42 77 0 2 2 0 98 0 0 0 46 0 78 55 35 52 34 4 9 26 
CALL[ ]	/* CallFunction */";
};
width = 419;
}
);
note = u;
unicode = 117;
},
{
glyphname = v;
layers = (
{
layerId = m01;
shapes = (
{
closed = 1;
nodes = (
(291,368,o),
(302,368,qs),
(359,368,ls),
(367,368,o),
(363,360,qs),
(179,8,ls),
(175,0,o),
(169,0,qs),
(104,0,ls),
(96,0,o),
(94,8,q),
(41,360,ls),
(40,368,o),
(46,368,qs),
(62,368,ls),
(92,368,o),
(118,342,o),
(122,306,qs),
(151,82,l),
(285,357,ls)
);
}
);
userData = {
assembly = "NPUSHB[ ]	/* 18 values pushed */
2 1 0 0 42 77 0 1 1 40 1 78 52 36 35 3 9 25 
CALL[ ]	/* CallFunction */";
};
width = 353;
}
);
note = v;
unicode = 118;
},
{
glyphname = w;
layers = (
{
layerId = m01;
shapes = (
{
closed = 1;
nodes = (
(270,368,o),
(280,368,qs),
(290,368,ls),
(319,368,o),
(344,341,o),
(348,306,qs),
(369,96,l),
(493,357,l),
(497,368,o),
(510,368,qs),
(558,368,ls),
(567,368,o),
(563,360,qs),
(391,8,ls),
(387,0,o),
(379,0,qs),
(325,0,ls),
(317,0,o),
(315,8,q),
(286,269,l),
(156,8,l),
(153,0,o),
(145,0,qs),
(91,0,ls),
(81,0,o),
(80,8,qs),
(42,360,l),
(42,368,o),
(49,368,qs),
(59,368,ls),
(90,368,o),
(117,340,o),
(120,306,qs),
(138,96,l),
(266,359,ls)
);
}
);
userData = {
assembly = "NPUSHB[ ]	/* 30 values pushed */
27 14 7 3 1 0 1 76 4 3 2 0 0 42 77 2 1 1 1 40 1 78 53 51 52 51 51 5 9 27 
CALL[ ]	/* CallFunction */";
};
width = 559;
}
);
note = w;
unicode = 119;
},
{
glyphname = x;
layers = (
{
layerId = m01;
shapes = (
{
closed = 1;
nodes = (
(40,0,o),
(30,0,qs),
(-27,0,ls),
(-30,0,o),
(-31,6,o),
(-28,9,qs),
(125,198,l),
(49,360,l),
(44,368,o),
(54,368,qs),
(74,368,ls),
(101,368,o),
(126,348,o),
(143,313,qs),
(176,244,l),
(264,357,ls),
(272,368,o),
(286,368,qs),
(337,368,ls),
(346,368,o),
(341,360,q),
(205,187,l),
(288,9,ls),
(292,0,o),
(282,0,qs),
(230,0,ls),
(218,0,o),
(214,11,q),
(152,140,l),
(49,11,ls)
);
}
);
userData = {
assembly = "NPUSHB[ ]	/* 28 values pushed */
22 14 7 3 0 1 1 76 2 1 1 1 42 77 3 1 0 0 40 0 78 53 53 52 50 4 9 26 
CALL[ ]	/* CallFunction */";
};
width = 349;
}
);
note = x;
unicode = 120;
},
{
glyphname = y;
kernLeft = y;
kernRight = y;
layers = (
{
layerId = m01;
shapes = (
{
closed = 1;
nodes = (
(28,368,o),
(35,368,qs),
(48,368,ls),
(79,368,o),
(105,341,o),
(109,306,qs),
(139,84,l),
(276,357,ls),
(282,368,o),
(294,368,qs),
(347,368,ls),
(354,368,o),
(350,360,qs),
(156,-9,ls),
(105,-107,o),
(40,-171,o),
(-5,-171,qs),
(-37,-171,o),
(-78,-131,o),
(-77,-99,q),
(-79,-76,o),
(-64,-76,qs),
(-59,-76,o),
(-55,-81,qs),
(-35,-106,o),
(-10,-106,qs),
(16,-106,o),
(54,-67,o),
(85,-7,q),
(28,360,l)
);
}
);
userData = {
assembly = "NPUSHB[ ]	/* 44 values pushed */
29 22 2 1 3 9 1 0 1 2 76 0 1 3 0 3 1 0 128 4 1 3 3 42 77 0 0 0 2 98 0 2 2 44 2 78 53 52 35 34 34 5 9 27 
CALL[ ]	/* CallFunction */";
};
width = 341;
}
);
note = y;
unicode = 121;
},
{
glyphname = z;
kernLeft = z;
kernRight = z;
layers = (
{
layerId = m01;
shapes = (
{
closed = 1;
nodes = (
(268,66,o),
(266,57,qs),
(258,9,ls),
(256,0,o),
(249,0,qs),
(-1,0,ls),
(-9,0,o),
(-7,9,qs),
(-1,46,ls),
(2,59,o),
(17,76,qs),
(231,302,l),
(57,302,ls),
(50,302,o),
(51,310,qs),
(60,360,ls),
(61,368,o),
(69,368,qs),
(269,368,ls),
(298,368,o),
(317,344,o),
(311,313,qs),
(308,292,o),
(291,276,q),
(93,66,l),
(260,66,ls)
);
}
);
userData = {
assembly = "NPUSHB[ ]	/* 34 values pushed */
0 1 1 0 95 0 0 0 42 77 4 1 3 3 2 95 0 2 2 40 2 78 0 0 0 25 0 24 53 35 53 5 9 25 
CALL[ ]	/* CallFunction */";
};
width = 327;
}
);
note = z;
unicode = 122;
},
{
glyphname = braceleft;
layers = (
{
layerId = m01;
shapes = (
{
closed = 1;
nodes = (
(61,303,o),
(68,304,qs),
(113,311,o),
(122,361,qs),
(173,653,ls),
(181,696,o),
(224,696,qs),
(344,696,ls),
(356,696,o),
(353,685,qs),
(352,678,ls),
(345,635,o),
(302,635,qs),
(239,635,ls),
(234,635,o),
(233,629,qs),
(185,360,ls),
(174,299,o),
(136,276,q),
(166,252,o),
(156,192,qs),
(108,-78,l),
(108,-83,o),
(112,-83,qs),
(174,-83,ls),
(219,-83,o),
(211,-126,qs),
(209,-133,ls),
(207,-144,o),
(196,-144,qs),
(76,-144,ls),
(32,-144,o),
(40,-101,qs),
(92,191,ls),
(101,240,o),
(58,248,q),
(52,250,o),
(52,257,q),
(59,295,ls)
);
}
);
userData = {
assembly = "NPUSHB[ ]	/* 38 values pushed */
19 0 2 1 2 1 76 0 3 0 2 1 3 2 103 0 1 0 0 1 87 0 1 1 0 95 0 0 1 0 79 51 57 35 54 4 9 26 
CALL[ ]	/* CallFunction */";
};
width = 279;
}
);
note = braceleft;
unicode = 123;
},
{
glyphname = bar;
layers = (
{
layerId = m01;
shapes = (
{
closed = 1;
nodes = (
(62,-140,qs),
(62,558,ls),
(62,567,o),
(70,567,qs),
(129,567,o),
(129,498,qs),
(129,-140,ls),
(129,-149,o),
(120,-149,qs),
(70,-149,ls),
(62,-149,o)
);
}
);
userData = {
assembly = "MPPEM[ ]	/* MeasurePixelPerEm */
PUSHB[ ]	/* 1 value pushed */
35 
LT[ ]	/* LessThan */
IF[ ]	/* If */
NPUSHB[ ]	/* 12 values pushed */
2 1 0 0 1 97 0 1 1 39 0 78 
ELSE[ ]	/* Else */
NPUSHB[ ]	/* 17 values pushed */
0 1 0 0 1 89 0 1 1 0 97 2 1 0 1 0 81 
EIF[ ]	/* EndIf */
NPUSHB[ ]	/* 11 values pushed */
2 0 7 5 0 10 2 10 3 9 22 
CALL[ ]	/* CallFunction */";
};
width = 190;
}
);
note = bar;
unicode = 124;
},
{
glyphname = braceright;
layers = (
{
layerId = m01;
shapes = (
{
closed = 1;
nodes = (
(-36,-83,o),
(8,-83,qs),
(70,-83,ls),
(75,-83,o),
(76,-78,qs),
(124,192,ls),
(135,254,o),
(173,276,q),
(143,297,o),
(154,360,qs),
(202,629,l),
(202,635,o),
(197,635,qs),
(135,635,ls),
(90,635,o),
(97,678,q),
(99,685,ls),
(101,696,o),
(111,696,qs),
(231,696,ls),
(277,696,o),
(269,653,qs),
(217,361,ls),
(209,310,o),
(251,304,qs),
(257,303,o),
(255,295,qs),
(249,257,l),
(249,250,o),
(241,248,qs),
(196,241,o),
(188,191,qs),
(136,-101,ls),
(129,-144,o),
(84,-144,qs),
(-37,-144,ls),
(-48,-144,o),
(-46,-133,qs),
(-44,-126,ls)
);
}
);
userData = {
assembly = "NPUSHB[ ]	/* 38 values pushed */
30 10 2 3 2 1 76 0 1 0 2 3 1 2 103 0 3 0 0 3 87 0 3 3 0 95 0 0 3 0 79 42 35 61 49 4 9 26 
CALL[ ]	/* CallFunction */";
};
width = 280;
}
);
note = braceright;
unicode = 125;
},
{
glyphname = asciitilde;
layers = (
{
layerId = m01;
shapes = (
{
closed = 1;
nodes = (
(355,312,qs),
(355,271,ls),
(355,251,o),
(346,243,qs),
(315,216,o),
(271,216,qs),
(242,216,o),
(201,230,qs),
(151,248,o),
(129,248,qs),
(85,248,o),
(52,217,qs),
(49,214,o),
(43,216,o),
(43,219,qs),
(43,261,ls),
(43,280,o),
(52,288,qs),
(87,316,o),
(129,316,qs),
(156,316,o),
(197,301,qs),
(247,283,o),
(271,283,qs),
(313,283,o),
(347,315,q),
(355,321,o)
);
}
);
userData = {
assembly = "PUSHB[ ]	/* 2 values pushed */
6 100 
WCVTP[ ]	/* WriteCVTInPixels */
NPUSHB[ ]	/* 37 values pushed */
11 1 3 2 1 76 0 0 2 3 0 89 0 1 0 2 3 1 2 105 0 0 0 3 97 0 3 0 3 81 34 40 34 33 4 9 26 
CALL[ ]	/* CallFunction */
PUSHB[ ]	/* 2 values pushed */
6 0 
WCVTP[ ]	/* WriteCVTInPixels */";
};
width = 398;
}
);
note = asciitilde;
unicode = 126;
},
{
glyphname = exclamdown;
layers = (
{
layerId = m01;
shapes = (
{
closed = 1;
nodes = (
(-35,-180,qs),
(41,213,ls),
(43,221,o),
(49,221,qs),
(104,221,o),
(93,151,qs),
(40,-180,ls),
(38,-189,o),
(30,-189,qs),
(-29,-189,ls),
(-36,-189,o)
);
},
{
closed = 1;
nodes = (
(43,320,qs),
(43,343,o),
(76,377,o),
(99,377,qs),
(141,377,o),
(141,335,qs),
(141,311,o),
(109,276,o),
(86,276,qs),
(43,276,o)
);
}
);
userData = {
assembly = "MPPEM[ ]	/* MeasurePixelPerEm */
PUSHB[ ]	/* 1 value pushed */
22 
LT[ ]	/* LessThan */
IF[ ]	/* If */
NPUSHB[ ]	/* 26 values pushed */
0 1 2 0 2 1 0 128 5 1 2 2 3 97 0 3 3 48 77 4 1 0 0 44 0 78 
ELSE[ ]	/* Else */
NPUSHB[ ]	/* 25 values pushed */
0 1 2 0 2 1 0 128 4 1 0 0 132 5 1 2 2 3 97 0 3 3 48 2 78 
EIF[ ]	/* EndIf */
NPUSHB[ ]	/* 19 values pushed */
12 11 2 0 17 15 11 20 12 20 6 5 0 10 2 10 6 9 22 
CALL[ ]	/* CallFunction */";
};
width = 157;
}
);
note = exclamdown;
unicode = 161;
},
{
glyphname = cent;
layers = (
{
layerId = m01;
shapes = (
{
closed = 1;
nodes = (
(186,-68,o),
(178,-68,qs),
(144,-68,ls),
(135,-68,o),
(136,-59,qs),
(145,-8,l),
(90,-1,o),
(27,82,o),
(27,147,qs),
(27,225,o),
(72,287,qs),
(125,361,o),
(213,374,q),
(223,429,ls),
(225,438,o),
(234,438,qs),
(268,438,ls),
(275,438,o),
(274,429,qs),
(265,376,l),
(296,373,o),
(321,362,qs),
(356,345,o),
(338,307,qs),
(330,287,ls),
(327,279,o),
(323,279,qs),
(319,279,o),
(315,282,qs),
(279,305,o),
(252,307,q),
(208,56,l),
(252,60,o),
(288,91,qs),
(299,101,o),
(304,101,qs),
(313,101,o),
(313,91,qs),
(313,57,o),
(243,-1,o),
(196,-8,q),
(187,-59,ls)
);
},
{
closed = 1;
nodes = (
(157,291,o),
(103,207,o),
(103,151,qs),
(103,74,o),
(158,59,q),
(200,303,l)
);
}
);
userData = {
assembly = "NPUSHB[ ]	/* 39 values pushed */
47 21 10 3 1 2 35 9 2 3 0 2 76 0 2 1 2 133 0 1 0 1 133 0 0 3 0 133 0 3 3 118 59 56 40 20 4 9 26 
CALL[ ]	/* CallFunction */";
};
width = 354;
}
);
note = cent;
unicode = 162;
},
{
glyphname = sterling;
layers = (
{
layerId = m01;
shapes = (
{
closed = 1;
nodes = (
(392,69,o),
(385,26,q),
(381,11,l),
(381,0,o),
(370,0,qs),
(14,0,ls),
(7,0,o),
(9,9,qs),
(18,61,ls),
(19,69,o),
(26,69,qs),
(107,69,l),
(160,158,o),
(160,211,qs),
(160,230,o),
(152,249,q),
(57,249,ls),
(51,249,o),
(52,258,qs),
(61,310,ls),
(63,319,o),
(70,319,qs),
(134,319,l),
(122,352,o),
(122,387,qs),
(122,460,o),
(171,509,qs),
(227,567,o),
(319,567,qs),
(383,567,o),
(433,538,qs),
(457,523,o),
(468,497,o),
(458,478,qs),
(449,461,ls),
(445,452,o),
(440,452,qs),
(436,452,o),
(427,458,qs),
(376,498,o),
(314,498,qs),
(260,498,o),
(197,439,o),
(197,389,qs),
(197,361,o),
(211,319,q),
(345,319,ls),
(389,319,o),
(381,276,qs),
(377,261,l),
(376,249,o),
(365,249,qs),
(226,249,l),
(230,227,o),
(230,214,qs),
(230,162,o),
(177,69,q),
(348,69,ls)
);
}
);
userData = {
assembly = "PUSHB[ ]	/* 6 values pushed */
54 1 8 7 1 76 
MPPEM[ ]	/* MeasurePixelPerEm */
PUSHB[ ]	/* 1 value pushed */
35 
LT[ ]	/* LessThan */
IF[ ]	/* If */
NPUSHB[ ]	/* 41 values pushed */
0 3 2 1 2 3 1 128 5 1 1 6 1 0 7 1 0 103 0 2 2 4 97 0 4 4 39 77 10 9 2 7 7 8 95 0 8 8 40 8 78 
ELSE[ ]	/* Else */
NPUSHB[ ]	/* 39 values pushed */
0 3 2 1 2 3 1 128 0 4 0 2 3 4 2 105 5 1 1 6 1 0 7 1 0 103 10 9 2 7 7 8 95 0 8 8 40 8 78 
EIF[ ]	/* EndIf */
NPUSHB[ ]	/* 18 values pushed */
0 0 0 57 0 56 51 36 35 37 38 34 36 35 36 11 9 31 
CALL[ ]	/* CallFunction */";
};
width = 456;
}
);
note = sterling;
unicode = 163;
},
{
glyphname = yen;
layers = (
{
layerId = m01;
shapes = (
{
closed = 1;
nodes = (
(28,128,o),
(30,137,qs),
(38,178,ls),
(40,187,o),
(46,187,qs),
(188,187,l),
(193,213,l),
(180,251,l),
(57,251,ls),
(50,251,o),
(52,259,qs),
(59,301,ls),
(60,309,o),
(68,309,qs),
(159,309,l),
(76,547,ls),
(73,556,o),
(83,556,qs),
(103,556,ls),
(149,556,o),
(166,506,qs),
(242,286,l),
(420,544,l),
(427,556,o),
(438,556,qs),
(494,556,ls),
(506,556,o),
(498,544,qs),
(333,309,l),
(421,309,ls),
(427,309,o),
(427,301,q),
(420,259,ls),
(418,251,o),
(410,251,qs),
(292,251,l),
(266,213,l),
(261,187,l),
(399,187,ls),
(407,187,o),
(406,178,qs),
(398,137,ls),
(396,128,o),
(389,128,qs),
(251,128,l),
(230,9,ls),
(229,0,o),
(220,0,qs),
(163,0,ls),
(156,0,o),
(157,9,qs),
(178,128,l),
(36,128,ls)
);
}
);
userData = {
assembly = "NPUSHB[ ]	/* 64 values pushed */
30 20 2 3 4 45 1 2 3 2 76 7 1 4 8 1 3 2 4 3 104 9 1 2 11 10 2 1 0 2 1 103 6 1 5 5 39 77 0 0 0 40 0 78 0 0 0 52 0 51 47 46 35 34 52 50 35 34 35 34 50 12 9 31 
CALL[ ]	/* CallFunction */";
};
width = 456;
}
);
note = yen;
unicode = 165;
},
{
glyphname = brokenbar;
layers = (
{
layerId = m01;
shapes = (
{
closed = 1;
nodes = (
(62,272,qs),
(62,558,ls),
(62,567,o),
(70,567,qs),
(129,567,o),
(129,498,qs),
(129,272,ls),
(129,263,o),
(120,263,qs),
(70,263,ls),
(62,263,o)
);
},
{
closed = 1;
nodes = (
(62,-140,qs),
(62,145,ls),
(62,154,o),
(70,154,qs),
(120,154,ls),
(129,154,o),
(129,145,qs),
(129,-140,ls),
(129,-149,o),
(120,-149,qs),
(70,-149,ls),
(62,-149,o)
);
}
);
userData = {
assembly = "MPPEM[ ]	/* MeasurePixelPerEm */
PUSHB[ ]	/* 1 value pushed */
35 
LT[ ]	/* LessThan */
IF[ ]	/* If */
NPUSHB[ ]	/* 20 values pushed */
0 3 5 1 2 3 2 101 4 1 0 0 1 97 0 1 1 39 0 78 
ELSE[ ]	/* Else */
NPUSHB[ ]	/* 26 values pushed */
0 1 4 1 0 3 1 0 105 0 3 2 2 3 89 0 3 3 2 97 5 1 2 3 2 81 
EIF[ ]	/* EndIf */
NPUSHB[ ]	/* 19 values pushed */
13 11 2 0 19 16 11 22 13 22 7 5 0 10 2 10 6 9 22 
CALL[ ]	/* CallFunction */";
};
width = 190;
}
);
note = brokenbar;
unicode = 166;
},
{
glyphname = section;
layers = (
{
layerId = m01;
shapes = (
{
closed = 1;
nodes = (
(302,252,qs),
(302,284,o),
(234,323,qs),
(215,334,o),
(209,338,q),
(136,294,o),
(136,247,qs),
(136,222,o),
(169,190,o),
(231,154,q),
(302,202,o)
);
},
{
closed = 1;
nodes = (
(153,-38,qs),
(192,-38,o),
(243,0,o),
(243,29,qs),
(243,62,o),
(180,102,qs),
(123,139,o),
(111,149,qs),
(65,187,o),
(65,231,qs),
(65,311,o),
(169,368,q),
(132,405,o),
(132,446,qs),
(132,500,o),
(173,533,qs),
(215,567,o),
(280,567,qs),
(333,567,o),
(369,548,qs),
(401,530,o),
(384,494,qs),
(378,482,ls),
(374,475,o),
(370,475,qs),
(368,475,o),
(364,477,q),
(363,478,o),
(361,479,q),
(324,507,o),
(280,507,qs),
(247,507,o),
(206,477,o),
(206,452,qs),
(206,422,o),
(266,387,qs),
(335,345,o),
(375,302,o),
(375,268,qs),
(375,186,o),
(274,123,q),
(317,87,o),
(317,46,qs),
(317,-14,o),
(274,-54,qs),
(227,-98,o),
(154,-98,qs),
(82,-98,o),
(43,-62,qs),
(12,-33,o),
(31,-1,qs),
(38,11,ls),
(43,21,o),
(51,15,q),
(94,-38,o)
);
}
);
userData = {
assembly = "PUSHB[ ]	/* 8 values pushed */
53 24 5 3 3 1 1 76 
MPPEM[ ]	/* MeasurePixelPerEm */
PUSHB[ ]	/* 1 value pushed */
35 
LT[ ]	/* LessThan */
IF[ ]	/* If */
NPUSHB[ ]	/* 18 values pushed */
0 3 0 0 3 0 101 0 1 1 2 97 0 2 2 39 1 78 
ELSE[ ]	/* Else */
NPUSHB[ ]	/* 24 values pushed */
0 2 0 1 3 2 1 105 0 3 0 0 3 89 0 3 3 0 97 0 0 3 0 81 
EIF[ ]	/* EndIf */
NPUSHB[ ]	/* 11 values pushed */
65 63 48 46 35 33 19 17 4 9 22 
CALL[ ]	/* CallFunction */";
};
width = 411;
}
);
note = section;
unicode = 167;
},
{
glyphname = dieresis;
layers = (
{
layerId = m01;
shapes = (
{
closed = 1;
nodes = (
(32,513,o),
(53,513,qs),
(91,513,o),
(91,476,qs),
(91,454,o),
(59,422,o),
(38,422,qs),
(2,422,o),
(1,460,qs),
(1,481,o)
);
},
{
closed = 1;
nodes = (
(164,513,o),
(185,513,qs),
(223,513,o),
(223,476,qs),
(222,454,o),
(192,422,o),
(170,422,qs),
(134,422,o),
(133,460,qs),
(133,481,o)
);
}
);
userData = {
assembly = "PUSHB[ ]	/* 2 values pushed */
6 100 
WCVTP[ ]	/* WriteCVTInPixels */
NPUSHB[ ]	/* 26 values pushed */
3 1 1 0 0 1 89 3 1 1 1 0 97 2 1 0 1 0 81 35 35 35 33 4 9 26 
CALL[ ]	/* CallFunction */
PUSHB[ ]	/* 2 values pushed */
6 0 
WCVTP[ ]	/* WriteCVTInPixels */";
};
width = 223;
}
);
note = dieresis;
unicode = 168;
},
{
glyphname = copyright;
layers = (
{
layerId = m01;
shapes = (
{
closed = 1;
nodes = (
(99,170,qs),
(30,232,o),
(30,340,qs),
(30,434,o),
(83,494,qs),
(145,563,o),
(252,563,qs),
(345,563,o),
(406,509,qs),
(475,447,o),
(475,340,qs),
(475,246,o),
(421,186,qs),
(359,116,o),
(252,116,qs),
(159,116,o)
);
},
{
closed = 1;
nodes = (
(376,202,qs),
(431,252,o),
(431,340,qs),
(431,416,o),
(388,464,qs),
(339,521,o),
(252,521,qs),
(177,521,o),
(129,477,qs),
(73,427,o),
(73,340,qs),
(73,264,o),
(116,215,qs),
(165,159,o),
(252,159,qs),
(328,159,o)
);
},
{
closed = 1;
nodes = (
(262,423,qs),
(229,423,o),
(191,378,o),
(191,339,qs),
(191,257,o),
(262,257,qs),
(301,257,o),
(327,289,qs),
(330,293,o),
(334,293,qs),
(340,293,o),
(340,285,qs),
(339,259,o),
(288,219,o),
(256,219,qs),
(206,219,o),
(146,285,o),
(146,340,qs),
(146,394,o),
(211,463,o),
(261,463,qs),
(289,463,o),
(316,451,qs),
(334,443,o),
(333,431,qs),
(331,412,ls),
(329,400,o),
(320,406,qs),
(295,423,o)
);
}
);
userData = {
assembly = "PUSHB[ ]	/* 2 values pushed */
6 100 
WCVTP[ ]	/* WriteCVTInPixels */
NPUSHB[ ]	/* 80 values pushed */
0 6 8 7 8 6 7 128 0 1 0 3 4 1 3 105 0 4 0 8 6 4 8 105 0 7 0 5 2 7 5 105 10 1 2 0 0 2 89 10 1 2 2 0 98 9 1 0 2 0 82 17 16 1 0 60 58 55 53 51 49 46 44 40 38 25 23 16 31 17 31 9 7 0 15 1 15 11 9 22 
CALL[ ]	/* CallFunction */
PUSHB[ ]	/* 2 values pushed */
6 0 
WCVTP[ ]	/* WriteCVTInPixels */";
};
width = 505;
}
);
note = copyright;
unicode = 169;
},
{
glyphname = ordfeminine;
layers = (
{
layerId = m01;
shapes = (
{
closed = 1;
nodes = (
(226,253,o),
(162,253,qs),
(112,253,o),
(49,323,o),
(49,379,qs),
(49,446,o),
(94,498,qs),
(146,558,o),
(219,558,qs),
(282,558,o),
(308,513,q),
(321,551,o),
(360,551,qs),
(365,551,ls),
(371,551,o),
(369,544,q),
(321,266,l),
(319,261,o),
(315,261,qs),
(264,261,ls),
(260,261,o),
(260,266,q),
(266,300,l)
);
},
{
closed = 1;
nodes = (
(286,379,o),
(286,431,qs),
(286,500,o),
(217,500,qs),
(174,500,o),
(114,431,o),
(114,382,qs),
(114,310,o),
(178,310,qs),
(225,310,o)
);
}
);
userData = {
assembly = "NPUSHB[ ]	/* 10 values pushed */
11 1 5 1 22 1 0 4 2 76 
MPPEM[ ]	/* MeasurePixelPerEm */
PUSHB[ ]	/* 1 value pushed */
33 
LT[ ]	/* LessThan */
IF[ ]	/* If */
NPUSHB[ ]	/* 32 values pushed */
0 0 4 3 4 0 3 128 6 1 4 0 3 4 3 101 0 1 1 55 77 0 5 5 2 97 0 2 2 55 5 78 
ELSE[ ]	/* Else */
NPUSHB[ ]	/* 35 values pushed */
0 1 2 5 2 1 5 128 0 0 4 3 4 0 3 128 6 1 4 0 3 4 3 101 0 5 5 2 97 0 2 2 55 5 78 
EIF[ ]	/* EndIf */
NPUSHB[ ]	/* 15 values pushed */
24 23 29 27 23 32 24 32 37 34 52 18 7 10 26 
CALL[ ]	/* CallFunction */";
};
width = 334;
}
);
note = ordfeminine;
unicode = 170;
},
{
glyphname = guillemotleft;
layers = (
{
layerId = m01;
shapes = (
{
closed = 1;
nodes = (
(178,39,o),
(168,39,qs),
(115,39,ls),
(101,39,o),
(97,49,q),
(25,173,ls),
(19,182,o),
(19,188,qs),
(19,193,o),
(28,202,qs),
(145,328,ls),
(155,338,o),
(167,338,qs),
(221,338,ls),
(232,338,o),
(223,329,qs),
(93,189,l),
(173,48,ls)
);
},
{
closed = 1;
nodes = (
(328,39,o),
(317,39,qs),
(263,39,ls),
(252,39,o),
(246,49,qs),
(174,173,l),
(173,175,ls),
(168,183,o),
(168,188,qs),
(168,192,o),
(177,202,qs),
(295,328,ls),
(305,338,o),
(316,338,qs),
(370,338,ls),
(381,338,o),
(372,329,qs),
(242,189,l),
(322,48,ls)
);
}
);
userData = {
assembly = "NPUSHB[ ]	/* 26 values pushed */
2 1 0 1 1 0 89 2 1 0 0 1 97 3 1 1 0 1 81 57 52 56 50 4 9 26 
CALL[ ]	/* CallFunction */";
};
width = 379;
}
);
note = guillemotleft;
unicode = 171;
},
{
glyphname = uni00AD;
layers = (
{
layerId = m01;
shapes = (
{
closed = 1;
nodes = (
(30,177,qs),
(40,229,ls),
(42,238,o),
(49,238,qs),
(253,238,ls),
(262,238,o),
(261,229,qs),
(251,177,ls),
(249,168,o),
(242,168,qs),
(37,168,ls),
(28,168,o)
);
}
);
userData = {
assembly = "NPUSHB[ ]	/* 28 values pushed */
0 1 0 0 1 87 0 1 1 0 95 2 1 0 1 0 79 2 0 8 5 0 11 2 11 3 9 22 
CALL[ ]	/* CallFunction */";
};
width = 297;
}
);
note = uni00AD;
unicode = 173;
},
{
glyphname = registered;
layers = (
{
layerId = m01;
shapes = (
{
closed = 1;
nodes = (
(99,170,qs),
(30,232,o),
(30,340,qs),
(30,434,o),
(83,494,qs),
(145,563,o),
(252,563,qs),
(345,563,o),
(406,509,qs),
(475,447,o),
(475,340,qs),
(475,246,o),
(421,186,qs),
(359,116,o),
(252,116,qs),
(159,116,o)
);
},
{
closed = 1;
nodes = (
(376,202,qs),
(431,252,o),
(431,340,qs),
(431,416,o),
(388,464,qs),
(339,521,o),
(252,521,qs),
(177,521,o),
(129,477,qs),
(73,427,o),
(73,340,qs),
(73,264,o),
(116,215,qs),
(165,159,o),
(252,159,qs),
(328,159,o)
);
},
{
closed = 1;
nodes = (
(307,343,o),
(307,384,qs),
(307,421,o),
(256,421,qs),
(209,421,l),
(209,343,l),
(253,343,ls)
);
},
{
closed = 1;
nodes = (
(209,224,o),
(206,224,qs),
(171,224,ls),
(168,224,o),
(168,228,qs),
(168,453,ls),
(168,458,o),
(171,458,qs),
(258,458,ls),
(349,458,o),
(349,384,qs),
(349,330,o),
(298,310,q),
(352,228,ls),
(353,227,o),
(351,224,o),
(349,224,qs),
(315,224,ls),
(308,224,o),
(304,229,q),
(257,306,l),
(209,306,l),
(209,228,ls)
);
}
);
userData = {
assembly = "PUSHB[ ]	/* 2 values pushed */
6 100 
WCVTP[ ]	/* WriteCVTInPixels */
NPUSHB[ ]	/* 103 values pushed */
55 1 4 8 48 1 6 5 61 56 2 7 6 3 76 9 1 7 6 2 6 7 2 128 0 1 0 3 8 1 3 105 0 8 0 4 5 8 4 105 12 1 5 0 6 7 5 6 103 11 1 2 0 0 2 89 11 1 2 2 0 97 10 1 0 2 0 81 32 32 17 16 1 0 59 58 53 51 44 42 40 39 32 38 32 37 35 33 25 23 16 31 17 31 9 7 0 15 1 15 13 9 22 
CALL[ ]	/* CallFunction */
PUSHB[ ]	/* 2 values pushed */
6 0 
WCVTP[ ]	/* WriteCVTInPixels */";
};
width = 505;
}
);
note = registered;
unicode = 174;
},
{
glyphname = macron;
layers = (
{
layerId = m01;
shapes = (
{
closed = 1;
nodes = (
(3,439,qs),
(10,478,ls),
(11,486,o),
(19,486,qs),
(226,486,ls),
(235,486,o),
(234,478,qs),
(226,439,l),
(226,431,o),
(216,431,qs),
(9,431,ls),
(1,431,o)
);
}
);
userData = {
assembly = "PUSHB[ ]	/* 2 values pushed */
6 100 
WCVTP[ ]	/* WriteCVTInPixels */
NPUSHB[ ]	/* 34 values pushed */
3 1 0 1 1 76 0 1 0 0 1 87 0 1 1 0 95 2 1 0 1 0 79 2 0 8 5 0 11 2 11 3 9 22 
CALL[ ]	/* CallFunction */
PUSHB[ ]	/* 2 values pushed */
6 0 
WCVTP[ ]	/* WriteCVTInPixels */";
};
width = 233;
}
);
note = macron;
unicode = 175;
},
{
glyphname = degree;
layers = (
{
layerId = m01;
shapes = (
{
closed = 1;
nodes = (
(23,429,o),
(23,475,qs),
(23,522,o),
(82,581,o),
(129,581,qs),
(175,581,o),
(234,522,o),
(234,475,qs),
(234,429,o),
(174,369,o),
(129,369,qs),
(82,369,o)
);
},
{
closed = 1;
nodes = (
(183,449,o),
(183,475,qs),
(183,501,o),
(152,534,o),
(129,534,qs),
(105,534,o),
(74,501,o),
(74,475,qs),
(74,449,o),
(105,414,o),
(129,414,qs),
(152,414,o)
);
}
);
userData = {
assembly = "PUSHB[ ]	/* 2 values pushed */
6 100 
WCVTP[ ]	/* WriteCVTInPixels */
NPUSHB[ ]	/* 46 values pushed */
0 1 0 3 2 1 3 105 5 1 2 0 0 2 89 5 1 2 2 0 97 4 1 0 2 0 81 13 12 1 0 19 17 12 23 13 23 7 5 0 11 1 11 6 9 22 
CALL[ ]	/* CallFunction */
PUSHB[ ]	/* 2 values pushed */
6 0 
WCVTP[ ]	/* WriteCVTInPixels */";
};
width = 257;
}
);
note = degree;
unicode = 176;
},
{
glyphname = plusminus;
layers = (
{
layerId = m01;
shapes = (
{
closed = 1;
nodes = (
(37,267,o),
(37,276,qs),
(37,324,ls),
(37,333,o),
(45,333,qs),
(168,333,l),
(168,470,ls),
(168,479,o),
(176,479,qs),
(235,479,o),
(235,418,qs),
(235,333,l),
(358,333,ls),
(366,333,o),
(366,324,qs),
(366,276,ls),
(366,267,o),
(358,267,qs),
(235,267,l),
(235,130,ls),
(235,122,o),
(227,122,qs),
(176,122,ls),
(168,122,o),
(168,130,qs),
(168,267,l),
(45,267,ls)
);
},
{
closed = 1;
nodes = (
(37,9,qs),
(37,57,ls),
(37,66,o),
(45,66,qs),
(315,66,ls),
(366,66,o),
(366,18,qs),
(366,9,ls),
(366,0,o),
(358,0,qs),
(45,0,ls),
(37,0,o)
);
}
);
userData = {
assembly = "NPUSHB[ ]	/* 53 values pushed */
4 1 2 8 5 2 1 0 2 1 103 0 3 0 0 7 3 0 105 0 7 7 6 95 9 1 6 6 40 6 78 29 27 0 0 35 32 27 38 29 38 0 26 0 25 34 34 35 34 50 10 9 27 
CALL[ ]	/* CallFunction */";
};
width = 403;
}
);
note = plusminus;
unicode = 177;
},
{
glyphname = twosuperior;
layers = (
{
layerId = m01;
shapes = (
{
closed = 1;
nodes = (
(272,286,o),
(266,254,qs),
(262,238,l),
(262,233,o),
(254,233,qs),
(39,233,ls),
(35,233,o),
(35,238,q),
(44,287,o),
(97,351,o),
(157,385,qs),
(208,414,o),
(239,447,o),
(239,473,qs),
(239,510,o),
(189,510,qs),
(149,510,o),
(102,484,qs),
(94,479,o),
(92,487,qs),
(87,503,ls),
(82,527,o),
(111,542,qs),
(154,563,o),
(202,563,qs),
(247,563,o),
(303,518,o),
(303,481,qs),
(303,440,o),
(274,408,qs),
(252,384,o),
(191,349,qs),
(125,311,o),
(116,286,q),
(234,286,ls)
);
}
);
userData = {
assembly = "NPUSHB[ ]	/* 34 values pushed */
0 1 1 0 97 0 0 0 55 77 4 1 3 3 2 95 0 2 2 56 2 78 0 0 0 34 0 33 41 39 40 5 10 25 
CALL[ ]	/* CallFunction */";
};
width = 288;
}
);
note = twosuperior;
unicode = 178;
},
{
glyphname = threesuperior;
layers = (
{
layerId = m01;
shapes = (
{
closed = 1;
nodes = (
(154,278,qs),
(231,278,o),
(231,336,qs),
(231,374,o),
(168,374,qs),
(141,374,ls),
(110,374,o),
(116,398,q),
(118,419,l),
(120,426,o),
(126,426,qs),
(178,426,ls),
(247,426,o),
(247,475,qs),
(247,512,o),
(193,512,qs),
(152,512,o),
(107,486,qs),
(98,481,o),
(96,491,qs),
(92,507,ls),
(85,530,o),
(116,544,qs),
(160,563,o),
(202,563,qs),
(303,563,o),
(303,491,qs),
(303,427,o),
(238,403,q),
(287,387,o),
(287,341,qs),
(287,290,o),
(216,227,o),
(157,227,qs),
(113,227,o),
(49,273,o),
(49,305,qs),
(49,325,o),
(62,325,qs),
(65,325,o),
(70,319,q),
(94,278,o)
);
}
);
userData = {
assembly = "NPUSHB[ ]	/* 53 values pushed */
12 1 5 4 1 76 0 0 5 6 5 0 6 128 0 4 0 5 0 4 5 105 0 3 3 2 97 0 2 2 55 77 0 6 6 1 97 0 1 1 56 1 78 34 52 34 39 39 35 33 7 10 29 
CALL[ ]	/* CallFunction */";
};
width = 299;
}
);
note = threesuperior;
unicode = 179;
},
{
glyphname = acute;
layers = (
{
layerId = m01;
shapes = (
{
closed = 1;
nodes = (
(99,516,o),
(111,516,qs),
(175,516,ls),
(179,516,o),
(181,509,o),
(177,507,q),
(87,441,ls),
(72,431,o),
(57,431,qs),
(6,431,ls),
(1,431,o),
(0,437,o),
(3,439,qs),
(86,506,ls)
);
}
);
userData = {
assembly = "PUSHB[ ]	/* 2 values pushed */
6 100 
WCVTP[ ]	/* WriteCVTInPixels */
NPUSHB[ ]	/* 14 values pushed */
0 1 0 1 133 0 0 0 118 52 50 2 9 24 
CALL[ ]	/* CallFunction */
PUSHB[ ]	/* 2 values pushed */
6 0 
WCVTP[ ]	/* WriteCVTInPixels */";
};
width = 181;
}
);
note = acute;
unicode = 180;
},
{
glyphname = paragraph;
layers = (
{
layerId = m01;
shapes = (
{
closed = 1;
nodes = (
(218,0,o),
(210,0,qs),
(177,0,ls),
(171,0,o),
(172,8,qs),
(210,221,l),
(141,224,o),
(67,296,o),
(67,360,qs),
(67,444,o),
(119,496,qs),
(178,556,o),
(285,556,qs),
(357,556,ls),
(393,556,o),
(419,522,o),
(413,483,qs),
(328,8,ls),
(327,0,o),
(319,0,qs),
(286,0,ls),
(280,0,o),
(280,8,q),
(368,504,l),
(306,504,l),
(219,8,ls)
);
}
);
userData = {
assembly = "NPUSHB[ ]	/* 39 values pushed */
2 1 1 3 1 76 0 3 0 1 0 3 1 128 0 0 0 2 95 0 2 2 39 77 4 1 1 1 40 1 78 50 21 52 50 16 5 9 27 
CALL[ ]	/* CallFunction */";
};
width = 428;
}
);
note = paragraph;
unicode = 182;
},
{
glyphname = periodcentered;
layers = (
{
layerId = m01;
shapes = (
{
closed = 1;
nodes = (
(35,273,qs),
(35,296,o),
(68,330,o),
(91,330,qs),
(132,330,o),
(132,288,qs),
(132,264,o),
(100,229,o),
(78,229,qs),
(35,229,o)
);
}
);
userData = {
assembly = "NPUSHB[ ]	/* 28 values pushed */
0 1 0 0 1 89 0 1 1 0 97 2 1 0 1 0 81 1 0 6 4 0 9 1 9 3 9 22 
CALL[ ]	/* CallFunction */";
};
width = 146;
}
);
note = periodcentered;
unicode = 183;
},
{
glyphname = cedilla;
layers = (
{
layerId = m01;
shapes = (
{
closed = 1;
nodes = (
(7,-89,qs),
(73,-6,ls),
(83,5,o),
(101,5,qs),
(135,5,ls),
(143,5,o),
(137,-3,qs),
(83,-87,ls),
(76,-98,o),
(58,-98,qs),
(10,-98,ls),
(0,-98,o)
);
}
);
userData = {
assembly = "PUSHB[ ]	/* 2 values pushed */
6 100 
WCVTP[ ]	/* WriteCVTInPixels */
NPUSHB[ ]	/* 21 values pushed */
0 1 0 1 133 2 1 0 0 118 2 0 8 5 0 11 2 11 3 9 22 
CALL[ ]	/* CallFunction */
PUSHB[ ]	/* 2 values pushed */
6 0 
WCVTP[ ]	/* WriteCVTInPixels */";
};
width = 134;
}
);
note = cedilla;
unicode = 184;
},
{
glyphname = onesuperior;
layers = (
{
layerId = m01;
shapes = (
{
closed = 1;
nodes = (
(82,474,o),
(82,481,q),
(90,527,l),
(93,537,o),
(101,539,qs),
(136,551,ls),
(153,556,o),
(166,556,qs),
(190,556,ls),
(220,556,o),
(214,523,qs),
(164,241,ls),
(163,233,o),
(154,233,qs),
(109,233,ls),
(101,233,o),
(103,241,qs),
(148,497,l),
(87,476,ls)
);
}
);
userData = {
assembly = "NPUSHB[ ]	/* 22 values pushed */
16 1 0 1 1 76 0 1 1 55 77 0 0 0 56 0 78 51 50 2 10 24 
CALL[ ]	/* CallFunction */";
};
width = 209;
}
);
note = onesuperior;
unicode = 185;
},
{
glyphname = ordmasculine;
layers = (
{
layerId = m01;
shapes = (
{
closed = 1;
nodes = (
(49,322,o),
(49,378,qs),
(49,448,o),
(94,499,qs),
(146,558,o),
(224,558,qs),
(281,558,o),
(347,496,o),
(347,442,qs),
(347,370,o),
(305,317,qs),
(254,253,o),
(171,253,qs),
(116,253,o)
);
},
{
closed = 1;
nodes = (
(283,379,o),
(283,431,qs),
(283,500,o),
(215,500,qs),
(172,500,o),
(114,433,o),
(114,382,qs),
(114,312,o),
(177,312,qs),
(223,312,o)
);
}
);
userData = {
assembly = "NPUSHB[ ]	/* 39 values pushed */
5 1 2 4 1 0 2 0 101 0 3 3 1 97 0 1 1 55 3 78 15 14 1 0 20 18 14 23 15 23 8 6 0 13 1 13 6 10 22 
CALL[ ]	/* CallFunction */";
};
width = 329;
}
);
note = ordmasculine;
unicode = 186;
},
{
glyphname = guillemotright;
layers = (
{
layerId = m01;
shapes = (
{
closed = 1;
nodes = (
(192,338,o),
(201,338,qs),
(255,338,ls),
(268,338,o),
(273,328,qs),
(345,204,l),
(345,203,o),
(346,202,q),
(351,193,o),
(351,189,qs),
(351,184,o),
(341,175,q),
(224,49,ls),
(214,39,o),
(202,39,qs),
(149,39,ls),
(138,39,o),
(147,48,qs),
(276,188,l),
(196,329,l)
);
},
{
closed = 1;
nodes = (
(42,338,o),
(52,338,qs),
(106,338,ls),
(118,338,o),
(124,328,qs),
(195,204,ls),
(201,195,o),
(201,189,qs),
(201,184,o),
(192,175,qs),
(75,49,ls),
(65,39,o),
(54,39,qs),
(0,39,ls),
(-10,39,o),
(-3,48,q),
(127,188,l),
(47,329,ls)
);
}
);
userData = {
assembly = "NPUSHB[ ]	/* 26 values pushed */
3 1 1 0 0 1 89 3 1 1 1 0 97 2 1 0 1 0 81 56 52 58 50 4 9 26 
CALL[ ]	/* CallFunction */";
};
width = 379;
}
);
note = guillemotright;
unicode = 187;
},
{
glyphname = onequarter;
layers = (
{
layerId = m01;
shapes = (
{
closed = 1;
nodes = (
(82,475,o),
(82,481,q),
(90,527,l),
(93,537,o),
(101,539,qs),
(136,551,ls),
(152,556,o),
(166,556,qs),
(190,556,ls),
(220,556,o),
(214,523,qs),
(164,241,ls),
(163,233,o),
(154,233,qs),
(109,233,ls),
(101,233,o),
(103,241,qs),
(148,497,l),
(87,476,l)
);
},
{
closed = 1;
nodes = (
(89,9,qs),
(469,547,ls),
(476,556,o),
(484,556,qs),
(493,556,ls),
(516,556,o),
(522,522,o),
(503,496,qs),
(159,9,l),
(154,0,o),
(145,0,qs),
(91,0,ls),
(82,0,o)
);
},
{
closed = 1;
nodes = (
(318,73,o),
(319,79,qs),
(324,106,l),
(327,115,o),
(335,126,q),
(493,312,l),
(501,323,o),
(516,323,qs),
(551,323,ls),
(580,323,o),
(575,295,qs),
(545,124,l),
(566,124,ls),
(593,124,o),
(588,98,qs),
(585,79,l),
(583,73,o),
(577,73,qs),
(536,73,l),
(524,6,ls),
(523,0,o),
(517,0,qs),
(469,0,ls),
(465,0,o),
(465,6,q),
(478,73,l),
(323,73,ls)
);
},
{
closed = 1;
nodes = (
(511,267,l),
(389,124,l),
(486,124,l)
);
}
);
userData = {
assembly = "PUSHB[ ]	/* 2 values pushed */
6 100 
WCVTP[ ]	/* WriteCVTInPixels */
NPUSHB[ ]	/* 15 values pushed */
18 16 2 7 1 60 1 0 7 33 1 2 5 3 76 
MPPEM[ ]	/* MeasurePixelPerEm */
PUSHB[ ]	/* 1 value pushed */
14 
LT[ ]	/* LessThan */
IF[ ]	/* If */
NPUSHB[ ]	/* 47 values pushed */
0 7 1 0 1 7 0 128 4 10 2 2 5 5 2 113 3 1 1 0 0 6 1 0 105 12 9 2 6 5 5 6 89 12 9 2 6 6 5 96 11 8 2 5 6 5 80 
ELSE[ ]	/* Else */
NPUSHB[ ]	/* 46 values pushed */
0 7 1 0 1 7 0 128 4 10 2 2 5 2 134 3 1 1 0 0 6 1 0 105 12 9 2 6 5 5 6 89 12 9 2 6 6 5 96 11 8 2 5 6 5 80 
EIF[ ]	/* EndIf */
NPUSHB[ ]	/* 33 values pushed */
59 59 32 32 21 19 59 61 59 61 32 58 32 57 51 48 46 44 40 39 36 35 28 25 19 31 21 31 51 50 13 9 24 
CALL[ ]	/* CallFunction */
PUSHB[ ]	/* 2 values pushed */
6 0 
WCVTP[ ]	/* WriteCVTInPixels */";
};
width = 648;
}
);
note = onequarter;
unicode = 188;
},
{
glyphname = onehalf;
layers = (
{
layerId = m01;
shapes = (
{
closed = 1;
nodes = (
(611,54,o),
(605,22,qs),
(603,6,l),
(601,0,o),
(595,0,qs),
(379,0,ls),
(374,0,o),
(375,6,qs),
(383,54,o),
(437,119,o),
(497,152,qs),
(548,181,o),
(580,215,o),
(580,241,qs),
(580,277,o),
(529,277,qs),
(488,277,o),
(443,252,qs),
(433,246,o),
(431,254,qs),
(428,271,ls),
(422,294,o),
(450,309,qs),
(495,331,o),
(542,331,qs),
(588,331,o),
(643,286,o),
(643,248,qs),
(643,208,o),
(614,175,qs),
(592,151,o),
(531,117,qs),
(464,79,o),
(455,54,q),
(575,54,ls)
);
},
{
closed = 1;
nodes = (
(82,475,o),
(82,481,q),
(90,527,l),
(93,537,o),
(101,539,qs),
(136,551,ls),
(152,556,o),
(166,556,qs),
(190,556,ls),
(220,556,o),
(214,523,qs),
(164,241,ls),
(163,233,o),
(154,233,qs),
(109,233,ls),
(101,233,o),
(103,241,qs),
(148,497,l),
(87,476,l)
);
},
{
closed = 1;
nodes = (
(89,9,qs),
(469,547,ls),
(476,556,o),
(484,556,qs),
(493,556,ls),
(516,556,o),
(522,522,o),
(503,496,qs),
(159,9,l),
(154,0,o),
(145,0,qs),
(91,0,ls),
(82,0,o)
);
}
);
userData = {
assembly = "PUSHB[ ]	/* 2 values pushed */
6 100 
WCVTP[ ]	/* WriteCVTInPixels */
NPUSHB[ ]	/* 68 values pushed */
53 51 2 0 5 1 76 0 0 0 1 4 0 1 106 7 1 5 0 4 3 5 4 105 8 1 3 2 2 3 87 8 1 3 3 2 97 9 6 2 2 3 2 81 56 54 0 0 63 60 54 66 56 66 46 43 40 37 0 34 0 33 40 39 40 10 9 25 
CALL[ ]	/* CallFunction */
PUSHB[ ]	/* 2 values pushed */
6 0 
WCVTP[ ]	/* WriteCVTInPixels */";
};
width = 703;
}
);
note = onehalf;
unicode = 189;
},
{
glyphname = threequarters;
layers = (
{
layerId = m01;
shapes = (
{
closed = 1;
nodes = (
(157,9,q),
(538,547,ls),
(544,556,o),
(553,556,qs),
(562,556,ls),
(585,556,o),
(590,522,o),
(572,496,qs),
(228,9,ls),
(222,0,o),
(214,0,qs),
(159,0,ls),
(149,0,o)
);
},
{
closed = 1;
nodes = (
(386,73,o),
(388,79,q),
(393,106,ls),
(395,115,o),
(403,126,q),
(562,312,l),
(569,323,o),
(585,323,qs),
(619,323,ls),
(649,323,o),
(643,295,qs),
(613,124,l),
(634,124,ls),
(660,124,o),
(656,98,qs),
(653,79,ls),
(652,73,o),
(645,73,qs),
(605,73,l),
(592,6,ls),
(591,0,o),
(586,0,qs),
(538,0,ls),
(532,0,o),
(534,6,q),
(546,73,l),
(392,73,ls)
);
},
{
closed = 1;
nodes = (
(154,278,qs),
(231,278,o),
(231,336,qs),
(231,374,o),
(168,374,qs),
(141,374,ls),
(110,374,o),
(116,398,q),
(118,419,l),
(120,426,o),
(126,426,qs),
(178,426,ls),
(247,426,o),
(247,475,qs),
(247,512,o),
(193,512,qs),
(152,512,o),
(107,486,qs),
(98,481,o),
(96,491,qs),
(92,507,ls),
(85,530,o),
(116,544,qs),
(160,563,o),
(202,563,qs),
(303,563,o),
(303,491,qs),
(303,427,o),
(238,403,q),
(287,387,o),
(287,341,qs),
(287,290,o),
(216,227,o),
(157,227,qs),
(113,227,o),
(49,273,o),
(49,305,qs),
(49,325,o),
(62,325,qs),
(65,325,o),
(70,319,q),
(94,278,o)
);
},
{
closed = 1;
nodes = (
(580,267,l),
(457,124,l),
(555,124,l)
);
}
);
userData = {
assembly = "PUSHB[ ]	/* 2 values pushed */
6 100 
WCVTP[ ]	/* WriteCVTInPixels */
NPUSHB[ ]	/* 10 values pushed */
52 1 12 11 83 1 8 13 2 76 
MPPEM[ ]	/* MeasurePixelPerEm */
PUSHB[ ]	/* 1 value pushed */
14 
LT[ ]	/* LessThan */
IF[ ]	/* If */
NPUSHB[ ]	/* 64 values pushed */
7 1 5 12 13 12 5 13 128 2 15 2 0 3 3 0 113 9 1 1 0 10 11 1 10 105 0 11 0 12 5 11 12 105 0 13 0 8 4 13 8 105 17 14 2 4 3 3 4 89 17 14 2 4 4 3 98 16 6 2 3 4 3 82 
ELSE[ ]	/* Else */
MPPEM[ ]	/* MeasurePixelPerEm */
PUSHB[ ]	/* 1 value pushed */
27 
LT[ ]	/* LessThan */
IF[ ]	/* If */
NPUSHB[ ]	/* 63 values pushed */
7 1 5 12 13 12 5 13 128 2 15 2 0 3 0 134 9 1 1 0 10 11 1 10 105 0 11 0 12 5 11 12 105 0 13 0 8 4 13 8 105 17 14 2 4 3 3 4 89 17 14 2 4 4 3 98 16 6 2 3 4 3 82 
ELSE[ ]	/* Else */
NPUSHB[ ]	/* 70 values pushed */
0 1 9 10 9 1 10 128 7 1 5 12 13 12 5 13 128 2 15 2 0 3 0 134 0 9 0 10 11 9 10 105 0 11 0 12 5 11 12 105 0 13 0 8 4 13 8 105 17 14 2 4 3 3 4 89 17 14 2 4 4 3 98 16 6 2 3 4 3 82 
EIF[ ]	/* EndIf */
EIF[ ]	/* EndIf */
NPUSHB[ ]	/* 45 values pushed */
82 82 13 13 2 0 82 84 82 84 81 79 77 74 70 68 66 64 57 55 48 46 43 41 13 39 13 38 32 29 27 25 22 20 17 15 9 6 0 12 2 12 18 9 22 
CALL[ ]	/* CallFunction */
PUSHB[ ]	/* 2 values pushed */
6 0 
WCVTP[ ]	/* WriteCVTInPixels */";
};
width = 717;
}
);
note = threequarters;
unicode = 190;
},
{
glyphname = questiondown;
layers = (
{
layerId = m01;
shapes = (
{
closed = 1;
nodes = (
(-6,36,qs),
(22,70,o),
(94,120,qs),
(117,136,o),
(124,141,qs),
(146,156,o),
(150,184,qs),
(155,213,ls),
(157,221,o),
(164,221,qs),
(176,221,ls),
(212,221,o),
(212,184,qs),
(212,155,o),
(193,130,qs),
(177,109,o),
(131,75,qs),
(73,33,o),
(33,-22,o),
(33,-59,qs),
(33,-130,o),
(118,-130,qs),
(188,-130,o),
(252,-91,q),
(261,-84,o),
(265,-84,qs),
(270,-84,o),
(272,-93,qs),
(278,-137,ls),
(280,-146,o),
(270,-151,qs),
(187,-200,o),
(110,-200,qs),
(39,-200,o),
(-44,-127,o),
(-44,-64,qs),
(-44,-11,o)
);
},
{
closed = 1;
nodes = (
(158,320,qs),
(158,343,o),
(191,377,o),
(214,377,qs),
(255,377,o),
(255,335,qs),
(255,311,o),
(223,276,o),
(200,276,qs),
(158,276,o)
);
}
);
userData = {
assembly = "NPUSHB[ ]	/* 49 values pushed */
0 3 4 1 4 3 1 128 0 1 2 4 1 2 126 0 2 0 0 2 0 102 6 1 4 4 5 97 0 5 5 48 4 78 38 37 43 41 37 46 38 46 57 34 37 34 7 9 26 
CALL[ ]	/* CallFunction */";
};
width = 325;
}
);
note = questiondown;
unicode = 191;
},
{
glyphname = Agrave;
kernLeft = A;
kernRight = A;
layers = (
{
layerId = m01;
shapes = (
{
closed = 1;
nodes = (
(287,463,l),
(159,221,l),
(330,221,l)
);
},
{
closed = 1;
nodes = (
(43,0,o),
(33,0,qs),
(-27,0,ls),
(-36,0,o),
(-31,9,qs),
(259,548,ls),
(264,556,o),
(272,556,qs),
(291,556,ls),
(320,556,o),
(346,532,o),
(352,500,qs),
(444,9,ls),
(446,0,o),
(436,0,qs),
(381,0,ls),
(369,0,o),
(367,12,qs),
(342,153,l),
(123,153,l),
(49,12,ls)
);
},
{
closed = 1;
nodes = (
(356,608,o),
(352,608,qs),
(301,608,ls),
(285,608,o),
(275,619,qs),
(208,684,ls),
(205,687,o),
(209,693,o),
(213,693,qs),
(276,693,ls),
(289,693,o),
(298,684,qs),
(358,617,ls),
(360,615,o)
);
}
);
userData = {
assembly = "NPUSHB[ ]	/* 56 values pushed */
1 1 0 3 1 76 0 5 0 6 3 5 6 105 7 1 0 0 1 2 0 1 104 0 3 3 39 77 4 1 2 2 40 2 78 0 0 35 33 28 26 22 19 16 13 9 6 4 3 0 2 0 2 8 9 22 
CALL[ ]	/* CallFunction */";
};
width = 495;
}
);
note = Agrave;
unicode = 192;
},
{
glyphname = Aacute;
kernLeft = A;
kernRight = A;
layers = (
{
layerId = m01;
shapes = (
{
closed = 1;
nodes = (
(287,463,l),
(159,221,l),
(330,221,l)
);
},
{
closed = 1;
nodes = (
(43,0,o),
(33,0,qs),
(-27,0,ls),
(-36,0,o),
(-31,9,qs),
(259,548,ls),
(264,556,o),
(272,556,qs),
(291,556,ls),
(320,556,o),
(346,532,o),
(352,500,qs),
(444,9,ls),
(446,0,o),
(436,0,qs),
(381,0,ls),
(369,0,o),
(367,12,qs),
(342,153,l),
(123,153,l),
(49,12,ls)
);
},
{
closed = 1;
nodes = (
(304,693,o),
(317,693,qs),
(380,693,ls),
(385,693,o),
(386,687,o),
(383,684,q),
(292,619,ls),
(278,608,o),
(262,608,qs),
(211,608,ls),
(207,608,o),
(205,614,o),
(209,617,qs),
(292,684,ls)
);
}
);
userData = {
assembly = "NPUSHB[ ]	/* 58 values pushed */
1 1 0 3 1 76 0 6 5 6 133 0 5 3 5 133 7 1 0 0 1 2 0 1 104 0 3 3 39 77 4 1 2 2 40 2 78 0 0 36 33 29 26 22 19 16 13 9 6 4 3 0 2 0 2 8 9 22 
CALL[ ]	/* CallFunction */";
};
width = 495;
}
);
note = Aacute;
unicode = 193;
},
{
glyphname = Acircumflex;
kernLeft = A;
kernRight = A;
layers = (
{
layerId = m01;
shapes = (
{
closed = 1;
nodes = (
(287,463,l),
(159,221,l),
(330,221,l)
);
},
{
closed = 1;
nodes = (
(43,0,o),
(33,0,qs),
(-27,0,ls),
(-36,0,o),
(-31,9,qs),
(259,548,ls),
(264,556,o),
(272,556,qs),
(291,556,ls),
(320,556,o),
(346,532,o),
(352,500,qs),
(444,9,ls),
(446,0,o),
(436,0,qs),
(381,0,ls),
(369,0,o),
(367,12,qs),
(342,153,l),
(123,153,l),
(49,12,ls)
);
},
{
closed = 1;
nodes = (
(235,608,o),
(217,608,qs),
(169,608,ls),
(165,608,o),
(164,615,o),
(167,617,qs),
(245,684,ls),
(256,693,o),
(272,693,qs),
(323,693,ls),
(337,693,o),
(345,684,qs),
(400,617,l),
(406,608,o),
(395,608,qs),
(352,608,ls),
(335,608,o),
(326,620,qs),
(294,663,l),
(247,620,ls)
);
}
);
userData = {
assembly = "NPUSHB[ ]	/* 61 values pushed */
1 1 0 3 1 76 0 6 5 6 133 7 1 5 3 5 133 8 1 0 0 1 2 0 1 104 0 3 3 39 77 4 1 2 2 40 2 78 0 0 42 39 35 32 29 26 22 19 16 13 9 6 4 3 0 2 0 2 9 9 22 
CALL[ ]	/* CallFunction */";
};
width = 495;
}
);
note = Acircumflex;
unicode = 194;
},
{
glyphname = Atilde;
kernLeft = A;
kernRight = A;
layers = (
{
layerId = m01;
shapes = (
{
closed = 1;
nodes = (
(287,463,l),
(159,221,l),
(330,221,l)
);
},
{
closed = 1;
nodes = (
(43,0,o),
(33,0,qs),
(-27,0,ls),
(-36,0,o),
(-31,9,qs),
(259,548,ls),
(264,556,o),
(272,556,qs),
(291,556,ls),
(320,556,o),
(346,532,o),
(352,500,qs),
(444,9,ls),
(446,0,o),
(436,0,qs),
(381,0,ls),
(369,0,o),
(367,12,qs),
(342,153,l),
(123,153,l),
(49,12,ls)
);
},
{
closed = 1;
nodes = (
(329,608,qs),
(310,608,o),
(277,624,qs),
(250,636,o),
(240,636,qs),
(224,636,o),
(218,617,qs),
(215,607,o),
(207,607,qs),
(173,607,ls),
(165,607,o),
(167,616,qs),
(184,691,o),
(240,691,qs),
(260,691,o),
(294,675,qs),
(321,662,o),
(333,662,qs),
(348,662,o),
(356,679,qs),
(360,689,o),
(368,689,qs),
(402,689,ls),
(409,689,o),
(408,681,q),
(388,608,o)
);
}
);
userData = {
assembly = "NPUSHB[ ]	/* 74 values pushed */
1 1 0 3 1 76 7 1 5 0 9 8 5 9 105 0 6 10 1 8 3 6 8 106 11 1 0 0 1 2 0 1 104 0 3 3 39 77 4 1 2 2 40 2 78 0 0 49 47 45 43 41 38 36 34 32 30 28 25 22 19 16 13 9 6 4 3 0 2 0 2 12 9 22 
CALL[ ]	/* CallFunction */";
};
width = 495;
}
);
note = Atilde;
unicode = 195;
},
{
glyphname = Adieresis;
kernLeft = A;
kernRight = A;
layers = (
{
layerId = m01;
shapes = (
{
closed = 1;
nodes = (
(287,463,l),
(159,221,l),
(330,221,l)
);
},
{
closed = 1;
nodes = (
(43,0,o),
(33,0,qs),
(-27,0,ls),
(-36,0,o),
(-31,9,qs),
(259,548,ls),
(264,556,o),
(272,556,qs),
(291,556,ls),
(320,556,o),
(346,532,o),
(352,500,qs),
(444,9,ls),
(446,0,o),
(436,0,qs),
(381,0,ls),
(369,0,o),
(367,12,qs),
(342,153,l),
(123,153,l),
(49,12,ls)
);
},
{
closed = 1;
nodes = (
(207,691,o),
(228,691,qs),
(266,691,o),
(266,654,qs),
(266,631,o),
(234,600,o),
(213,600,qs),
(177,600,o),
(176,638,qs),
(176,659,o)
);
},
{
closed = 1;
nodes = (
(339,691,o),
(360,691,qs),
(398,691,o),
(398,654,qs),
(397,631,o),
(367,600,o),
(345,600,qs),
(309,600,o),
(308,638,qs),
(308,659,o)
);
}
);
userData = {
assembly = "NPUSHB[ ]	/* 62 values pushed */
1 1 0 3 1 76 8 1 6 7 1 5 3 6 5 105 9 1 0 0 1 2 0 1 104 0 3 3 39 77 4 1 2 2 40 2 78 0 0 42 40 37 35 32 30 27 25 22 19 16 13 9 6 4 3 0 2 0 2 10 9 22 
CALL[ ]	/* CallFunction */";
};
width = 495;
}
);
note = Adieresis;
unicode = 196;
},
{
glyphname = Aring;
kernLeft = A;
kernRight = A;
layers = (
{
layerId = m01;
shapes = (
{
closed = 1;
nodes = (
(287,463,l),
(159,221,l),
(330,221,l)
);
},
{
closed = 1;
nodes = (
(43,0,o),
(33,0,qs),
(-27,0,ls),
(-36,0,o),
(-31,9,qs),
(259,548,ls),
(264,556,o),
(272,556,qs),
(291,556,ls),
(320,556,o),
(346,532,o),
(352,500,qs),
(444,9,ls),
(446,0,o),
(436,0,qs),
(381,0,ls),
(369,0,o),
(367,12,qs),
(342,153,l),
(123,153,l),
(49,12,ls)
);
},
{
closed = 1;
nodes = (
(272,737,o),
(304,737,qs),
(330,737,o),
(364,704,o),
(364,679,qs),
(363,645,o),
(317,597,o),
(285,597,qs),
(258,597,o),
(224,632,o),
(224,659,qs),
(225,691,o)
);
},
{
closed = 1;
nodes = (
(288,633,qs),
(327,633,o),
(326,674,qs),
(326,702,o),
(300,702,qs),
(284,702,o),
(262,678,o),
(262,661,qs),
(262,633,o)
);
}
);
userData = {
assembly = "NPUSHB[ ]	/* 68 values pushed */
1 1 0 3 1 76 0 6 0 7 8 6 7 105 0 8 0 5 3 8 5 105 9 1 0 0 1 2 0 1 104 0 3 3 39 77 4 1 2 2 40 2 78 0 0 44 42 40 38 34 32 28 26 22 19 16 13 9 6 4 3 0 2 0 2 10 9 22 
CALL[ ]	/* CallFunction */";
};
width = 495;
}
);
note = Aring;
unicode = 197;
},
{
glyphname = AE;
kernRight = E;
layers = (
{
layerId = m01;
shapes = (
{
closed = 1;
nodes = (
(41,0,o),
(29,0,qs),
(-31,0,ls),
(-41,0,o),
(-34,9,qs),
(343,547,l),
(348,556,o),
(360,556,qs),
(645,556,ls),
(687,556,o),
(679,513,qs),
(676,496,ls),
(675,485,o),
(665,485,qs),
(449,485,l),
(418,312,l),
(580,312,ls),
(625,312,o),
(618,268,qs),
(615,252,ls),
(613,242,o),
(601,242,qs),
(406,242,l),
(375,71,l),
(565,71,ls),
(610,71,o),
(602,27,qs),
(599,11,ls),
(598,0,o),
(585,0,qs),
(297,0,ls),
(289,0,o),
(291,9,qs),
(317,153,l),
(145,153,l),
(49,12,ls)
);
},
{
closed = 1;
nodes = (
(375,486,l),
(191,221,l),
(329,221,l)
);
}
);
userData = {
assembly = "NPUSHB[ ]	/* 62 values pushed */
37 1 5 6 1 76 0 4 0 3 8 4 3 103 9 1 8 0 0 2 8 0 103 0 5 5 6 95 0 6 6 39 77 0 2 2 1 95 7 1 1 1 40 1 78 36 36 36 38 36 38 51 51 33 35 33 35 50 16 10 9 30 
CALL[ ]	/* CallFunction */";
};
width = 661;
}
);
note = AE;
unicode = 198;
},
{
glyphname = Ccedilla;
kernLeft = C;
kernRight = C;
layers = (
{
layerId = m01;
shapes = (
{
closed = 1;
nodes = (
(222,-104,o),
(205,-104,qs),
(157,-104,ls),
(148,-104,o),
(155,-96,qs),
(224,-9,l),
(149,1,o),
(105,54,qs),
(54,115,o),
(54,222,qs),
(54,353,o),
(132,452,qs),
(223,567,o),
(361,567,qs),
(422,567,o),
(485,538,qs),
(528,516,o),
(511,477,qs),
(502,456,ls),
(498,446,o),
(491,446,qs),
(486,446,o),
(478,452,qs),
(421,495,o),
(351,495,qs),
(263,495,o),
(201,425,qs),
(131,346,o),
(131,224,qs),
(131,61,o),
(272,61,qs),
(367,61,o),
(435,132,qs),
(445,142,o),
(452,142,qs),
(463,142,o),
(463,128,qs),
(463,96,o),
(424,56,qs),
(369,-1,o),
(285,-10,q),
(231,-92,ls)
);
}
);
userData = {
assembly = "PUSHB[ ]	/* 6 values pushed */
35 1 5 1 1 76 
MPPEM[ ]	/* MeasurePixelPerEm */
PUSHB[ ]	/* 1 value pushed */
35 
LT[ ]	/* LessThan */
IF[ ]	/* If */
NPUSHB[ ]	/* 33 values pushed */
0 3 2 0 2 3 0 128 0 0 1 2 0 1 126 0 1 0 5 1 5 101 0 2 2 4 97 0 4 4 39 2 78 
ELSE[ ]	/* Else */
NPUSHB[ ]	/* 39 values pushed */
0 3 2 0 2 3 0 128 0 0 1 2 0 1 126 0 4 0 2 3 4 2 105 0 1 5 5 1 89 0 1 1 5 97 0 5 1 5 81 
EIF[ ]	/* EndIf */
NPUSHB[ ]	/* 9 values pushed */
57 37 34 36 34 37 6 9 28 
CALL[ ]	/* CallFunction */";
};
width = 500;
}
);
note = Ccedilla;
unicode = 199;
},
{
glyphname = Egrave;
kernRight = E;
layers = (
{
layerId = m01;
shapes = (
{
closed = 1;
nodes = (
(347,71,o),
(340,27,qs),
(337,11,ls),
(334,0,o),
(324,0,qs),
(34,0,ls),
(26,0,o),
(28,9,qs),
(123,547,ls),
(124,556,o),
(132,556,qs),
(381,556,ls),
(424,556,o),
(416,513,qs),
(414,496,ls),
(412,485,o),
(401,485,qs),
(186,485,l),
(155,312,l),
(319,312,ls),
(362,312,o),
(355,268,qs),
(353,252,l),
(350,242,o),
(340,242,qs),
(143,242,l),
(113,71,l),
(304,71,ls)
);
},
{
closed = 1;
nodes = (
(315,608,o),
(311,608,qs),
(260,608,ls),
(244,608,o),
(234,619,qs),
(166,684,l),
(164,687,o),
(168,693,o),
(172,693,qs),
(235,693,ls),
(248,693,o),
(257,684,qs),
(316,617,l),
(319,615,o)
);
}
);
userData = {
assembly = "NPUSHB[ ]	/* 56 values pushed */
0 6 0 7 3 6 7 105 0 1 0 0 5 1 0 103 0 2 2 3 95 0 3 3 39 77 8 1 5 5 4 95 0 4 4 40 4 78 0 0 39 37 32 30 0 27 0 26 51 51 33 35 33 9 9 27 
CALL[ ]	/* CallFunction */";
};
width = 399;
}
);
note = Egrave;
unicode = 200;
},
{
glyphname = Eacute;
kernRight = E;
layers = (
{
layerId = m01;
shapes = (
{
closed = 1;
nodes = (
(347,71,o),
(340,27,qs),
(337,11,ls),
(334,0,o),
(324,0,qs),
(34,0,ls),
(26,0,o),
(28,9,qs),
(123,547,ls),
(124,556,o),
(132,556,qs),
(381,556,ls),
(424,556,o),
(416,513,qs),
(414,496,ls),
(412,485,o),
(401,485,qs),
(186,485,l),
(155,312,l),
(319,312,ls),
(362,312,o),
(355,268,qs),
(353,252,l),
(350,242,o),
(340,242,qs),
(143,242,l),
(113,71,l),
(304,71,ls)
);
},
{
closed = 1;
nodes = (
(283,693,o),
(295,693,qs),
(359,693,ls),
(363,693,o),
(365,687,o),
(361,684,qs),
(271,619,ls),
(257,608,o),
(241,608,qs),
(190,608,ls),
(186,608,o),
(184,614,o),
(188,617,qs),
(270,684,l)
);
}
);
userData = {
assembly = "NPUSHB[ ]	/* 58 values pushed */
0 7 6 7 133 0 6 3 6 133 0 1 0 0 5 1 0 103 0 2 2 3 95 0 3 3 39 77 8 1 5 5 4 95 0 4 4 40 4 78 0 0 40 37 33 30 0 27 0 26 51 51 33 35 33 9 9 27 
CALL[ ]	/* CallFunction */";
};
width = 399;
}
);
note = Eacute;
unicode = 201;
},
{
glyphname = Ecircumflex;
kernRight = E;
layers = (
{
layerId = m01;
shapes = (
{
closed = 1;
nodes = (
(347,71,o),
(340,27,qs),
(337,11,ls),
(334,0,o),
(324,0,qs),
(34,0,ls),
(26,0,o),
(28,9,qs),
(123,547,ls),
(124,556,o),
(132,556,qs),
(381,556,ls),
(424,556,o),
(416,513,qs),
(414,496,ls),
(412,485,o),
(401,485,qs),
(186,485,l),
(155,312,l),
(319,312,ls),
(362,312,o),
(355,268,qs),
(353,252,l),
(350,242,o),
(340,242,qs),
(143,242,l),
(113,71,l),
(304,71,ls)
);
},
{
closed = 1;
nodes = (
(202,608,o),
(184,608,qs),
(136,608,ls),
(132,608,o),
(131,615,o),
(134,617,qs),
(213,684,ls),
(223,693,o),
(239,693,qs),
(290,693,ls),
(304,693,o),
(312,684,qs),
(368,617,l),
(374,608,o),
(362,608,qs),
(319,608,ls),
(302,608,o),
(293,620,qs),
(261,663,l),
(214,620,ls)
);
}
);
userData = {
assembly = "NPUSHB[ ]	/* 61 values pushed */
0 7 6 7 133 8 1 6 3 6 133 0 1 0 0 5 1 0 103 0 2 2 3 95 0 3 3 39 77 9 1 5 5 4 95 0 4 4 40 4 78 0 0 46 43 39 36 33 30 0 27 0 26 51 51 33 35 33 10 9 27 
CALL[ ]	/* CallFunction */";
};
width = 399;
}
);
note = Ecircumflex;
unicode = 202;
},
{
glyphname = Edieresis;
kernRight = E;
layers = (
{
layerId = m01;
shapes = (
{
closed = 1;
nodes = (
(347,71,o),
(340,27,qs),
(337,11,ls),
(334,0,o),
(324,0,qs),
(34,0,ls),
(26,0,o),
(28,9,qs),
(123,547,ls),
(124,556,o),
(132,556,qs),
(381,556,ls),
(424,556,o),
(416,513,qs),
(414,496,ls),
(412,485,o),
(401,485,qs),
(186,485,l),
(155,312,l),
(319,312,ls),
(362,312,o),
(355,268,qs),
(353,252,l),
(350,242,o),
(340,242,qs),
(143,242,l),
(113,71,l),
(304,71,ls)
);
},
{
closed = 1;
nodes = (
(179,691,o),
(200,691,qs),
(238,691,o),
(238,654,qs),
(238,631,o),
(207,600,o),
(185,600,qs),
(149,600,o),
(148,638,qs),
(148,659,o)
);
},
{
closed = 1;
nodes = (
(311,691,o),
(332,691,qs),
(370,691,o),
(370,654,qs),
(369,631,o),
(339,600,o),
(317,600,qs),
(281,600,o),
(280,638,qs),
(280,659,o)
);
}
);
userData = {
assembly = "NPUSHB[ ]	/* 62 values pushed */
9 1 7 8 1 6 3 7 6 105 0 1 0 0 5 1 0 103 0 2 2 3 95 0 3 3 39 77 10 1 5 5 4 95 0 4 4 40 4 78 0 0 46 44 41 39 36 34 31 29 0 27 0 26 51 51 33 35 33 11 9 27 
CALL[ ]	/* CallFunction */";
};
width = 399;
}
);
note = Edieresis;
unicode = 203;
},
{
glyphname = Igrave;
kernRight = I;
layers = (
{
layerId = m01;
shapes = (
{
closed = 1;
nodes = (
(28,9,qs),
(123,547,ls),
(124,556,o),
(132,556,qs),
(139,556,ls),
(198,556,o),
(185,485,qs),
(101,9,ls),
(100,0,o),
(92,0,qs),
(34,0,ls),
(26,0,o)
);
},
{
closed = 1;
nodes = (
(214,608,o),
(210,608,qs),
(159,608,ls),
(143,608,o),
(133,619,qs),
(65,684,l),
(63,687,o),
(67,693,o),
(71,693,qs),
(134,693,ls),
(146,693,o),
(156,684,q),
(215,617,l),
(218,615,o)
);
}
);
userData = {
assembly = "NPUSHB[ ]	/* 35 values pushed */
0 2 0 3 1 2 3 105 0 1 1 39 77 4 1 0 0 40 0 78 2 0 23 21 16 14 8 5 0 11 2 11 5 9 22 
CALL[ ]	/* CallFunction */";
};
width = 202;
}
);
note = Igrave;
unicode = 204;
},
{
glyphname = Iacute;
kernRight = I;
layers = (
{
layerId = m01;
shapes = (
{
closed = 1;
nodes = (
(28,9,qs),
(123,547,ls),
(124,556,o),
(132,556,qs),
(139,556,ls),
(198,556,o),
(185,485,qs),
(101,9,ls),
(100,0,o),
(92,0,qs),
(34,0,ls),
(26,0,o)
);
},
{
closed = 1;
nodes = (
(181,693,o),
(194,693,qs),
(258,693,ls),
(262,693,o),
(263,687,o),
(260,684,q),
(169,619,ls),
(155,608,o),
(139,608,qs),
(88,608,ls),
(84,608,o),
(82,614,o),
(86,617,qs),
(169,684,ls)
);
}
);
userData = {
assembly = "NPUSHB[ ]	/* 37 values pushed */
0 3 2 3 133 0 2 1 2 133 0 1 1 39 77 4 1 0 0 40 0 78 2 0 24 21 17 14 8 5 0 11 2 11 5 9 22 
CALL[ ]	/* CallFunction */";
};
width = 202;
}
);
note = Iacute;
unicode = 205;
},
{
glyphname = Icircumflex;
kernRight = I;
layers = (
{
layerId = m01;
shapes = (
{
closed = 1;
nodes = (
(39,9,qs),
(134,547,ls),
(135,556,o),
(143,556,qs),
(150,556,ls),
(209,556,o),
(196,485,qs),
(112,9,ls),
(111,0,o),
(103,0,qs),
(45,0,ls),
(37,0,o)
);
},
{
closed = 1;
nodes = (
(120,608,o),
(101,608,qs),
(54,608,ls),
(50,608,o),
(48,615,o),
(52,617,q),
(130,684,ls),
(141,693,o),
(156,693,qs),
(208,693,ls),
(222,693,o),
(230,684,qs),
(285,617,l),
(291,608,o),
(280,608,qs),
(236,608,ls),
(220,608,o),
(211,620,qs),
(179,663,l),
(131,620,l)
);
}
);
userData = {
assembly = "NPUSHB[ ]	/* 40 values pushed */
0 3 2 3 133 4 1 2 1 2 133 0 1 1 39 77 5 1 0 0 40 0 78 2 0 30 27 23 20 17 14 8 5 0 11 2 11 6 9 22 
CALL[ ]	/* CallFunction */";
};
width = 202;
}
);
note = Icircumflex;
unicode = 206;
},
{
glyphname = Idieresis;
kernRight = I;
layers = (
{
layerId = m01;
shapes = (
{
closed = 1;
nodes = (
(28,9,qs),
(123,547,ls),
(124,556,o),
(132,556,qs),
(139,556,ls),
(198,556,o),
(185,485,qs),
(101,9,ls),
(100,0,o),
(92,0,qs),
(34,0,ls),
(26,0,o)
);
},
{
closed = 1;
nodes = (
(84,691,o),
(105,691,qs),
(144,691,o),
(144,654,qs),
(143,631,o),
(112,600,o),
(90,600,qs),
(55,600,o),
(54,638,qs),
(54,659,o)
);
},
{
closed = 1;
nodes = (
(216,691,o),
(238,691,qs),
(275,691,o),
(275,654,qs),
(275,631,o),
(244,600,o),
(223,600,qs),
(187,600,o),
(186,638,qs),
(186,659,o)
);
}
);
userData = {
assembly = "NPUSHB[ ]	/* 41 values pushed */
5 1 3 4 1 2 1 3 2 105 0 1 1 39 77 6 1 0 0 40 0 78 2 0 30 28 25 23 20 18 15 13 8 5 0 11 2 11 7 9 22 
CALL[ ]	/* CallFunction */";
};
width = 202;
}
);
note = Idieresis;
unicode = 207;
},
{
glyphname = Eth;
layers = (
{
layerId = m01;
shapes = (
{
closed = 1;
nodes = (
(24,244,o),
(26,253,qs),
(35,307,ls),
(36,315,o),
(45,315,qs),
(96,315,l),
(136,547,ls),
(138,556,o),
(146,556,qs),
(297,556,ls),
(396,556,o),
(456,505,qs),
(525,447,o),
(525,339,qs),
(525,199,o),
(454,109,qs),
(368,0,o),
(211,0,qs),
(48,0,ls),
(40,0,o),
(42,9,qs),
(83,244,l),
(32,244,ls)
);
},
{
closed = 1;
nodes = (
(318,71,o),
(378,132,qs),
(447,202,o),
(447,330,qs),
(447,485,o),
(281,485,qs),
(199,485,l),
(169,315,l),
(293,315,ls),
(337,315,o),
(329,272,qs),
(326,256,ls),
(324,244,o),
(313,244,qs),
(157,244,l),
(126,71,l),
(220,71,ls)
);
}
);
userData = {
assembly = "NPUSHB[ ]	/* 57 values pushed */
5 1 2 4 8 2 3 7 2 3 105 0 6 6 1 95 0 1 1 39 77 9 1 7 7 0 95 0 0 0 40 0 78 23 23 0 0 23 39 23 38 34 32 31 29 26 24 0 22 0 21 34 54 50 10 9 25 
CALL[ ]	/* CallFunction */";
};
width = 558;
}
);
note = Eth;
unicode = 208;
},
{
glyphname = Ntilde;
kernRight = N;
layers = (
{
layerId = m01;
shapes = (
{
closed = 1;
nodes = (
(440,556,o),
(447,556,qs),
(453,556,ls),
(511,556,o),
(499,485,qs),
(415,9,ls),
(414,0,o),
(406,0,qs),
(358,0,ls),
(344,0,o),
(339,13,qs),
(172,412,l),
(101,9,ls),
(100,0,o),
(92,0,qs),
(34,0,ls),
(26,0,o),
(28,9,qs),
(123,547,ls),
(124,556,o),
(132,556,qs),
(149,556,ls),
(174,556,o),
(198,538,o),
(209,511,qs),
(366,138,l),
(438,547,ls)
);
},
{
closed = 1;
nodes = (
(345,608,qs),
(327,608,o),
(294,624,qs),
(267,636,o),
(256,636,qs),
(241,636,o),
(234,617,qs),
(231,607,o),
(224,607,qs),
(190,607,ls),
(182,607,o),
(184,616,qs),
(201,691,o),
(256,691,qs),
(277,691,o),
(311,675,qs),
(338,662,o),
(350,662,qs),
(365,662,o),
(373,679,q),
(376,689,o),
(385,689,qs),
(419,689,ls),
(426,689,o),
(425,681,q),
(405,608,o)
);
}
);
userData = {
assembly = "NPUSHB[ ]	/* 51 values pushed */
14 1 1 0 1 76 6 1 4 0 8 7 4 8 105 0 5 9 1 7 0 5 7 106 3 1 0 0 39 77 2 1 1 1 40 1 78 52 50 34 50 34 34 51 51 52 51 51 10 9 31 
CALL[ ]	/* CallFunction */";
};
width = 516;
}
);
note = Ntilde;
unicode = 209;
},
{
glyphname = Ograve;
kernLeft = O;
kernRight = O;
layers = (
{
layerId = m01;
shapes = (
{
closed = 1;
nodes = (
(134,451,qs),
(226,567,o),
(357,567,qs),
(442,567,o),
(495,515,qs),
(557,456,o),
(557,347,qs),
(557,214,o),
(487,114,qs),
(401,-10,o),
(259,-10,qs),
(170,-10,o),
(116,42,qs),
(54,103,o),
(54,219,qs),
(54,350,o)
);
},
{
closed = 1;
nodes = (
(263,62,qs),
(351,62,o),
(411,133,qs),
(480,214,o),
(480,347,qs),
(480,495,o),
(346,495,qs),
(265,495,o),
(204,424,qs),
(131,341,o),
(131,219,qs),
(132,62,o)
);
},
{
closed = 1;
nodes = (
(416,608,o),
(412,608,qs),
(361,608,ls),
(345,608,o),
(335,619,qs),
(267,684,l),
(265,687,o),
(269,693,o),
(273,693,qs),
(336,693,ls),
(348,693,o),
(358,684,q),
(417,617,l),
(420,615,o)
);
}
);
userData = {
assembly = "MPPEM[ ]	/* MeasurePixelPerEm */
PUSHB[ ]	/* 1 value pushed */
35 
LT[ ]	/* LessThan */
IF[ ]	/* If */
NPUSHB[ ]	/* 29 values pushed */
0 4 0 5 1 4 5 105 0 2 2 1 97 0 1 1 39 77 0 3 3 0 97 0 0 0 46 0 78 
ELSE[ ]	/* Else */
NPUSHB[ ]	/* 27 values pushed */
0 4 0 5 1 4 5 105 0 1 0 2 3 1 2 105 0 3 3 0 97 0 0 0 46 0 78 
EIF[ ]	/* EndIf */
NPUSHB[ ]	/* 9 values pushed */
37 35 36 38 38 35 6 9 28 
CALL[ ]	/* CallFunction */";
};
width = 592;
}
);
note = Ograve;
unicode = 210;
},
{
glyphname = Oacute;
kernLeft = O;
kernRight = O;
layers = (
{
layerId = m01;
shapes = (
{
closed = 1;
nodes = (
(134,451,qs),
(226,567,o),
(357,567,qs),
(442,567,o),
(495,515,qs),
(557,456,o),
(557,347,qs),
(557,214,o),
(487,114,qs),
(401,-10,o),
(259,-10,qs),
(170,-10,o),
(116,42,qs),
(54,103,o),
(54,219,qs),
(54,350,o)
);
},
{
closed = 1;
nodes = (
(263,62,qs),
(351,62,o),
(411,133,qs),
(480,214,o),
(480,347,qs),
(480,495,o),
(346,495,qs),
(265,495,o),
(204,424,qs),
(131,341,o),
(131,219,qs),
(132,62,o)
);
},
{
closed = 1;
nodes = (
(358,693,o),
(370,693,qs),
(434,693,ls),
(438,693,o),
(440,687,o),
(436,684,qs),
(346,619,ls),
(331,608,o),
(316,608,qs),
(265,608,ls),
(260,608,o),
(259,615,o),
(262,617,qs),
(345,684,l)
);
}
);
userData = {
assembly = "MPPEM[ ]	/* MeasurePixelPerEm */
PUSHB[ ]	/* 1 value pushed */
35 
LT[ ]	/* LessThan */
IF[ ]	/* If */
NPUSHB[ ]	/* 31 values pushed */
0 5 4 5 133 0 4 1 4 133 0 2 2 1 97 0 1 1 39 77 0 3 3 0 97 0 0 0 46 0 78 
ELSE[ ]	/* Else */
NPUSHB[ ]	/* 29 values pushed */
0 5 4 5 133 0 4 1 4 133 0 1 0 2 3 1 2 106 0 3 3 0 97 0 0 0 46 0 78 
EIF[ ]	/* EndIf */
NPUSHB[ ]	/* 9 values pushed */
52 51 36 38 38 35 6 9 28 
CALL[ ]	/* CallFunction */";
};
width = 592;
}
);
note = Oacute;
unicode = 211;
},
{
glyphname = Ocircumflex;
kernLeft = O;
kernRight = O;
layers = (
{
layerId = m01;
shapes = (
{
closed = 1;
nodes = (
(134,451,qs),
(226,567,o),
(357,567,qs),
(442,567,o),
(495,515,qs),
(557,456,o),
(557,347,qs),
(557,214,o),
(487,114,qs),
(401,-10,o),
(259,-10,qs),
(170,-10,o),
(116,42,qs),
(54,103,o),
(54,219,qs),
(54,350,o)
);
},
{
closed = 1;
nodes = (
(263,62,qs),
(351,62,o),
(411,133,qs),
(480,214,o),
(480,347,qs),
(480,495,o),
(346,495,qs),
(265,495,o),
(204,424,qs),
(131,341,o),
(131,219,qs),
(132,62,o)
);
},
{
closed = 1;
nodes = (
(288,608,o),
(270,608,qs),
(223,608,ls),
(219,608,o),
(217,615,o),
(221,617,q),
(299,684,ls),
(310,693,o),
(325,693,qs),
(377,693,ls),
(390,693,o),
(398,684,qs),
(454,617,l),
(460,608,o),
(448,608,qs),
(405,608,ls),
(388,608,o),
(380,620,qs),
(347,663,l),
(300,620,ls)
);
}
);
userData = {
assembly = "MPPEM[ ]	/* MeasurePixelPerEm */
PUSHB[ ]	/* 1 value pushed */
35 
LT[ ]	/* LessThan */
IF[ ]	/* If */
NPUSHB[ ]	/* 32 values pushed */
0 5 4 5 133 6 1 4 1 4 133 0 2 2 1 97 0 1 1 39 77 0 3 3 0 97 0 0 0 46 0 78 
ELSE[ ]	/* Else */
NPUSHB[ ]	/* 30 values pushed */
0 5 4 5 133 6 1 4 1 4 133 0 1 0 2 3 1 2 106 0 3 3 0 97 0 0 0 46 0 78 
EIF[ ]	/* EndIf */
NPUSHB[ ]	/* 10 values pushed */
52 51 51 36 38 38 35 7 9 29 
CALL[ ]	/* CallFunction */";
};
width = 592;
}
);
note = Ocircumflex;
unicode = 212;
},
{
glyphname = Otilde;
kernLeft = O;
kernRight = O;
layers = (
{
layerId = m01;
shapes = (
{
closed = 1;
nodes = (
(134,451,qs),
(226,567,o),
(357,567,qs),
(442,567,o),
(495,515,qs),
(557,456,o),
(557,347,qs),
(557,214,o),
(487,114,qs),
(401,-10,o),
(259,-10,qs),
(170,-10,o),
(116,42,qs),
(54,103,o),
(54,219,qs),
(54,350,o)
);
},
{
closed = 1;
nodes = (
(263,62,qs),
(351,62,o),
(411,133,qs),
(480,214,o),
(480,347,qs),
(480,495,o),
(346,495,qs),
(265,495,o),
(204,424,qs),
(131,341,o),
(131,219,qs),
(132,62,o)
);
},
{
closed = 1;
nodes = (
(385,608,qs),
(366,608,o),
(333,624,qs),
(306,636,o),
(296,636,qs),
(280,636,o),
(273,617,qs),
(270,607,o),
(263,607,qs),
(229,607,ls),
(221,607,o),
(223,616,qs),
(240,691,o),
(296,691,qs),
(316,691,o),
(350,675,qs),
(377,662,o),
(389,662,qs),
(404,662,o),
(412,679,qs),
(416,689,o),
(424,689,qs),
(458,689,ls),
(465,689,o),
(464,681,q),
(444,608,o)
);
}
);
userData = {
assembly = "MPPEM[ ]	/* MeasurePixelPerEm */
PUSHB[ ]	/* 1 value pushed */
35 
LT[ ]	/* LessThan */
IF[ ]	/* If */
NPUSHB[ ]	/* 39 values pushed */
6 1 4 0 8 7 4 8 105 0 5 9 1 7 1 5 7 106 0 2 2 1 97 0 1 1 39 77 0 3 3 0 97 0 0 0 46 0 78 
ELSE[ ]	/* Else */
NPUSHB[ ]	/* 37 values pushed */
6 1 4 0 8 7 4 8 105 0 5 9 1 7 1 5 7 106 0 1 0 2 3 1 2 105 0 3 3 0 97 0 0 0 46 0 78 
EIF[ ]	/* EndIf */
NPUSHB[ ]	/* 14 values pushed */
53 51 34 50 34 34 50 36 38 38 35 10 9 31 
CALL[ ]	/* CallFunction */";
};
width = 592;
}
);
note = Otilde;
unicode = 213;
},
{
glyphname = Odieresis;
kernLeft = O;
kernRight = O;
layers = (
{
layerId = m01;
shapes = (
{
closed = 1;
nodes = (
(134,451,qs),
(226,567,o),
(357,567,qs),
(442,567,o),
(495,515,qs),
(557,456,o),
(557,347,qs),
(557,214,o),
(487,114,qs),
(401,-10,o),
(259,-10,qs),
(170,-10,o),
(116,42,qs),
(54,103,o),
(54,219,qs),
(54,350,o)
);
},
{
closed = 1;
nodes = (
(263,62,qs),
(351,62,o),
(411,133,qs),
(480,214,o),
(480,347,qs),
(480,495,o),
(346,495,qs),
(265,495,o),
(204,424,qs),
(131,341,o),
(131,219,qs),
(132,62,o)
);
},
{
closed = 1;
nodes = (
(264,691,o),
(285,691,qs),
(323,691,o),
(323,654,qs),
(323,631,o),
(292,600,o),
(270,600,qs),
(234,600,o),
(233,638,qs),
(233,659,o)
);
},
{
closed = 1;
nodes = (
(396,691,o),
(417,691,qs),
(455,691,o),
(455,654,qs),
(455,631,o),
(424,600,o),
(402,600,qs),
(367,600,o),
(366,638,qs),
(366,659,o)
);
}
);
userData = {
assembly = "MPPEM[ ]	/* MeasurePixelPerEm */
PUSHB[ ]	/* 1 value pushed */
35 
LT[ ]	/* LessThan */
IF[ ]	/* If */
NPUSHB[ ]	/* 31 values pushed */
7 1 5 6 1 4 1 5 4 105 0 2 2 1 97 0 1 1 39 77 0 3 3 0 97 0 0 0 46 0 78 
ELSE[ ]	/* Else */
NPUSHB[ ]	/* 29 values pushed */
7 1 5 6 1 4 1 5 4 105 0 1 0 2 3 1 2 105 0 3 3 0 97 0 0 0 46 0 78 
EIF[ ]	/* EndIf */
NPUSHB[ ]	/* 11 values pushed */
35 35 35 34 36 38 38 35 8 9 30 
CALL[ ]	/* CallFunction */";
};
width = 592;
}
);
note = Odieresis;
unicode = 214;
},
{
glyphname = multiply;
layers = (
{
layerId = m01;
shapes = (
{
closed = 1;
nodes = (
(43,392,o),
(48,398,q),
(69,418,o),
(104,416,o),
(127,393,qs),
(204,317,l),
(310,422,ls),
(315,427,o),
(320,422,qs),
(351,392,ls),
(357,386,o),
(351,379,qs),
(247,274,l),
(358,162,ls),
(364,156,o),
(358,150,qs),
(337,129,o),
(303,131,o),
(278,155,qs),
(203,232,l),
(98,126,ls),
(92,120,o),
(86,126,qs),
(55,156,l),
(48,161,o),
(55,168,qs),
(161,274,l),
(49,386,ls)
);
}
);
userData = {
assembly = "NPUSHB[ ]	/* 22 values pushed */
21 14 7 3 0 1 1 76 0 1 0 1 133 0 0 0 118 29 25 2 9 24 
CALL[ ]	/* CallFunction */";
};
width = 403;
}
);
note = multiply;
unicode = 215;
},
{
glyphname = Oslash;
kernLeft = O;
kernRight = O;
layers = (
{
layerId = m01;
shapes = (
{
closed = 1;
nodes = (
(393,495,o),
(346,495,qs),
(266,495,o),
(204,424,qs),
(132,341,o),
(132,219,qs),
(132,164,o),
(150,127,q),
(425,474,l)
);
},
{
closed = 1;
nodes = (
(218,62,o),
(263,62,qs),
(351,62,o),
(411,133,qs),
(480,214,o),
(480,347,qs),
(480,397,o),
(463,429,q),
(188,82,l)
);
},
{
closed = 1;
nodes = (
(116,42,qs),
(54,103,o),
(54,219,qs),
(54,350,o),
(134,451,qs),
(226,567,o),
(356,567,qs),
(443,567,o),
(496,515,qs),
(557,456,o),
(557,347,qs),
(557,214,o),
(488,114,qs),
(401,-10,o),
(259,-10,qs),
(170,-10,o)
);
}
);
userData = {
assembly = "PUSHB[ ]	/* 7 values pushed */
17 8 2 1 0 1 76 
MPPEM[ ]	/* MeasurePixelPerEm */
PUSHB[ ]	/* 1 value pushed */
35 
LT[ ]	/* LessThan */
IF[ ]	/* If */
NPUSHB[ ]	/* 22 values pushed */
0 0 0 3 97 0 3 3 39 77 0 1 1 2 97 4 1 2 2 46 2 78 
ELSE[ ]	/* Else */
NPUSHB[ ]	/* 20 values pushed */
0 3 0 0 1 3 0 105 0 1 1 2 97 4 1 2 2 46 2 78 
EIF[ ]	/* EndIf */
NPUSHB[ ]	/* 13 values pushed */
19 18 27 25 18 33 19 33 39 37 5 9 24 
CALL[ ]	/* CallFunction */";
};
width = 591;
}
);
note = Oslash;
unicode = 216;
},
{
glyphname = Ugrave;
kernLeft = U;
kernRight = U;
layers = (
{
layerId = m01;
shapes = (
{
closed = 1;
nodes = (
(112,47,qs),
(59,112,o),
(78,223,qs),
(135,547,ls),
(137,556,o),
(145,556,qs),
(151,556,ls),
(210,556,o),
(198,485,qs),
(151,221,ls),
(138,145,o),
(189,61,o),
(248,61,qs),
(364,61,o),
(391,213,qs),
(450,547,ls),
(451,556,o),
(459,556,qs),
(466,556,ls),
(524,556,o),
(512,485,qs),
(462,201,ls),
(445,107,o),
(395,52,qs),
(337,-10,o),
(243,-10,qs),
(158,-10,o)
);
},
{
closed = 1;
nodes = (
(374,608,o),
(370,608,qs),
(318,608,ls),
(303,608,o),
(293,619,qs),
(225,684,ls),
(222,687,o),
(226,693,o),
(231,693,qs),
(293,693,ls),
(306,693,o),
(316,684,q),
(375,617,l),
(378,615,o)
);
}
);
userData = {
assembly = "NPUSHB[ ]	/* 45 values pushed */
0 4 0 5 1 4 5 105 3 1 1 1 39 77 0 2 2 0 98 6 1 0 0 46 0 78 1 0 38 36 31 29 21 18 14 12 9 6 0 26 1 26 7 9 22 
CALL[ ]	/* CallFunction */";
};
width = 517;
}
);
note = Ugrave;
unicode = 217;
},
{
glyphname = Uacute;
kernLeft = U;
kernRight = U;
layers = (
{
layerId = m01;
shapes = (
{
closed = 1;
nodes = (
(112,47,qs),
(59,112,o),
(78,223,qs),
(135,547,ls),
(137,556,o),
(145,556,qs),
(151,556,ls),
(210,556,o),
(198,485,qs),
(151,221,ls),
(138,145,o),
(189,61,o),
(248,61,qs),
(364,61,o),
(391,213,qs),
(450,547,ls),
(451,556,o),
(459,556,qs),
(466,556,ls),
(524,556,o),
(512,485,qs),
(462,201,ls),
(445,107,o),
(395,52,qs),
(337,-10,o),
(243,-10,qs),
(158,-10,o)
);
},
{
closed = 1;
nodes = (
(327,693,o),
(340,693,qs),
(403,693,ls),
(408,693,o),
(409,687,o),
(406,684,q),
(315,619,ls),
(301,608,o),
(285,608,qs),
(234,608,ls),
(230,608,o),
(228,614,o),
(232,617,qs),
(315,684,ls)
);
}
);
userData = {
assembly = "NPUSHB[ ]	/* 47 values pushed */
0 5 4 5 133 0 4 1 4 133 3 1 1 1 39 77 0 2 2 0 98 6 1 0 0 46 0 78 1 0 39 36 32 29 21 18 14 12 9 6 0 26 1 26 7 9 22 
CALL[ ]	/* CallFunction */";
};
width = 517;
}
);
note = Uacute;
unicode = 218;
},
{
glyphname = Ucircumflex;
kernLeft = U;
kernRight = U;
layers = (
{
layerId = m01;
shapes = (
{
closed = 1;
nodes = (
(112,47,qs),
(59,112,o),
(78,223,qs),
(135,547,ls),
(137,556,o),
(145,556,qs),
(151,556,ls),
(210,556,o),
(198,485,qs),
(151,221,ls),
(138,145,o),
(189,61,o),
(248,61,qs),
(364,61,o),
(391,213,qs),
(450,547,ls),
(451,556,o),
(459,556,qs),
(466,556,ls),
(524,556,o),
(512,485,qs),
(462,201,ls),
(445,107,o),
(395,52,qs),
(337,-10,o),
(243,-10,qs),
(158,-10,o)
);
},
{
closed = 1;
nodes = (
(262,608,o),
(243,608,qs),
(196,608,ls),
(192,608,o),
(191,615,o),
(194,617,qs),
(272,684,ls),
(283,693,o),
(298,693,qs),
(350,693,ls),
(364,693,o),
(372,684,qs),
(427,617,l),
(433,608,o),
(422,608,qs),
(378,608,ls),
(362,608,o),
(353,620,qs),
(321,663,l),
(273,620,l)
);
}
);
userData = {
assembly = "NPUSHB[ ]	/* 50 values pushed */
0 5 4 5 133 6 1 4 1 4 133 3 1 1 1 39 77 0 2 2 0 98 7 1 0 0 46 0 78 1 0 45 42 38 35 32 29 21 18 14 12 9 6 0 26 1 26 8 9 22 
CALL[ ]	/* CallFunction */";
};
width = 517;
}
);
note = Ucircumflex;
unicode = 219;
},
{
glyphname = Udieresis;
kernLeft = U;
kernRight = U;
layers = (
{
layerId = m01;
shapes = (
{
closed = 1;
nodes = (
(112,47,qs),
(59,112,o),
(78,223,qs),
(135,547,ls),
(137,556,o),
(145,556,qs),
(151,556,ls),
(210,556,o),
(198,485,qs),
(151,221,ls),
(138,145,o),
(189,61,o),
(248,61,qs),
(364,61,o),
(391,213,qs),
(450,547,ls),
(451,556,o),
(459,556,qs),
(466,556,ls),
(524,556,o),
(512,485,qs),
(462,201,ls),
(445,107,o),
(395,52,qs),
(337,-10,o),
(243,-10,qs),
(158,-10,o)
);
},
{
closed = 1;
nodes = (
(234,691,o),
(255,691,qs),
(293,691,o),
(293,654,qs),
(293,631,o),
(262,600,o),
(240,600,qs),
(204,600,o),
(203,638,qs),
(203,659,o)
);
},
{
closed = 1;
nodes = (
(366,691,o),
(387,691,qs),
(425,691,o),
(425,654,qs),
(425,631,o),
(394,600,o),
(372,600,qs),
(337,600,o),
(336,638,qs),
(336,659,o)
);
}
);
userData = {
assembly = "NPUSHB[ ]	/* 51 values pushed */
7 1 5 6 1 4 1 5 4 105 3 1 1 1 39 77 0 2 2 0 98 8 1 0 0 46 0 78 1 0 45 43 40 38 35 33 30 28 21 18 14 12 9 6 0 26 1 26 9 9 22 
CALL[ ]	/* CallFunction */";
};
width = 517;
}
);
note = Udieresis;
unicode = 220;
},
{
glyphname = Yacute;
kernLeft = Y;
kernRight = Y;
layers = (
{
layerId = m01;
shapes = (
{
closed = 1;
nodes = (
(66,556,o),
(76,556,qs),
(96,556,ls),
(142,556,o),
(159,506,qs),
(235,286,l),
(412,544,l),
(419,556,o),
(431,556,qs),
(488,556,ls),
(499,556,o),
(491,544,qs),
(258,213,l),
(222,9,ls),
(221,0,o),
(213,0,qs),
(156,0,ls),
(148,0,o),
(150,9,qs),
(186,213,l),
(68,547,l)
);
},
{
closed = 1;
nodes = (
(291,693,o),
(304,693,qs),
(368,693,ls),
(372,693,o),
(373,687,o),
(370,684,q),
(279,619,ls),
(265,608,o),
(249,608,qs),
(198,608,ls),
(194,608,o),
(192,614,o),
(196,617,qs),
(279,684,ls)
);
}
);
userData = {
assembly = "NPUSHB[ ]	/* 36 values pushed */
14 1 0 1 1 76 0 4 3 4 133 0 3 1 3 133 2 1 1 1 39 77 0 0 0 40 0 78 52 52 52 52 50 5 9 27 
CALL[ ]	/* CallFunction */";
};
width = 432;
}
);
note = Yacute;
unicode = 221;
},
{
glyphname = Thorn;
layers = (
{
layerId = m01;
shapes = (
{
closed = 1;
nodes = (
(99,0,o),
(90,0,qs),
(33,0,ls),
(26,0,o),
(27,9,qs),
(121,547,ls),
(123,556,o),
(131,556,qs),
(138,556,ls),
(195,556,o),
(184,485,qs),
(179,455,l),
(293,455,ls),
(361,455,o),
(405,422,qs),
(458,382,o),
(458,306,qs),
(458,220,o),
(406,165,qs),
(346,102,o),
(242,102,qs),
(116,102,l),
(100,9,ls)
);
},
{
closed = 1;
nodes = (
(312,173,o),
(383,239,o),
(383,298,qs),
(383,338,o),
(333,384,o),
(291,384,qs),
(166,384,l),
(128,173,l),
(250,173,ls)
);
}
);
userData = {
assembly = "NPUSHB[ ]	/* 42 values pushed */
0 1 0 4 5 1 4 104 6 1 5 0 0 3 5 0 103 0 2 2 39 77 0 3 3 40 3 78 23 23 23 31 23 30 35 51 50 38 32 7 9 27 
CALL[ ]	/* CallFunction */";
};
width = 477;
}
);
note = Thorn;
unicode = 222;
},
{
glyphname = germandbls;
layers = (
{
layerId = m01;
shapes = (
{
closed = 1;
nodes = (
(15,9,qs),
(85,407,ls),
(97,477,o),
(141,520,qs),
(189,567,o),
(261,567,qs),
(321,567,o),
(395,510,o),
(395,462,qs),
(395,421,o),
(336,360,qs),
(287,310,o),
(287,290,qs),
(287,268,o),
(325,237,qs),
(368,203,o),
(396,160,o),
(396,130,qs),
(396,74,o),
(360,35,qs),
(318,-10,o),
(253,-10,qs),
(205,-10,o),
(140,40,o),
(140,77,qs),
(140,103,o),
(155,103,qs),
(158,103,o),
(162,98,qs),
(198,53,o),
(247,53,qs),
(280,53,o),
(320,87,o),
(320,114,qs),
(320,143,o),
(273,181,qs),
(215,228,o),
(215,271,qs),
(215,312,o),
(262,362,qs),
(301,404,o),
(319,431,o),
(319,451,qs),
(319,501,o),
(253,501,qs),
(217,501,o),
(165,450,o),
(157,404,qs),
(88,9,ls),
(86,0,o),
(78,0,qs),
(21,0,ls),
(13,0,o)
);
}
);
userData = {
assembly = "MPPEM[ ]	/* MeasurePixelPerEm */
PUSHB[ ]	/* 1 value pushed */
18 
LT[ ]	/* LessThan */
IF[ ]	/* If */
NPUSHB[ ]	/* 31 values pushed */
0 3 1 2 1 3 2 128 0 1 1 5 97 0 5 5 39 77 0 2 2 0 97 4 6 2 0 0 40 0 78 
ELSE[ ]	/* Else */
MPPEM[ ]	/* MeasurePixelPerEm */
PUSHB[ ]	/* 1 value pushed */
35 
LT[ ]	/* LessThan */
IF[ ]	/* If */
NPUSHB[ ]	/* 35 values pushed */
0 3 1 2 1 3 2 128 0 1 1 5 97 0 5 5 39 77 6 1 0 0 40 77 0 2 2 4 97 0 4 4 46 4 78 
ELSE[ ]	/* Else */
NPUSHB[ ]	/* 33 values pushed */
0 3 1 2 1 3 2 128 0 5 0 1 3 5 1 105 6 1 0 0 40 77 0 2 2 4 97 0 4 4 46 4 78 
EIF[ ]	/* EndIf */
EIF[ ]	/* EndIf */
NPUSHB[ ]	/* 19 values pushed */
2 0 47 45 31 29 26 24 22 20 8 6 0 52 2 52 7 9 22 
CALL[ ]	/* CallFunction */";
};
width = 444;
}
);
note = germandbls;
unicode = 223;
},
{
glyphname = agrave;
kernLeft = a;
layers = (
{
layerId = m01;
shapes = (
{
closed = 1;
nodes = (
(164,-9,qs),
(106,-9,o),
(69,29,qs),
(27,73,o),
(27,148,qs),
(26,237,o),
(81,302,qs),
(144,377,o),
(234,377,qs),
(314,377,o),
(344,319,q),
(361,368,o),
(408,368,qs),
(413,368,ls),
(421,368,o),
(419,360,qs),
(358,9,ls),
(356,0,o),
(348,0,qs),
(292,0,ls),
(284,0,o),
(285,9,qs),
(293,52,l),
(242,-9,o)
);
},
{
closed = 1;
nodes = (
(183,59,qs),
(243,59,o),
(280,103,qs),
(319,148,o),
(319,218,qs),
(319,308,o),
(234,308,qs),
(178,308,o),
(141,264,qs),
(101,217,o),
(102,152,qs),
(103,59,o)
);
},
{
closed = 1;
nodes = (
(328,431,o),
(324,431,qs),
(273,431,ls),
(257,431,o),
(247,441,qs),
(179,507,ls),
(177,509,o),
(181,516,o),
(185,516,qs),
(248,516,ls),
(260,516,o),
(270,506,qs),
(329,439,l),
(332,437,o)
);
}
);
userData = {
assembly = "PUSHB[ ]	/* 6 values pushed */
12 1 4 1 1 76 
MPPEM[ ]	/* MeasurePixelPerEm */
PUSHB[ ]	/* 1 value pushed */
20 
LT[ ]	/* LessThan */
IF[ ]	/* If */
NPUSHB[ ]	/* 31 values pushed */
0 6 0 7 1 6 7 105 0 4 4 1 97 2 1 1 1 42 77 0 5 5 0 97 3 1 0 0 40 0 78 
ELSE[ ]	/* Else */
NPUSHB[ ]	/* 39 values pushed */
0 6 0 7 2 6 7 105 0 1 1 42 77 0 4 4 2 97 0 2 2 48 77 0 0 0 40 77 0 5 5 3 97 0 3 3 49 3 78 
EIF[ ]	/* EndIf */
NPUSHB[ ]	/* 11 values pushed */
37 35 36 36 38 34 51 50 8 9 30 
CALL[ ]	/* CallFunction */";
};
width = 449;
}
);
note = agrave;
unicode = 224;
},
{
glyphname = aacute;
kernLeft = a;
layers = (
{
layerId = m01;
shapes = (
{
closed = 1;
nodes = (
(164,-9,qs),
(106,-9,o),
(69,29,qs),
(27,73,o),
(27,148,qs),
(26,237,o),
(81,302,qs),
(144,377,o),
(234,377,qs),
(314,377,o),
(344,319,q),
(361,368,o),
(408,368,qs),
(413,368,ls),
(421,368,o),
(419,360,qs),
(358,9,ls),
(356,0,o),
(348,0,qs),
(292,0,ls),
(284,0,o),
(285,9,qs),
(293,52,l),
(242,-9,o)
);
},
{
closed = 1;
nodes = (
(183,59,qs),
(243,59,o),
(280,103,qs),
(319,148,o),
(319,218,qs),
(319,308,o),
(234,308,qs),
(178,308,o),
(141,264,qs),
(101,217,o),
(102,152,qs),
(103,59,o)
);
},
{
closed = 1;
nodes = (
(281,516,o),
(293,516,qs),
(357,516,ls),
(361,516,o),
(363,509,o),
(359,507,q),
(269,441,ls),
(254,431,o),
(239,431,qs),
(188,431,ls),
(183,431,o),
(182,437,o),
(185,439,qs),
(268,506,ls)
);
}
);
userData = {
assembly = "PUSHB[ ]	/* 6 values pushed */
12 1 4 1 1 76 
MPPEM[ ]	/* MeasurePixelPerEm */
PUSHB[ ]	/* 1 value pushed */
20 
LT[ ]	/* LessThan */
IF[ ]	/* If */
NPUSHB[ ]	/* 33 values pushed */
0 7 6 7 133 0 6 1 6 133 0 4 4 1 97 2 1 1 1 42 77 0 5 5 0 97 3 1 0 0 40 0 78 
ELSE[ ]	/* Else */
NPUSHB[ ]	/* 41 values pushed */
0 7 6 7 133 0 6 2 6 133 0 1 1 42 77 0 4 4 2 97 0 2 2 48 77 0 0 0 40 77 0 5 5 3 97 0 3 3 49 3 78 
EIF[ ]	/* EndIf */
NPUSHB[ ]	/* 11 values pushed */
52 51 36 36 38 34 51 50 8 9 30 
CALL[ ]	/* CallFunction */";
};
width = 449;
}
);
note = aacute;
unicode = 225;
},
{
glyphname = acircumflex;
kernLeft = a;
layers = (
{
layerId = m01;
shapes = (
{
closed = 1;
nodes = (
(164,-9,qs),
(106,-9,o),
(69,29,qs),
(27,73,o),
(27,148,qs),
(26,237,o),
(81,302,qs),
(144,377,o),
(234,377,qs),
(314,377,o),
(344,319,q),
(361,368,o),
(408,368,qs),
(413,368,ls),
(421,368,o),
(419,360,qs),
(358,9,ls),
(356,0,o),
(348,0,qs),
(292,0,ls),
(284,0,o),
(285,9,qs),
(293,52,l),
(242,-9,o)
);
},
{
closed = 1;
nodes = (
(183,59,qs),
(243,59,o),
(280,103,qs),
(319,148,o),
(319,218,qs),
(319,308,o),
(234,308,qs),
(178,308,o),
(141,264,qs),
(101,217,o),
(102,152,qs),
(103,59,o)
);
},
{
closed = 1;
nodes = (
(214,431,o),
(195,431,qs),
(148,431,ls),
(144,431,o),
(143,437,o),
(146,439,qs),
(224,506,ls),
(235,516,o),
(250,516,qs),
(302,516,ls),
(316,516,o),
(324,506,qs),
(379,439,ls),
(385,431,o),
(374,431,qs),
(330,431,ls),
(314,431,o),
(305,442,qs),
(273,485,l),
(225,442,ls)
);
}
);
userData = {
assembly = "PUSHB[ ]	/* 6 values pushed */
12 1 4 1 1 76 
MPPEM[ ]	/* MeasurePixelPerEm */
PUSHB[ ]	/* 1 value pushed */
20 
LT[ ]	/* LessThan */
IF[ ]	/* If */
NPUSHB[ ]	/* 34 values pushed */
0 7 6 7 133 8 1 6 1 6 133 0 4 4 1 97 2 1 1 1 42 77 0 5 5 0 97 3 1 0 0 40 0 78 
ELSE[ ]	/* Else */
NPUSHB[ ]	/* 42 values pushed */
0 7 6 7 133 8 1 6 2 6 133 0 1 1 42 77 0 4 4 2 97 0 2 2 48 77 0 0 0 40 77 0 5 5 3 97 0 3 3 49 3 78 
EIF[ ]	/* EndIf */
NPUSHB[ ]	/* 12 values pushed */
52 51 51 36 36 38 34 51 50 9 9 31 
CALL[ ]	/* CallFunction */";
};
width = 449;
}
);
note = acircumflex;
unicode = 226;
},
{
glyphname = atilde;
kernLeft = a;
layers = (
{
layerId = m01;
shapes = (
{
closed = 1;
nodes = (
(164,-9,qs),
(106,-9,o),
(69,29,qs),
(27,73,o),
(27,148,qs),
(26,237,o),
(81,302,qs),
(144,377,o),
(234,377,qs),
(314,377,o),
(344,319,q),
(361,368,o),
(408,368,qs),
(413,368,ls),
(421,368,o),
(419,360,qs),
(358,9,ls),
(356,0,o),
(348,0,qs),
(292,0,ls),
(284,0,o),
(285,9,qs),
(293,52,l),
(242,-9,o)
);
},
{
closed = 1;
nodes = (
(183,59,qs),
(243,59,o),
(280,103,qs),
(319,148,o),
(319,218,qs),
(319,308,o),
(234,308,qs),
(178,308,o),
(141,264,qs),
(101,217,o),
(102,152,qs),
(103,59,o)
);
},
{
closed = 1;
nodes = (
(311,431,qs),
(293,431,o),
(260,446,qs),
(233,458,o),
(222,458,qs),
(206,458,o),
(200,439,qs),
(197,429,o),
(189,429,qs),
(155,429,ls),
(148,429,o),
(149,438,q),
(167,513,o),
(222,513,qs),
(243,513,o),
(276,497,qs),
(304,484,o),
(315,484,qs),
(331,484,o),
(338,502,qs),
(342,512,o),
(350,512,qs),
(384,512,ls),
(391,512,o),
(390,503,q),
(370,431,o)
);
}
);
userData = {
assembly = "PUSHB[ ]	/* 6 values pushed */
12 1 4 1 1 76 
MPPEM[ ]	/* MeasurePixelPerEm */
PUSHB[ ]	/* 1 value pushed */
20 
LT[ ]	/* LessThan */
IF[ ]	/* If */
NPUSHB[ ]	/* 41 values pushed */
8 1 6 0 10 9 6 10 105 0 7 11 1 9 1 7 9 106 0 4 4 1 97 2 1 1 1 42 77 0 5 5 0 97 3 1 0 0 40 0 78 
ELSE[ ]	/* Else */
NPUSHB[ ]	/* 49 values pushed */
8 1 6 0 10 9 6 10 105 0 7 11 1 9 2 7 9 106 0 1 1 42 77 0 4 4 2 97 0 2 2 48 77 0 0 0 40 77 0 5 5 3 97 0 3 3 49 3 78 
EIF[ ]	/* EndIf */
NPUSHB[ ]	/* 18 values pushed */
61 59 57 55 53 50 34 34 50 36 36 38 34 51 50 12 9 31 
CALL[ ]	/* CallFunction */";
};
width = 449;
}
);
note = atilde;
unicode = 227;
},
{
glyphname = adieresis;
kernLeft = a;
layers = (
{
layerId = m01;
shapes = (
{
closed = 1;
nodes = (
(164,-9,qs),
(106,-9,o),
(69,29,qs),
(27,73,o),
(27,148,qs),
(26,237,o),
(81,302,qs),
(144,377,o),
(234,377,qs),
(314,377,o),
(344,319,q),
(361,368,o),
(408,368,qs),
(413,368,ls),
(421,368,o),
(419,360,qs),
(358,9,ls),
(356,0,o),
(348,0,qs),
(292,0,ls),
(284,0,o),
(285,9,qs),
(293,52,l),
(242,-9,o)
);
},
{
closed = 1;
nodes = (
(183,59,qs),
(243,59,o),
(280,103,qs),
(319,148,o),
(319,218,qs),
(319,308,o),
(234,308,qs),
(178,308,o),
(141,264,qs),
(101,217,o),
(102,152,qs),
(103,59,o)
);
},
{
closed = 1;
nodes = (
(182,513,o),
(203,513,qs),
(241,513,o),
(241,476,qs),
(241,454,o),
(209,422,o),
(188,422,qs),
(152,422,o),
(151,460,qs),
(151,482,o)
);
},
{
closed = 1;
nodes = (
(314,513,o),
(335,513,qs),
(373,513,o),
(373,476,qs),
(372,454,o),
(342,422,o),
(320,422,qs),
(284,422,o),
(283,460,qs),
(283,482,o)
);
}
);
userData = {
assembly = "PUSHB[ ]	/* 6 values pushed */
12 1 4 1 1 76 
MPPEM[ ]	/* MeasurePixelPerEm */
PUSHB[ ]	/* 1 value pushed */
20 
LT[ ]	/* LessThan */
IF[ ]	/* If */
NPUSHB[ ]	/* 33 values pushed */
9 1 7 8 1 6 1 7 6 105 0 4 4 1 97 2 1 1 1 42 77 0 5 5 0 97 3 1 0 0 40 0 78 
ELSE[ ]	/* Else */
NPUSHB[ ]	/* 41 values pushed */
9 1 7 8 1 6 2 7 6 105 0 1 1 42 77 0 4 4 2 97 0 2 2 48 77 0 0 0 40 77 0 5 5 3 97 0 3 3 49 3 78 
EIF[ ]	/* EndIf */
NPUSHB[ ]	/* 14 values pushed */
54 52 35 35 34 36 36 38 34 51 50 10 9 31 
CALL[ ]	/* CallFunction */";
};
width = 449;
}
);
note = adieresis;
unicode = 228;
},
{
glyphname = aring;
kernLeft = a;
layers = (
{
layerId = m01;
shapes = (
{
closed = 1;
nodes = (
(164,-9,qs),
(106,-9,o),
(69,29,qs),
(27,73,o),
(27,148,qs),
(26,237,o),
(81,302,qs),
(144,377,o),
(234,377,qs),
(314,377,o),
(344,319,q),
(361,368,o),
(408,368,qs),
(413,368,ls),
(421,368,o),
(419,360,qs),
(358,9,ls),
(356,0,o),
(348,0,qs),
(292,0,ls),
(284,0,o),
(285,9,qs),
(293,52,l),
(242,-9,o)
);
},
{
closed = 1;
nodes = (
(183,59,qs),
(243,59,o),
(280,103,qs),
(319,148,o),
(319,218,qs),
(319,308,o),
(234,308,qs),
(178,308,o),
(141,264,qs),
(101,217,o),
(102,152,qs),
(103,59,o)
);
},
{
closed = 1;
nodes = (
(244,559,o),
(277,559,qs),
(303,559,o),
(337,526,o),
(337,501,qs),
(336,467,o),
(290,419,o),
(258,419,qs),
(230,419,o),
(197,454,o),
(197,481,qs),
(198,514,o)
);
},
{
closed = 1;
nodes = (
(261,455,qs),
(300,455,o),
(299,496,qs),
(299,524,o),
(273,524,qs),
(257,524,o),
(235,500,o),
(235,483,qs),
(235,455,o)
);
}
);
userData = {
assembly = "PUSHB[ ]	/* 6 values pushed */
12 1 4 1 1 76 
MPPEM[ ]	/* MeasurePixelPerEm */
PUSHB[ ]	/* 1 value pushed */
20 
LT[ ]	/* LessThan */
IF[ ]	/* If */
NPUSHB[ ]	/* 41 values pushed */
0 9 0 6 1 9 6 105 0 8 8 7 97 0 7 7 39 77 0 4 4 1 97 2 1 1 1 42 77 0 5 5 0 97 3 1 0 0 40 0 78 
ELSE[ ]	/* Else */
NPUSHB[ ]	/* 49 values pushed */
0 9 0 6 2 9 6 105 0 8 8 7 97 0 7 7 39 77 0 1 1 42 77 0 4 4 2 97 0 2 2 48 77 0 0 0 40 77 0 5 5 3 97 0 3 3 49 3 78 
EIF[ ]	/* EndIf */
NPUSHB[ ]	/* 14 values pushed */
56 54 36 36 35 36 36 38 34 51 50 10 9 31 
CALL[ ]	/* CallFunction */";
};
width = 449;
}
);
note = aring;
unicode = 229;
},
{
glyphname = ae;
kernLeft = a;
kernRight = e;
layers = (
{
layerId = m01;
shapes = (
{
closed = 1;
nodes = (
(356,0,o),
(348,0,qs),
(294,0,ls),
(286,0,o),
(287,9,qs),
(295,52,l),
(244,-9,o),
(165,-9,qs),
(108,-9,o),
(71,29,qs),
(28,73,o),
(28,148,qs),
(28,237,o),
(83,302,qs),
(146,377,o),
(237,377,qs),
(315,377,o),
(346,319,q),
(362,368,o),
(410,368,qs),
(412,368,ls),
(421,368,o),
(420,360,qs),
(412,318,l),
(465,377,o),
(546,377,qs),
(606,377,o),
(677,307,o),
(677,247,qs),
(677,214,o),
(665,171,qs),
(661,159,o),
(648,159,qs),
(407,159,l),
(401,54,o),
(508,54,qs),
(564,54,o),
(624,93,qs),
(625,94,ls),
(636,101,o),
(639,101,qs),
(647,101,o),
(647,92,qs),
(647,58,o),
(609,28,qs),
(560,-9,o),
(490,-9,qs),
(397,-9,o),
(367,66,q),
(358,9,ls)
);
},
{
closed = 1;
nodes = (
(283,103,qs),
(321,148,o),
(321,218,qs),
(321,308,o),
(236,308,qs),
(180,308,o),
(143,264,qs),
(104,217,o),
(104,152,qs),
(104,108,o),
(147,59,o),
(185,59,qs),
(245,59,o)
);
},
{
closed = 1;
nodes = (
(606,231,o),
(606,239,qs),
(606,313,o),
(535,313,qs),
(446,313,o),
(419,214,q),
(604,214,l)
);
}
);
userData = {
assembly = "MPPEM[ ]	/* MeasurePixelPerEm */
PUSHB[ ]	/* 1 value pushed */
20 
LT[ ]	/* LessThan */
IF[ ]	/* If */
NPUSHB[ ]	/* 11 values pushed */
31 25 2 10 4 43 1 0 2 2 76 
ELSE[ ]	/* Else */
MPPEM[ ]	/* MeasurePixelPerEm */
PUSHB[ ]	/* 1 value pushed */
37 
LT[ ]	/* LessThan */
IF[ ]	/* If */
NPUSHB[ ]	/* 11 values pushed */
31 25 2 10 5 43 1 8 2 2 76 
ELSE[ ]	/* Else */
NPUSHB[ ]	/* 11 values pushed */
31 25 2 11 5 43 1 8 2 2 76 
EIF[ ]	/* EndIf */
EIF[ ]	/* EndIf */
MPPEM[ ]	/* MeasurePixelPerEm */
PUSHB[ ]	/* 1 value pushed */
20 
LT[ ]	/* LessThan */
IF[ ]	/* If */
NPUSHB[ ]	/* 45 values pushed */
0 1 3 2 3 1 2 128 14 1 12 0 3 1 12 3 104 11 1 10 10 4 97 6 5 2 4 4 48 77 13 9 2 2 2 0 97 8 7 2 0 0 49 0 78 
ELSE[ ]	/* Else */
MPPEM[ ]	/* MeasurePixelPerEm */
PUSHB[ ]	/* 1 value pushed */
37 
LT[ ]	/* LessThan */
IF[ ]	/* If */
NPUSHB[ ]	/* 53 values pushed */
0 1 3 2 3 1 2 128 14 1 12 0 3 1 12 3 104 0 5 5 42 77 11 1 10 10 4 97 6 1 4 4 48 77 0 8 8 40 77 13 9 2 2 2 0 97 7 1 0 0 49 0 78 
ELSE[ ]	/* Else */
NPUSHB[ ]	/* 73 values pushed */
0 1 3 9 3 1 9 128 14 1 12 0 3 1 12 3 104 0 5 5 42 77 0 11 11 4 97 6 1 4 4 48 77 0 10 10 4 97 6 1 4 4 48 77 13 1 9 9 0 97 7 1 0 0 49 77 0 8 8 40 77 0 2 2 0 97 7 1 0 0 49 0 78 
EIF[ ]	/* EndIf */
EIF[ ]	/* EndIf */
NPUSHB[ ]	/* 28 values pushed */
63 63 51 50 63 69 63 69 66 64 58 56 50 62 51 62 51 38 34 51 37 33 36 20 33 15 9 31 
CALL[ ]	/* CallFunction */";
};
width = 713;
}
);
note = ae;
unicode = 230;
},
{
glyphname = ccedilla;
kernLeft = c;
kernRight = c;
layers = (
{
layerId = m01;
shapes = (
{
closed = 1;
nodes = (
(139,-98,o),
(121,-98,qs),
(74,-98,ls),
(65,-98,o),
(71,-89,qs),
(136,-7,l),
(85,3,o),
(27,84,o),
(27,147,qs),
(27,234,o),
(80,299,qs),
(145,377,o),
(247,377,qs),
(287,377,o),
(321,362,qs),
(356,345,o),
(338,307,qs),
(330,289,ls),
(327,281,o),
(323,281,qs),
(319,281,o),
(315,284,qs),
(276,308,o),
(233,308,qs),
(182,308,o),
(145,269,qs),
(103,223,o),
(103,151,qs),
(103,54,o),
(190,54,qs),
(247,54,o),
(288,91,qs),
(299,101,o),
(304,101,qs),
(313,101,o),
(313,91,qs),
(313,57,o),
(245,-1,o),
(198,-8,q),
(148,-87,l)
);
}
);
userData = {
assembly = "NPUSHB[ ]	/* 48 values pushed */
33 1 5 1 1 76 0 3 2 0 2 3 0 128 0 0 1 2 0 1 126 0 1 0 5 1 5 101 0 2 2 4 97 0 4 4 48 2 78 56 37 34 36 35 20 6 9 28 
CALL[ ]	/* CallFunction */";
};
width = 354;
}
);
note = ccedilla;
unicode = 231;
},
{
glyphname = egrave;
kernLeft = e;
kernRight = e;
layers = (
{
layerId = m01;
shapes = (
{
closed = 1;
nodes = (
(197,54,qs),
(254,54,o),
(314,93,qs),
(315,94,o),
(317,95,qs),
(326,101,o),
(329,101,qs),
(337,101,o),
(337,92,qs),
(337,58,o),
(298,28,qs),
(250,-9,o),
(179,-9,qs),
(114,-9,o),
(74,27,qs),
(25,70,o),
(27,154,qs),
(28,244,o),
(82,306,qs),
(143,377,o),
(236,377,qs),
(296,377,o),
(367,308,o),
(367,249,qs),
(366,216,o),
(354,171,qs),
(351,159,o),
(338,159,qs),
(98,159,l),
(89,54,o)
);
},
{
closed = 1;
nodes = (
(295,223,o),
(297,239,q),
(297,313,o),
(224,313,qs),
(136,313,o),
(109,214,q),
(293,214,l)
);
},
{
closed = 1;
nodes = (
(315,431,o),
(311,431,qs),
(259,431,ls),
(244,431,o),
(234,441,qs),
(166,507,l),
(163,509,o),
(167,516,o),
(172,516,qs),
(234,516,ls),
(247,516,o),
(257,506,qs),
(316,439,l),
(319,437,o)
);
}
);
userData = {
assembly = "NPUSHB[ ]	/* 71 values pushed */
34 1 6 5 1 76 0 3 0 4 0 3 4 128 0 7 0 8 1 7 8 105 9 1 6 0 0 3 6 0 103 0 5 5 1 97 0 1 1 48 77 0 4 4 2 97 0 2 2 49 2 78 30 30 48 46 41 39 30 36 30 36 34 37 20 38 37 32 10 9 28 
CALL[ ]	/* CallFunction */";
};
width = 403;
}
);
note = egrave;
unicode = 232;
},
{
glyphname = eacute;
kernLeft = e;
kernRight = e;
layers = (
{
layerId = m01;
shapes = (
{
closed = 1;
nodes = (
(197,54,qs),
(254,54,o),
(314,93,qs),
(315,94,o),
(317,95,qs),
(326,101,o),
(329,101,qs),
(337,101,o),
(337,92,qs),
(337,58,o),
(298,28,qs),
(250,-9,o),
(179,-9,qs),
(114,-9,o),
(74,27,qs),
(25,70,o),
(27,154,qs),
(28,244,o),
(82,306,qs),
(143,377,o),
(236,377,qs),
(296,377,o),
(367,308,o),
(367,249,qs),
(366,216,o),
(354,171,qs),
(351,159,o),
(338,159,qs),
(98,159,l),
(89,54,o)
);
},
{
closed = 1;
nodes = (
(295,223,o),
(297,239,q),
(297,313,o),
(224,313,qs),
(136,313,o),
(109,214,q),
(293,214,l)
);
},
{
closed = 1;
nodes = (
(267,516,o),
(279,516,qs),
(343,516,ls),
(347,516,o),
(349,509,o),
(346,507,qs),
(255,441,ls),
(241,431,o),
(225,431,qs),
(174,431,ls),
(170,431,o),
(168,437,o),
(172,439,q),
(254,506,ls)
);
}
);
userData = {
assembly = "NPUSHB[ ]	/* 73 values pushed */
34 1 6 5 1 76 0 8 7 8 133 0 7 1 7 133 0 3 0 4 0 3 4 128 9 1 6 0 0 3 6 0 103 0 5 5 1 97 0 1 1 48 77 0 4 4 2 97 0 2 2 49 2 78 30 30 49 46 42 39 30 36 30 36 34 37 20 38 37 32 10 9 28 
CALL[ ]	/* CallFunction */";
};
width = 403;
}
);
note = eacute;
unicode = 233;
},
{
glyphname = ecircumflex;
kernLeft = e;
kernRight = e;
layers = (
{
layerId = m01;
shapes = (
{
closed = 1;
nodes = (
(197,54,qs),
(254,54,o),
(314,93,qs),
(315,94,o),
(317,95,qs),
(326,101,o),
(329,101,qs),
(337,101,o),
(337,92,qs),
(337,58,o),
(298,28,qs),
(250,-9,o),
(179,-9,qs),
(114,-9,o),
(74,27,qs),
(25,70,o),
(27,154,qs),
(28,244,o),
(82,306,qs),
(143,377,o),
(236,377,qs),
(296,377,o),
(367,308,o),
(367,249,qs),
(366,216,o),
(354,171,qs),
(351,159,o),
(338,159,qs),
(98,159,l),
(89,54,o)
);
},
{
closed = 1;
nodes = (
(295,223,o),
(297,239,q),
(297,313,o),
(224,313,qs),
(136,313,o),
(109,214,q),
(293,214,l)
);
},
{
closed = 1;
nodes = (
(201,431,o),
(182,431,qs),
(135,431,ls),
(131,431,o),
(129,437,o),
(133,439,q),
(211,506,ls),
(222,516,o),
(237,516,qs),
(289,516,ls),
(302,516,o),
(311,506,qs),
(366,439,ls),
(372,431,o),
(361,431,qs),
(317,431,ls),
(300,431,o),
(292,442,qs),
(259,485,l),
(212,442,ls)
);
}
);
userData = {
assembly = "NPUSHB[ ]	/* 76 values pushed */
34 1 6 5 1 76 0 8 7 8 133 9 1 7 1 7 133 0 3 0 4 0 3 4 128 10 1 6 0 0 3 6 0 103 0 5 5 1 97 0 1 1 48 77 0 4 4 2 97 0 2 2 49 2 78 30 30 55 52 48 45 42 39 30 36 30 36 34 37 20 38 37 32 11 9 28 
CALL[ ]	/* CallFunction */";
};
width = 403;
}
);
note = ecircumflex;
unicode = 234;
},
{
glyphname = edieresis;
kernLeft = e;
kernRight = e;
layers = (
{
layerId = m01;
shapes = (
{
closed = 1;
nodes = (
(197,54,qs),
(254,54,o),
(314,93,qs),
(315,94,o),
(317,95,qs),
(326,101,o),
(329,101,qs),
(337,101,o),
(337,92,qs),
(337,58,o),
(298,28,qs),
(250,-9,o),
(179,-9,qs),
(114,-9,o),
(74,27,qs),
(25,70,o),
(27,154,qs),
(28,244,o),
(82,306,qs),
(143,377,o),
(236,377,qs),
(296,377,o),
(367,308,o),
(367,249,qs),
(366,216,o),
(354,171,qs),
(351,159,o),
(338,159,qs),
(98,159,l),
(89,54,o)
);
},
{
closed = 1;
nodes = (
(295,223,o),
(297,239,q),
(297,313,o),
(224,313,qs),
(136,313,o),
(109,214,q),
(293,214,l)
);
},
{
closed = 1;
nodes = (
(174,513,o),
(196,513,qs),
(234,513,o),
(234,476,qs),
(233,454,o),
(202,422,o),
(181,422,qs),
(145,422,o),
(144,460,qs),
(144,482,o)
);
},
{
closed = 1;
nodes = (
(307,513,o),
(328,513,qs),
(366,513,o),
(366,476,qs),
(365,454,o),
(334,422,o),
(313,422,qs),
(277,422,o),
(276,460,qs),
(276,482,o)
);
}
);
userData = {
assembly = "NPUSHB[ ]	/* 77 values pushed */
34 1 6 5 1 76 0 3 0 4 0 3 4 128 10 1 8 9 1 7 1 8 7 105 11 1 6 0 0 3 6 0 103 0 5 5 1 97 0 1 1 48 77 0 4 4 2 97 0 2 2 49 2 78 30 30 55 53 50 48 45 43 40 38 30 36 30 36 34 37 20 38 37 32 12 9 28 
CALL[ ]	/* CallFunction */";
};
width = 403;
}
);
note = edieresis;
unicode = 235;
},
{
glyphname = igrave;
kernLeft = i;
kernRight = i;
layers = (
{
layerId = m01;
shapes = (
{
closed = 1;
nodes = (
(15,9,qs),
(77,360,ls),
(78,368,o),
(86,368,qs),
(91,368,ls),
(151,368,o),
(138,299,qs),
(87,9,ls),
(86,0,o),
(78,0,qs),
(21,0,ls),
(13,0,o)
);
},
{
closed = 1;
nodes = (
(186,431,o),
(181,431,qs),
(130,431,ls),
(114,431,o),
(105,441,qs),
(37,507,l),
(34,509,o),
(38,516,o),
(42,516,qs),
(105,516,ls),
(118,516,o),
(127,506,qs),
(187,439,ls),
(189,437,o)
);
}
);
userData = {
assembly = "NPUSHB[ ]	/* 35 values pushed */
0 2 0 3 1 2 3 105 0 1 1 42 77 4 1 0 0 40 0 78 2 0 23 21 16 14 8 5 0 11 2 11 5 9 22 
CALL[ ]	/* CallFunction */";
};
width = 179;
}
);
note = igrave;
unicode = 236;
},
{
glyphname = iacute;
kernLeft = i;
kernRight = i;
layers = (
{
layerId = m01;
shapes = (
{
closed = 1;
nodes = (
(15,9,qs),
(77,360,ls),
(78,368,o),
(86,368,qs),
(91,368,ls),
(151,368,o),
(138,299,qs),
(87,9,ls),
(86,0,o),
(78,0,qs),
(21,0,ls),
(13,0,o)
);
},
{
closed = 1;
nodes = (
(139,516,o),
(152,516,qs),
(216,516,ls),
(220,516,o),
(221,509,o),
(218,507,qs),
(127,441,ls),
(113,431,o),
(97,431,qs),
(46,431,ls),
(42,431,o),
(40,437,o),
(44,439,q),
(127,506,ls)
);
}
);
userData = {
assembly = "NPUSHB[ ]	/* 37 values pushed */
0 3 2 3 133 0 2 1 2 133 0 1 1 42 77 4 1 0 0 40 0 78 2 0 24 21 17 14 8 5 0 11 2 11 5 9 22 
CALL[ ]	/* CallFunction */";
};
width = 179;
}
);
note = iacute;
unicode = 237;
},
{
glyphname = icircumflex;
kernLeft = i;
kernRight = i;
layers = (
{
layerId = m01;
shapes = (
{
closed = 1;
nodes = (
(25,9,qs),
(86,360,ls),
(88,368,o),
(95,368,qs),
(100,368,ls),
(160,368,o),
(148,299,qs),
(97,9,ls),
(95,0,o),
(87,0,qs),
(31,0,ls),
(23,0,o)
);
},
{
closed = 1;
nodes = (
(70,431,o),
(52,431,qs),
(5,431,ls),
(1,431,o),
(-1,437,o),
(2,439,qs),
(81,506,ls),
(92,516,o),
(107,516,qs),
(159,516,ls),
(172,516,o),
(180,506,qs),
(236,439,ls),
(242,431,o),
(230,431,qs),
(187,431,ls),
(170,431,o),
(161,442,qs),
(129,485,l),
(82,442,ls)
);
}
);
userData = {
assembly = "NPUSHB[ ]	/* 40 values pushed */
0 3 2 3 133 4 1 2 1 2 133 0 1 1 42 77 5 1 0 0 40 0 78 2 0 30 27 23 20 17 14 8 5 0 11 2 11 6 9 22 
CALL[ ]	/* CallFunction */";
};
width = 179;
}
);
note = icircumflex;
unicode = 238;
},
{
glyphname = idieresis;
kernLeft = i;
kernRight = i;
layers = (
{
layerId = m01;
shapes = (
{
closed = 1;
nodes = (
(15,9,qs),
(77,360,ls),
(78,368,o),
(86,368,qs),
(91,368,ls),
(151,368,o),
(138,299,qs),
(87,9,ls),
(86,0,o),
(78,0,qs),
(21,0,ls),
(13,0,o)
);
},
{
closed = 1;
nodes = (
(50,513,o),
(71,513,qs),
(109,513,o),
(109,476,qs),
(109,454,o),
(77,422,o),
(56,422,qs),
(20,422,o),
(19,460,qs),
(19,482,o)
);
},
{
closed = 1;
nodes = (
(182,513,o),
(203,513,qs),
(241,513,o),
(241,476,qs),
(240,454,o),
(210,422,o),
(188,422,qs),
(152,422,o),
(151,460,qs),
(151,482,o)
);
}
);
userData = {
assembly = "NPUSHB[ ]	/* 41 values pushed */
5 1 3 4 1 2 1 3 2 105 0 1 1 42 77 6 1 0 0 40 0 78 2 0 30 28 25 23 20 18 15 13 8 5 0 11 2 11 7 9 22 
CALL[ ]	/* CallFunction */";
};
width = 179;
}
);
note = idieresis;
unicode = 239;
},
{
glyphname = eth;
layers = (
{
layerId = m01;
shapes = (
{
closed = 1;
nodes = (
(160,407,l),
(154,405,o),
(150,412,qs),
(139,436,ls),
(135,443,o),
(144,447,qs),
(208,479,l),
(173,547,ls),
(169,556,o),
(180,556,qs),
(200,556,ls),
(229,556,o),
(257,541,o),
(268,522,qs),
(274,511,l),
(329,538,ls),
(336,541,o),
(339,534,qs),
(351,510,l),
(356,503,o),
(348,499,qs),
(294,472,l),
(369,322,ls),
(395,272,o),
(395,222,qs),
(395,132,o),
(343,68,qs),
(281,-9,o),
(179,-9,qs),
(114,-9,o),
(73,31,qs),
(27,75,o),
(27,151,qs),
(27,237,o),
(81,298,qs),
(144,369,o),
(244,369,qs),
(258,369,o),
(265,368,q),
(227,440,l)
);
},
{
closed = 1;
nodes = (
(281,102,qs),
(319,147,o),
(319,214,qs),
(319,300,o),
(232,300,qs),
(177,300,o),
(141,262,qs),
(101,220,o),
(101,156,qs),
(101,111,o),
(148,59,o),
(188,59,qs),
(244,59,o)
);
}
);
userData = {
assembly = "NPUSHB[ ]	/* 51 values pushed */
39 32 24 17 4 0 2 1 76 0 2 2 39 77 0 4 4 0 97 0 0 0 42 77 5 1 3 3 1 97 0 1 1 49 1 78 41 40 48 46 40 52 41 52 30 27 38 33 6 9 24 
CALL[ ]	/* CallFunction */";
};
width = 438;
}
);
note = eth;
unicode = 240;
},
{
glyphname = ntilde;
kernLeft = n;
kernRight = n;
layers = (
{
layerId = m01;
shapes = (
{
closed = 1;
nodes = (
(266,377,qs),
(318,377,o),
(382,312,o),
(382,261,qs),
(382,248,o),
(379,224,qs),
(378,216,l),
(342,9,ls),
(341,0,o),
(332,0,qs),
(276,0,ls),
(268,0,o),
(270,9,qs),
(303,204,ls),
(307,228,o),
(307,238,qs),
(307,310,o),
(236,310,qs),
(140,310,o),
(120,199,qs),
(87,9,l),
(87,0,o),
(78,0,qs),
(21,0,ls),
(13,0,o),
(15,9,qs),
(77,360,ls),
(78,368,o),
(86,368,qs),
(91,368,ls),
(139,368,o),
(139,318,q),
(190,377,o)
);
},
{
closed = 1;
nodes = (
(305,431,qs),
(286,431,o),
(253,446,qs),
(226,458,o),
(216,458,qs),
(200,458,o),
(193,439,qs),
(190,429,o),
(183,429,qs),
(149,429,ls),
(141,429,o),
(143,438,qs),
(160,513,o),
(216,513,qs),
(236,513,o),
(270,497,qs),
(297,484,o),
(309,484,qs),
(324,484,o),
(332,502,qs),
(336,512,o),
(344,512,qs),
(378,512,ls),
(385,512,o),
(384,503,q),
(364,431,o)
);
}
);
userData = {
assembly = "NPUSHB[ ]	/* 10 values pushed */
0 1 2 0 11 1 1 2 2 76 
MPPEM[ ]	/* MeasurePixelPerEm */
PUSHB[ ]	/* 1 value pushed */
20 
LT[ ]	/* LessThan */
IF[ ]	/* If */
NPUSHB[ ]	/* 36 values pushed */
7 1 5 0 9 8 5 9 105 0 6 10 1 8 0 6 8 106 0 2 2 0 97 4 1 0 0 42 77 3 1 1 1 40 1 78 
ELSE[ ]	/* Else */
NPUSHB[ ]	/* 40 values pushed */
7 1 5 0 9 8 5 9 105 0 6 10 1 8 4 6 8 106 0 0 0 42 77 0 2 2 4 97 0 4 4 48 77 3 1 1 1 40 1 78 
EIF[ ]	/* EndIf */
NPUSHB[ ]	/* 16 values pushed */
58 56 54 52 50 34 34 50 39 53 35 51 49 11 9 31 
CALL[ ]	/* CallFunction */";
};
width = 432;
}
);
note = ntilde;
unicode = 241;
},
{
glyphname = ograve;
kernLeft = o;
kernRight = o;
layers = (
{
layerId = m01;
shapes = (
{
closed = 1;
nodes = (
(83,306,qs),
(148,377,o),
(243,377,qs),
(308,377,o),
(348,339,qs),
(394,296,o),
(394,222,qs),
(394,131,o),
(344,68,qs),
(284,-9,o),
(178,-9,qs),
(114,-9,o),
(73,31,qs),
(27,76,o),
(27,158,qs),
(26,244,o)
);
},
{
closed = 1;
nodes = (
(188,59,qs),
(243,59,o),
(280,103,qs),
(319,148,o),
(319,214,qs),
(318,308,o),
(231,308,qs),
(176,308,o),
(140,265,qs),
(102,220,o),
(102,156,qs),
(102,59,o)
);
},
{
closed = 1;
nodes = (
(336,431,o),
(332,431,qs),
(280,431,ls),
(265,431,o),
(255,441,qs),
(187,507,l),
(184,509,o),
(188,516,o),
(193,516,qs),
(255,516,ls),
(268,516,o),
(278,506,qs),
(337,439,l),
(340,437,o)
);
}
);
userData = {
assembly = "NPUSHB[ ]	/* 38 values pushed */
0 4 0 5 1 4 5 105 0 2 2 1 97 0 1 1 48 77 0 3 3 0 97 0 0 0 49 0 78 37 35 36 38 38 35 6 9 28 
CALL[ ]	/* CallFunction */";
};
width = 440;
}
);
note = ograve;
unicode = 242;
},
{
glyphname = oacute;
kernLeft = o;
kernRight = o;
layers = (
{
layerId = m01;
shapes = (
{
closed = 1;
nodes = (
(83,306,qs),
(148,377,o),
(243,377,qs),
(308,377,o),
(348,339,qs),
(394,296,o),
(394,222,qs),
(394,131,o),
(344,68,qs),
(284,-9,o),
(178,-9,qs),
(114,-9,o),
(73,31,qs),
(27,76,o),
(27,158,qs),
(26,244,o)
);
},
{
closed = 1;
nodes = (
(188,59,qs),
(243,59,o),
(280,103,qs),
(319,148,o),
(319,214,qs),
(318,308,o),
(231,308,qs),
(176,308,o),
(140,265,qs),
(102,220,o),
(102,156,qs),
(102,59,o)
);
},
{
closed = 1;
nodes = (
(278,516,o),
(290,516,qs),
(354,516,ls),
(358,516,o),
(359,509,o),
(356,507,qs),
(265,441,ls),
(251,431,o),
(235,431,qs),
(184,431,ls),
(180,431,o),
(179,437,o),
(182,439,qs),
(265,506,ls)
);
}
);
userData = {
assembly = "NPUSHB[ ]	/* 40 values pushed */
0 5 4 5 133 0 4 1 4 133 0 2 2 1 97 0 1 1 48 77 0 3 3 0 97 0 0 0 49 0 78 52 51 36 38 38 35 6 9 28 
CALL[ ]	/* CallFunction */";
};
width = 440;
}
);
note = oacute;
unicode = 243;
},
{
glyphname = ocircumflex;
kernLeft = o;
kernRight = o;
layers = (
{
layerId = m01;
shapes = (
{
closed = 1;
nodes = (
(83,306,qs),
(148,377,o),
(243,377,qs),
(308,377,o),
(348,339,qs),
(394,296,o),
(394,222,qs),
(394,131,o),
(344,68,qs),
(284,-9,o),
(178,-9,qs),
(114,-9,o),
(73,31,qs),
(27,76,o),
(27,158,qs),
(26,244,o)
);
},
{
closed = 1;
nodes = (
(188,59,qs),
(243,59,o),
(280,103,qs),
(319,148,o),
(319,214,qs),
(318,308,o),
(231,308,qs),
(176,308,o),
(140,265,qs),
(102,220,o),
(102,156,qs),
(102,59,o)
);
},
{
closed = 1;
nodes = (
(208,431,o),
(190,431,qs),
(143,431,ls),
(139,431,o),
(137,437,o),
(140,439,qs),
(219,506,ls),
(230,516,o),
(245,516,qs),
(297,516,ls),
(310,516,o),
(318,506,qs),
(374,439,ls),
(380,431,o),
(368,431,qs),
(325,431,ls),
(308,431,o),
(299,442,qs),
(267,485,l),
(220,442,ls)
);
}
);
userData = {
assembly = "NPUSHB[ ]	/* 42 values pushed */
0 5 4 5 133 6 1 4 1 4 133 0 2 2 1 97 0 1 1 48 77 0 3 3 0 97 0 0 0 49 0 78 52 51 51 36 38 38 35 7 9 29 
CALL[ ]	/* CallFunction */";
};
width = 440;
}
);
note = ocircumflex;
unicode = 244;
},
{
glyphname = otilde;
kernLeft = o;
kernRight = o;
layers = (
{
layerId = m01;
shapes = (
{
closed = 1;
nodes = (
(83,306,qs),
(148,377,o),
(243,377,qs),
(308,377,o),
(348,339,qs),
(394,296,o),
(394,222,qs),
(394,131,o),
(344,68,qs),
(284,-9,o),
(178,-9,qs),
(114,-9,o),
(73,31,qs),
(27,76,o),
(27,158,qs),
(26,244,o)
);
},
{
closed = 1;
nodes = (
(188,59,qs),
(243,59,o),
(280,103,qs),
(319,148,o),
(319,214,qs),
(318,308,o),
(231,308,qs),
(176,308,o),
(140,265,qs),
(102,220,o),
(102,156,qs),
(102,59,o)
);
},
{
closed = 1;
nodes = (
(304,431,qs),
(286,431,o),
(253,446,qs),
(226,458,o),
(215,458,qs),
(200,458,o),
(193,439,qs),
(190,429,o),
(183,429,qs),
(149,429,ls),
(141,429,o),
(143,438,qs),
(160,513,o),
(215,513,qs),
(236,513,o),
(270,497,qs),
(297,484,o),
(309,484,qs),
(324,484,o),
(332,502,q),
(335,512,o),
(344,512,qs),
(378,512,ls),
(385,512,o),
(384,503,q),
(364,431,o)
);
}
);
userData = {
assembly = "NPUSHB[ ]	/* 53 values pushed */
6 1 4 0 8 7 4 8 105 0 5 9 1 7 1 5 7 106 0 2 2 1 97 0 1 1 48 77 0 3 3 0 97 0 0 0 49 0 78 53 51 34 50 34 34 50 36 38 38 35 10 9 31 
CALL[ ]	/* CallFunction */";
};
width = 440;
}
);
note = otilde;
unicode = 245;
},
{
glyphname = odieresis;
kernLeft = o;
kernRight = o;
layers = (
{
layerId = m01;
shapes = (
{
closed = 1;
nodes = (
(83,306,qs),
(148,377,o),
(243,377,qs),
(308,377,o),
(348,339,qs),
(394,296,o),
(394,222,qs),
(394,131,o),
(344,68,qs),
(284,-9,o),
(178,-9,qs),
(114,-9,o),
(73,31,qs),
(27,76,o),
(27,158,qs),
(26,244,o)
);
},
{
closed = 1;
nodes = (
(188,59,qs),
(243,59,o),
(280,103,qs),
(319,148,o),
(319,214,qs),
(318,308,o),
(231,308,qs),
(176,308,o),
(140,265,qs),
(102,220,o),
(102,156,qs),
(102,59,o)
);
},
{
closed = 1;
nodes = (
(184,513,o),
(205,513,qs),
(243,513,o),
(243,476,qs),
(243,454,o),
(212,422,o),
(190,422,qs),
(154,422,o),
(153,460,qs),
(153,482,o)
);
},
{
closed = 1;
nodes = (
(316,513,o),
(337,513,qs),
(375,513,o),
(375,476,qs),
(374,454,o),
(344,422,o),
(322,422,qs),
(286,422,o),
(285,460,qs),
(285,482,o)
);
}
);
userData = {
assembly = "NPUSHB[ ]	/* 42 values pushed */
7 1 5 6 1 4 1 5 4 105 0 2 2 1 97 0 1 1 48 77 0 3 3 0 97 0 0 0 49 0 78 35 35 35 34 36 38 38 35 8 9 30 
CALL[ ]	/* CallFunction */";
};
width = 440;
}
);
note = odieresis;
unicode = 246;
},
{
glyphname = divide;
layers = (
{
layerId = m01;
shapes = (
{
closed = 1;
nodes = (
(37,247,qs),
(37,295,ls),
(37,304,o),
(45,304,qs),
(315,304,ls),
(366,304,o),
(366,257,qs),
(366,247,ls),
(366,238,o),
(358,238,qs),
(45,238,ls),
(37,238,o)
);
},
{
closed = 1;
nodes = (
(183,448,o),
(201,448,qs),
(219,448,o),
(244,423,o),
(244,404,qs),
(244,387,o),
(219,362,o),
(201,362,qs),
(183,362,o),
(158,387,o),
(158,404,qs),
(158,423,o)
);
},
{
closed = 1;
nodes = (
(184,181,o),
(201,181,qs),
(219,181,o),
(244,155,o),
(244,137,qs),
(244,119,o),
(219,94,o),
(201,94,qs),
(183,94,o),
(158,120,o),
(158,137,qs),
(158,155,o)
);
}
);
userData = {
assembly = "NPUSHB[ ]	/* 52 values pushed */
0 3 0 2 1 3 2 105 0 1 6 1 0 5 1 0 103 0 5 4 4 5 89 0 5 5 4 97 0 4 5 4 81 2 0 34 32 28 26 22 20 16 14 8 5 0 11 2 11 7 9 22 
CALL[ ]	/* CallFunction */";
};
width = 403;
}
);
note = divide;
unicode = 247;
},
{
glyphname = oslash;
kernLeft = o;
kernRight = o;
layers = (
{
layerId = m01;
shapes = (
{
closed = 1;
nodes = (
(73,31,qs),
(27,75,o),
(27,151,qs),
(27,237,o),
(81,301,qs),
(145,377,o),
(244,377,qs),
(309,377,o),
(349,339,qs),
(395,297,o),
(395,222,qs),
(395,132,o),
(343,68,qs),
(281,-9,o),
(179,-9,qs),
(114,-9,o)
);
},
{
closed = 1;
nodes = (
(258,308,o),
(232,308,qs),
(177,308,o),
(141,266,qs),
(101,221,o),
(101,156,qs),
(101,118,o),
(118,94,q),
(278,298,l)
);
},
{
closed = 1;
nodes = (
(170,59,o),
(188,59,qs),
(244,59,o),
(281,102,qs),
(319,147,o),
(319,214,qs),
(319,242,o),
(311,258,q),
(158,63,l)
);
}
);
userData = {
assembly = "NPUSHB[ ]	/* 44 values pushed */
33 24 2 3 2 1 76 0 2 2 1 97 0 1 1 48 77 0 3 3 0 97 4 1 0 0 49 0 78 1 0 32 30 23 21 9 7 0 15 1 15 5 9 22 
CALL[ ]	/* CallFunction */";
};
width = 438;
}
);
note = oslash;
unicode = 248;
},
{
glyphname = ugrave;
kernLeft = u;
kernRight = u;
layers = (
{
layerId = m01;
shapes = (
{
closed = 1;
nodes = (
(42,182,qs),
(73,360,ls),
(75,368,o),
(83,368,qs),
(87,368,ls),
(148,368,o),
(136,299,qs),
(113,168,l),
(112,167,o),
(112,166,qs),
(109,144,o),
(109,133,qs),
(109,57,o),
(182,57,qs),
(266,57,o),
(285,161,qs),
(320,360,ls),
(322,368,o),
(329,368,qs),
(334,368,ls),
(393,368,o),
(382,299,qs),
(358,161,ls),
(343,79,o),
(250,-10,o),
(180,-10,qs),
(112,-10,o),
(37,64,o),
(37,131,qs),
(37,155,o)
);
},
{
closed = 1;
nodes = (
(316,431,o),
(311,431,qs),
(260,431,ls),
(245,431,o),
(235,441,qs),
(167,507,l),
(164,509,o),
(168,516,o),
(173,516,qs),
(235,516,ls),
(248,516,o),
(258,506,qs),
(317,439,l),
(320,437,o)
);
}
);
userData = {
assembly = "NPUSHB[ ]	/* 34 values pushed */
0 4 0 5 1 4 5 105 3 1 1 1 42 77 0 2 2 0 98 0 0 0 46 0 78 37 38 55 35 52 34 6 9 28 
CALL[ ]	/* CallFunction */";
};
width = 419;
}
);
note = ugrave;
unicode = 249;
},
{
glyphname = uacute;
kernLeft = u;
kernRight = u;
layers = (
{
layerId = m01;
shapes = (
{
closed = 1;
nodes = (
(42,182,qs),
(73,360,ls),
(75,368,o),
(83,368,qs),
(87,368,ls),
(148,368,o),
(136,299,qs),
(113,168,l),
(112,167,o),
(112,166,qs),
(109,144,o),
(109,133,qs),
(109,57,o),
(182,57,qs),
(266,57,o),
(285,161,qs),
(320,360,ls),
(322,368,o),
(329,368,qs),
(334,368,ls),
(393,368,o),
(382,299,qs),
(358,161,ls),
(343,79,o),
(250,-10,o),
(180,-10,qs),
(112,-10,o),
(37,64,o),
(37,131,qs),
(37,155,o)
);
},
{
closed = 1;
nodes = (
(266,516,o),
(279,516,qs),
(343,516,ls),
(347,516,o),
(348,509,o),
(345,507,qs),
(254,441,ls),
(240,431,o),
(224,431,qs),
(173,431,ls),
(169,431,o),
(167,437,o),
(171,439,q),
(254,506,ls)
);
}
);
userData = {
assembly = "NPUSHB[ ]	/* 36 values pushed */
0 5 4 5 133 0 4 1 4 133 3 1 1 1 42 77 0 2 2 0 98 0 0 0 46 0 78 52 54 55 35 52 34 6 9 28 
CALL[ ]	/* CallFunction */";
};
width = 419;
}
);
note = uacute;
unicode = 250;
},
{
glyphname = ucircumflex;
kernLeft = u;
kernRight = u;
layers = (
{
layerId = m01;
shapes = (
{
closed = 1;
nodes = (
(42,182,qs),
(73,360,ls),
(75,368,o),
(83,368,qs),
(87,368,ls),
(148,368,o),
(136,299,qs),
(113,168,l),
(112,167,o),
(112,166,qs),
(109,144,o),
(109,133,qs),
(109,57,o),
(182,57,qs),
(266,57,o),
(285,161,qs),
(320,360,ls),
(322,368,o),
(329,368,qs),
(334,368,ls),
(393,368,o),
(382,299,qs),
(358,161,ls),
(343,79,o),
(250,-10,o),
(180,-10,qs),
(112,-10,o),
(37,64,o),
(37,131,qs),
(37,155,o)
);
},
{
closed = 1;
nodes = (
(196,431,o),
(178,431,qs),
(130,431,ls),
(126,431,o),
(125,437,o),
(128,439,qs),
(206,506,ls),
(217,516,o),
(233,516,qs),
(284,516,ls),
(298,516,o),
(306,506,qs),
(361,439,ls),
(367,431,o),
(356,431,qs),
(313,431,ls),
(296,431,o),
(287,442,qs),
(255,485,l),
(208,442,ls)
);
}
);
userData = {
assembly = "NPUSHB[ ]	/* 38 values pushed */
0 5 4 5 133 6 1 4 1 4 133 3 1 1 1 42 77 0 2 2 0 98 0 0 0 46 0 78 52 51 54 55 35 52 34 7 9 29 
CALL[ ]	/* CallFunction */";
};
width = 419;
}
);
note = ucircumflex;
unicode = 251;
},
{
glyphname = udieresis;
kernLeft = u;
kernRight = u;
layers = (
{
layerId = m01;
shapes = (
{
closed = 1;
nodes = (
(42,182,qs),
(73,360,ls),
(75,368,o),
(83,368,qs),
(87,368,ls),
(148,368,o),
(136,299,qs),
(113,168,l),
(112,167,o),
(112,166,qs),
(109,144,o),
(109,133,qs),
(109,57,o),
(182,57,qs),
(266,57,o),
(285,161,qs),
(320,360,ls),
(322,368,o),
(329,368,qs),
(334,368,ls),
(393,368,o),
(382,299,qs),
(358,161,ls),
(343,79,o),
(250,-10,o),
(180,-10,qs),
(112,-10,o),
(37,64,o),
(37,131,qs),
(37,155,o)
);
},
{
closed = 1;
nodes = (
(174,513,o),
(195,513,qs),
(234,513,o),
(234,476,qs),
(233,454,o),
(202,422,o),
(180,422,qs),
(145,422,o),
(144,460,qs),
(144,482,o)
);
},
{
closed = 1;
nodes = (
(306,513,o),
(328,513,qs),
(365,513,o),
(365,476,qs),
(365,454,o),
(334,422,o),
(313,422,qs),
(277,422,o),
(276,460,qs),
(276,482,o)
);
}
);
userData = {
assembly = "NPUSHB[ ]	/* 38 values pushed */
7 1 5 6 1 4 1 5 4 105 3 1 1 1 42 77 0 2 2 0 98 0 0 0 46 0 78 35 35 35 37 55 35 52 34 8 9 30 
CALL[ ]	/* CallFunction */";
};
width = 419;
}
);
note = udieresis;
unicode = 252;
},
{
glyphname = yacute;
kernLeft = y;
kernRight = y;
layers = (
{
layerId = m01;
shapes = (
{
closed = 1;
nodes = (
(26,368,o),
(33,368,qs),
(46,368,ls),
(77,368,o),
(103,341,o),
(107,306,qs),
(137,84,l),
(274,357,ls),
(280,368,o),
(292,368,qs),
(345,368,ls),
(352,368,o),
(348,360,qs),
(154,-9,ls),
(103,-107,o),
(38,-171,o),
(-7,-171,qs),
(-39,-171,o),
(-80,-131,o),
(-79,-99,q),
(-81,-76,o),
(-66,-76,qs),
(-61,-76,o),
(-57,-81,qs),
(-37,-106,o),
(-12,-106,qs),
(14,-106,o),
(52,-67,o),
(83,-7,q),
(26,360,l)
);
},
{
closed = 1;
nodes = (
(234,516,o),
(247,516,qs),
(311,516,ls),
(315,516,o),
(316,509,o),
(313,507,qs),
(222,441,ls),
(208,431,o),
(192,431,qs),
(141,431,ls),
(137,431,o),
(135,437,o),
(139,439,q),
(222,506,ls)
);
}
);
userData = {
assembly = "NPUSHB[ ]	/* 56 values pushed */
29 22 2 1 3 9 1 0 1 2 76 0 6 5 6 133 0 5 3 5 133 0 1 3 0 3 1 0 128 4 1 3 3 42 77 0 0 0 2 98 0 2 2 44 2 78 52 52 53 52 35 34 34 7 9 29 
CALL[ ]	/* CallFunction */";
};
width = 341;
}
);
note = yacute;
unicode = 253;
},
{
glyphname = thorn;
layers = (
{
layerId = m01;
shapes = (
{
closed = 1;
nodes = (
(56,-160,o),
(47,-160,qs),
(-9,-160,ls),
(-18,-160,o),
(-16,-151,qs),
(106,547,ls),
(108,556,o),
(116,556,qs),
(121,556,ls),
(180,556,o),
(169,487,qs),
(140,320,l),
(189,377,o),
(265,377,qs),
(324,377,o),
(361,341,qs),
(405,300,o),
(405,228,qs),
(405,134,o),
(355,68,qs),
(297,-9,o),
(206,-9,qs),
(124,-9,o),
(92,49,q),
(56,-151,l)
);
},
{
closed = 1;
nodes = (
(290,99,qs),
(331,145,o),
(331,213,qs),
(331,308,o),
(241,308,qs),
(191,308,o),
(155,270,qs),
(113,226,o),
(113,159,qs),
(113,112,o),
(160,59,o),
(202,59,qs),
(254,59,o)
);
}
);
userData = {
assembly = "NPUSHB[ ]	/* 10 values pushed */
12 1 5 1 24 1 3 0 2 76 
MPPEM[ ]	/* MeasurePixelPerEm */
PUSHB[ ]	/* 1 value pushed */
35 
LT[ ]	/* LessThan */
IF[ ]	/* If */
NPUSHB[ ]	/* 32 values pushed */
0 2 2 39 77 0 5 5 1 97 0 1 1 48 77 6 1 4 4 0 98 0 0 0 49 77 0 3 3 44 3 78 
ELSE[ ]	/* Else */
NPUSHB[ ]	/* 32 values pushed */
0 3 0 3 134 0 2 2 39 77 0 5 5 1 97 0 1 1 48 77 6 1 4 4 0 98 0 0 0 49 0 78 
EIF[ ]	/* EndIf */
NPUSHB[ ]	/* 15 values pushed */
26 25 33 31 25 37 26 37 51 51 38 33 7 9 26 
CALL[ ]	/* CallFunction */";
};
width = 447;
}
);
note = thorn;
unicode = 254;
},
{
glyphname = ydieresis;
kernLeft = y;
kernRight = y;
layers = (
{
layerId = m01;
shapes = (
{
closed = 1;
nodes = (
(26,368,o),
(33,368,qs),
(46,368,ls),
(77,368,o),
(103,341,o),
(107,306,qs),
(137,84,l),
(274,357,ls),
(280,368,o),
(292,368,qs),
(345,368,ls),
(352,368,o),
(348,360,qs),
(154,-9,ls),
(103,-107,o),
(38,-171,o),
(-7,-171,qs),
(-39,-171,o),
(-80,-131,o),
(-79,-99,q),
(-81,-76,o),
(-66,-76,qs),
(-61,-76,o),
(-57,-81,qs),
(-37,-106,o),
(-12,-106,qs),
(14,-106,o),
(52,-67,o),
(83,-7,q),
(26,360,l)
);
},
{
closed = 1;
nodes = (
(133,513,o),
(154,513,qs),
(192,513,o),
(192,476,qs),
(192,454,o),
(161,422,o),
(139,422,qs),
(103,422,o),
(102,460,qs),
(102,481,o)
);
},
{
closed = 1;
nodes = (
(265,513,o),
(286,513,qs),
(324,513,o),
(324,476,qs),
(323,454,o),
(293,422,o),
(271,422,qs),
(235,422,o),
(234,460,qs),
(234,481,o)
);
}
);
userData = {
assembly = "NPUSHB[ ]	/* 58 values pushed */
29 22 2 1 3 9 1 0 1 2 76 0 1 3 0 3 1 0 128 8 1 6 7 1 5 3 6 5 105 4 1 3 3 42 77 0 0 0 2 98 0 2 2 44 2 78 35 35 35 35 53 52 35 34 34 9 9 31 
CALL[ ]	/* CallFunction */";
};
width = 341;
}
);
note = ydieresis;
unicode = 255;
},
{
glyphname = dotlessi;
kernLeft = r;
kernRight = i;
layers = (
{
layerId = m01;
shapes = (
{
closed = 1;
nodes = (
(14,9,qs),
(76,360,ls),
(77,368,o),
(85,368,qs),
(90,368,ls),
(150,368,o),
(137,299,qs),
(86,9,ls),
(85,0,o),
(77,0,qs),
(20,0,ls),
(12,0,o)
);
}
);
userData = {
assembly = "NPUSHB[ ]	/* 23 values pushed */
0 1 1 42 77 2 1 0 0 40 0 78 2 0 8 5 0 11 2 11 3 9 22 
CALL[ ]	/* CallFunction */";
};
width = 179;
}
);
note = dotlessi;
unicode = 305;
},
{
glyphname = Lslash;
layers = (
{
layerId = m01;
shapes = (
{
closed = 1;
nodes = (
(323,71,o),
(315,27,qs),
(312,11,ls),
(311,0,o),
(299,0,qs),
(40,0,ls),
(32,0,o),
(34,9,qs),
(68,204,l),
(20,180,ls),
(9,175,o),
(11,185,qs),
(20,234,ls),
(22,244,o),
(31,248,qs),
(79,273,l),
(128,547,ls),
(130,556,o),
(138,556,qs),
(144,556,ls),
(203,556,o),
(191,485,qs),
(161,315,l),
(304,388,ls),
(315,393,o),
(312,383,q),
(303,333,ls),
(302,322,o),
(292,318,q),
(149,246,l),
(118,71,l),
(279,71,ls)
);
}
);
userData = {
assembly = "NPUSHB[ ]	/* 35 values pushed */
22 8 2 2 0 1 76 0 0 0 39 77 3 1 2 2 1 96 0 1 1 40 1 78 0 0 0 31 0 30 59 58 4 9 24 
CALL[ ]	/* CallFunction */";
};
width = 372;
}
);
note = Lslash;
unicode = 321;
},
{
glyphname = lslash;
layers = (
{
layerId = m01;
shapes = (
{
closed = 1;
nodes = (
(9,175,o),
(11,185,qs),
(19,233,ls),
(21,242,o),
(31,247,qs),
(74,269,l),
(123,547,ls),
(125,556,o),
(133,556,qs),
(138,556,ls),
(197,556,o),
(186,487,qs),
(154,310,l),
(213,340,ls),
(224,345,o),
(222,335,qs),
(214,286,ls),
(212,277,o),
(202,272,qs),
(142,242,l),
(119,111,ls),
(117,100,o),
(117,93,qs),
(117,59,o),
(150,59,qs),
(174,59,o),
(198,83,qs),
(204,89,o),
(209,89,qs),
(216,89,o),
(216,81,qs),
(216,44,o),
(159,-9,o),
(119,-9,qs),
(43,-9,o),
(43,74,qs),
(43,88,o),
(48,117,qs),
(63,202,l),
(20,180,ls)
);
}
);
userData = {
assembly = "NPUSHB[ ]	/* 37 values pushed */
26 1 1 3 1 76 0 1 3 2 3 1 2 128 0 3 3 39 77 0 2 2 0 98 0 0 0 49 0 78 61 35 19 36 4 9 26 
CALL[ ]	/* CallFunction */";
};
width = 243;
}
);
note = lslash;
unicode = 322;
},
{
glyphname = OE;
kernLeft = O;
kernRight = E;
layers = (
{
layerId = m01;
shapes = (
{
closed = 1;
nodes = (
(746,71,o),
(738,27,qs),
(735,11,ls),
(733,0,o),
(722,0,qs),
(432,0,ls),
(425,0,o),
(427,9,qs),
(437,67,l),
(364,-10,o),
(259,-10,qs),
(170,-10,o),
(116,42,qs),
(54,103,o),
(54,219,qs),
(54,350,o),
(134,451,qs),
(226,567,o),
(356,567,qs),
(464,567,o),
(511,486,q),
(521,547,ls),
(523,556,o),
(530,556,qs),
(780,556,ls),
(822,556,o),
(815,513,qs),
(812,496,ls),
(810,485,o),
(800,485,qs),
(583,485,l),
(552,312,l),
(717,312,ls),
(762,312,o),
(754,268,qs),
(751,252,ls),
(750,242,o),
(738,242,qs),
(540,242,l),
(510,71,l),
(702,71,ls)
);
},
{
closed = 1;
nodes = (
(411,133,qs),
(480,214,o),
(480,347,qs),
(480,495,o),
(346,495,qs),
(266,495,o),
(204,424,qs),
(132,341,o),
(132,219,qs),
(132,62,o),
(263,62,qs),
(351,62,o)
);
}
);
userData = {
assembly = "MPPEM[ ]	/* MeasurePixelPerEm */
PUSHB[ ]	/* 1 value pushed */
18 
LT[ ]	/* LessThan */
IF[ ]	/* If */
NPUSHB[ ]	/* 10 values pushed */
19 1 2 3 31 1 5 7 2 76 
ELSE[ ]	/* Else */
MPPEM[ ]	/* MeasurePixelPerEm */
PUSHB[ ]	/* 1 value pushed */
20 
LT[ ]	/* LessThan */
IF[ ]	/* If */
NPUSHB[ ]	/* 10 values pushed */
19 1 2 9 31 1 6 7 2 76 
ELSE[ ]	/* Else */
NPUSHB[ ]	/* 10 values pushed */
19 1 2 9 31 1 8 7 2 76 
EIF[ ]	/* EndIf */
EIF[ ]	/* EndIf */
MPPEM[ ]	/* MeasurePixelPerEm */
PUSHB[ ]	/* 1 value pushed */
18 
LT[ ]	/* LessThan */
IF[ ]	/* If */
NPUSHB[ ]	/* 35 values pushed */
0 1 0 0 7 1 0 103 9 1 2 2 3 97 4 1 3 3 39 77 11 8 10 3 7 7 5 97 6 1 5 5 46 5 78 
ELSE[ ]	/* Else */
MPPEM[ ]	/* MeasurePixelPerEm */
PUSHB[ ]	/* 1 value pushed */
20 
LT[ ]	/* LessThan */
IF[ ]	/* If */
NPUSHB[ ]	/* 55 values pushed */
0 1 0 0 7 1 0 103 0 9 9 4 97 0 4 4 39 77 0 2 2 3 95 0 3 3 39 77 11 8 10 3 7 7 6 95 0 6 6 40 77 11 8 10 3 7 7 5 97 0 5 5 46 5 78 
ELSE[ ]	/* Else */
MPPEM[ ]	/* MeasurePixelPerEm */
PUSHB[ ]	/* 1 value pushed */
35 
LT[ ]	/* LessThan */
IF[ ]	/* If */
NPUSHB[ ]	/* 51 values pushed */
0 1 0 0 7 1 0 103 0 9 9 4 97 0 4 4 39 77 0 2 2 3 95 0 3 3 39 77 10 1 7 7 6 95 0 6 6 40 77 11 1 8 8 5 97 0 5 5 46 5 78 
ELSE[ ]	/* Else */
NPUSHB[ ]	/* 49 values pushed */
0 4 0 9 2 4 9 105 0 1 0 0 7 1 0 103 0 2 2 3 95 0 3 3 39 77 10 1 7 7 6 95 0 6 6 40 77 11 1 8 8 5 97 0 5 5 46 5 78 
EIF[ ]	/* EndIf */
EIF[ ]	/* EndIf */
EIF[ ]	/* EndIf */
NPUSHB[ ]	/* 24 values pushed */
42 41 0 0 48 46 41 52 42 52 0 40 0 39 51 38 35 51 33 35 33 12 9 29 
CALL[ ]	/* CallFunction */";
};
width = 800;
}
);
note = OE;
unicode = 338;
},
{
glyphname = oe;
kernLeft = o;
kernRight = e;
layers = (
{
layerId = m01;
shapes = (
{
closed = 1;
nodes = (
(179,-9,qs),
(115,-9,o),
(74,31,qs),
(28,76,o),
(28,158,qs),
(27,244,o),
(84,306,qs),
(149,377,o),
(244,377,qs),
(340,377,o),
(371,303,q),
(426,377,o),
(520,377,qs),
(580,377,o),
(651,307,o),
(651,249,qs),
(651,220,o),
(639,171,qs),
(635,159,o),
(623,159,qs),
(383,159,l),
(374,54,o),
(481,54,qs),
(539,54,o),
(598,93,qs),
(599,94,o),
(601,95,qs),
(610,101,o),
(613,101,qs),
(622,101,o),
(621,92,q),
(621,58,o),
(582,28,qs),
(534,-9,o),
(464,-9,qs),
(365,-9,o),
(332,66,q),
(275,-9,o)
);
},
{
closed = 1;
nodes = (
(189,59,qs),
(244,59,o),
(281,103,qs),
(320,148,o),
(320,214,qs),
(319,308,o),
(232,308,qs),
(177,308,o),
(141,265,qs),
(103,220,o),
(103,156,qs),
(103,59,o)
);
},
{
closed = 1;
nodes = (
(581,228,o),
(581,242,qs),
(581,313,o),
(509,313,qs),
(420,313,o),
(393,214,q),
(577,214,l)
);
}
);
userData = {
assembly = "MPPEM[ ]	/* MeasurePixelPerEm */
PUSHB[ ]	/* 1 value pushed */
37 
LT[ ]	/* LessThan */
IF[ ]	/* If */
NPUSHB[ ]	/* 10 values pushed */
26 1 10 7 6 1 2 1 2 76 
ELSE[ ]	/* Else */
NPUSHB[ ]	/* 10 values pushed */
26 1 10 7 6 1 8 1 2 76 
EIF[ ]	/* EndIf */
MPPEM[ ]	/* MeasurePixelPerEm */
PUSHB[ ]	/* 1 value pushed */
37 
LT[ ]	/* LessThan */
IF[ ]	/* If */
NPUSHB[ ]	/* 42 values pushed */
0 1 3 2 3 1 2 128 11 1 10 0 3 1 10 3 103 9 1 7 7 4 97 5 1 4 4 48 77 8 1 2 2 0 97 6 1 0 0 49 0 78 
ELSE[ ]	/* Else */
NPUSHB[ ]	/* 62 values pushed */
0 1 3 8 3 1 8 128 11 1 10 0 3 1 10 3 103 0 9 9 4 97 5 1 4 4 48 77 0 7 7 4 97 5 1 4 4 48 77 0 8 8 0 97 6 1 0 0 49 77 0 2 2 0 97 6 1 0 0 49 0 78 
EIF[ ]	/* EndIf */
NPUSHB[ ]	/* 20 values pushed */
50 50 50 56 50 56 53 51 36 36 38 34 37 33 37 20 33 12 9 31 
CALL[ ]	/* CallFunction */";
};
width = 688;
}
);
note = oe;
unicode = 339;
},
{
glyphname = Scaron;
kernLeft = S;
kernRight = S;
layers = (
{
layerId = m01;
shapes = (
{
closed = 1;
nodes = (
(19,154,qs),
(26,154,o),
(30,147,qs),
(82,59,o),
(183,59,qs),
(246,59,o),
(318,115,o),
(318,163,qs),
(318,188,o),
(279,225,o),
(229,245,qs),
(152,277,o),
(131,289,qs),
(66,329,o),
(66,394,qs),
(66,466,o),
(118,513,qs),
(177,567,o),
(275,567,qs),
(344,567,o),
(403,538,qs),
(443,518,o),
(429,477,qs),
(423,459,ls),
(419,449,o),
(413,449,qs),
(407,449,o),
(400,455,qs),
(341,498,o),
(264,498,qs),
(213,498,o),
(142,447,o),
(142,411,qs),
(142,381,o),
(168,359,qs),
(190,341,o),
(256,313,qs),
(324,285,o),
(351,265,qs),
(395,231,o),
(395,182,qs),
(395,101,o),
(346,50,qs),
(287,-11,o),
(180,-11,qs),
(107,-11,o),
(2,67,o),
(2,121,qs),
(1,154,o)
);
},
{
closed = 1;
nodes = (
(320,693,o),
(337,693,qs),
(384,693,ls),
(389,693,o),
(390,687,o),
(387,684,qs),
(308,618,ls),
(297,608,o),
(283,608,qs),
(230,608,ls),
(216,608,o),
(208,618,qs),
(154,684,ls),
(151,687,o),
(155,693,o),
(159,693,qs),
(202,693,ls),
(220,693,o),
(228,683,qs),
(260,640,l),
(308,683,ls)
);
}
);
userData = {
assembly = "MPPEM[ ]	/* MeasurePixelPerEm */
PUSHB[ ]	/* 1 value pushed */
35 
LT[ ]	/* LessThan */
IF[ ]	/* If */
NPUSHB[ ]	/* 45 values pushed */
0 2 1 5 1 2 5 128 0 5 4 1 5 4 126 8 1 6 0 7 3 6 7 105 0 1 1 3 97 0 3 3 39 77 0 4 4 0 97 0 0 0 46 0 78 
ELSE[ ]	/* Else */
NPUSHB[ ]	/* 43 values pushed */
0 2 1 5 1 2 5 128 0 5 4 1 5 4 126 8 1 6 0 7 3 6 7 105 0 3 0 1 2 3 1 106 0 4 4 0 97 0 0 0 46 0 78 
EIF[ ]	/* EndIf */
NPUSHB[ ]	/* 12 values pushed */
52 53 35 34 44 37 34 45 34 9 9 31 
CALL[ ]	/* CallFunction */";
};
width = 431;
}
);
note = Scaron;
unicode = 352;
},
{
glyphname = scaron;
kernLeft = s;
layers = (
{
layerId = m01;
shapes = (
{
closed = 1;
nodes = (
(176,315,qs),
(145,315,o),
(108,289,o),
(108,268,qs),
(108,244,o),
(164,221,qs),
(227,195,o),
(268,157,o),
(268,125,qs),
(268,70,o),
(234,34,qs),
(193,-11,o),
(119,-11,qs),
(67,-11,o),
(-4,40,o),
(-4,78,qs),
(-6,106,o),
(10,106,qs),
(13,106,o),
(17,102,qs),
(18,101,ls),
(59,51,o),
(118,51,qs),
(153,51,o),
(195,82,o),
(194,107,qs),
(194,133,o),
(138,156,qs),
(76,183,o),
(35,222,o),
(35,257,qs),
(34,306,o),
(71,339,qs),
(113,377,o),
(181,377,qs),
(231,377,o),
(267,359,qs),
(299,342,o),
(283,304,qs),
(278,292,ls),
(275,285,o),
(270,285,qs),
(268,285,o),
(265,287,qs),
(263,288,o),
(262,288,q),
(217,315,o)
);
},
{
closed = 1;
nodes = (
(255,516,o),
(273,516,qs),
(320,516,ls),
(324,516,o),
(326,509,o),
(322,507,q),
(243,440,ls),
(232,431,o),
(218,431,qs),
(166,431,ls),
(152,431,o),
(144,440,qs),
(89,507,ls),
(87,509,o),
(91,516,o),
(94,516,qs),
(138,516,ls),
(156,516,o),
(164,505,qs),
(196,462,l),
(243,505,ls)
);
}
);
userData = {
assembly = "NPUSHB[ ]	/* 62 values pushed */
30 1 2 3 1 76 0 3 0 2 0 3 2 128 0 7 1 6 7 89 8 1 6 0 0 3 6 0 105 0 5 5 1 97 0 1 1 48 77 0 2 2 4 97 0 4 4 46 4 78 52 53 35 42 35 35 42 37 35 9 9 31 
CALL[ ]	/* CallFunction */";
};
width = 307;
}
);
note = scaron;
unicode = 353;
},
{
glyphname = Ydieresis;
kernLeft = Y;
kernRight = Y;
layers = (
{
layerId = m01;
shapes = (
{
closed = 1;
nodes = (
(66,556,o),
(76,556,qs),
(96,556,ls),
(142,556,o),
(159,506,qs),
(235,286,l),
(412,544,l),
(419,556,o),
(431,556,qs),
(488,556,ls),
(499,556,o),
(491,544,qs),
(258,213,l),
(222,9,ls),
(221,0,o),
(213,0,qs),
(156,0,ls),
(148,0,o),
(150,9,qs),
(186,213,l),
(68,547,l)
);
},
{
closed = 1;
nodes = (
(187,691,o),
(208,691,qs),
(246,691,o),
(246,654,qs),
(246,631,o),
(215,600,o),
(193,600,qs),
(157,600,o),
(156,638,qs),
(156,659,o)
);
},
{
closed = 1;
nodes = (
(319,691,o),
(340,691,qs),
(378,691,o),
(378,654,qs),
(378,631,o),
(347,600,o),
(325,600,qs),
(290,600,o),
(289,638,qs),
(289,659,o)
);
}
);
userData = {
assembly = "NPUSHB[ ]	/* 38 values pushed */
14 1 0 1 1 76 6 1 4 5 1 3 1 4 3 105 2 1 1 1 39 77 0 0 0 40 0 78 35 35 35 35 52 52 50 7 9 29 
CALL[ ]	/* CallFunction */";
};
width = 432;
}
);
note = Ydieresis;
unicode = 376;
},
{
glyphname = Zcaron;
kernLeft = Z;
kernRight = Z;
layers = (
{
layerId = m01;
shapes = (
{
closed = 1;
nodes = (
(375,71,o),
(367,27,qs),
(365,11,ls),
(363,0,o),
(352,0,qs),
(1,0,ls),
(-7,0,o),
(-5,9,qs),
(2,51,ls),
(6,69,o),
(22,88,qs),
(365,485,l),
(93,485,ls),
(86,485,o),
(87,494,qs),
(97,547,ls),
(98,556,o),
(106,556,qs),
(405,556,ls),
(460,556,o),
(451,505,qs),
(448,492,ls),
(446,477,o),
(428,455,qs),
(95,71,l),
(332,71,ls)
);
},
{
closed = 1;
nodes = (
(319,693,o),
(336,693,qs),
(383,693,ls),
(388,693,o),
(389,687,o),
(386,684,qs),
(307,618,ls),
(296,608,o),
(282,608,qs),
(230,608,ls),
(215,608,o),
(207,618,qs),
(153,684,ls),
(151,687,o),
(154,693,o),
(158,693,qs),
(201,693,ls),
(219,693,o),
(227,683,qs),
(260,640,l),
(307,683,ls)
);
}
);
userData = {
assembly = "NPUSHB[ ]	/* 49 values pushed */
6 1 4 0 5 0 4 5 105 0 1 1 0 95 0 0 0 39 77 7 1 3 3 2 95 0 2 2 40 2 78 0 0 45 42 38 35 30 28 0 25 0 24 53 35 53 8 9 25 
CALL[ ]	/* CallFunction */";
};
width = 432;
}
);
note = Zcaron;
unicode = 381;
},
{
glyphname = zcaron;
kernLeft = z;
kernRight = z;
layers = (
{
layerId = m01;
shapes = (
{
closed = 1;
nodes = (
(268,66,o),
(266,57,qs),
(258,9,ls),
(256,0,o),
(249,0,qs),
(-1,0,ls),
(-9,0,o),
(-7,9,qs),
(-1,46,ls),
(2,59,o),
(17,76,qs),
(231,302,l),
(57,302,ls),
(50,302,o),
(51,310,qs),
(60,360,ls),
(61,368,o),
(69,368,qs),
(269,368,ls),
(298,368,o),
(317,344,o),
(311,313,qs),
(308,292,o),
(291,276,q),
(93,66,l),
(260,66,ls)
);
},
{
closed = 1;
nodes = (
(261,516,o),
(279,516,qs),
(326,516,ls),
(330,516,o),
(332,509,o),
(328,507,q),
(249,440,ls),
(238,431,o),
(224,431,qs),
(172,431,ls),
(158,431,o),
(150,440,qs),
(95,507,ls),
(93,509,o),
(96,516,o),
(100,516,qs),
(144,516,ls),
(162,516,o),
(170,505,qs),
(202,462,l),
(249,505,ls)
);
}
);
userData = {
assembly = "NPUSHB[ ]	/* 49 values pushed */
6 1 4 0 5 0 4 5 105 0 1 1 0 95 0 0 0 42 77 7 1 3 3 2 95 0 2 2 40 2 78 0 0 45 42 38 35 30 28 0 25 0 24 53 35 53 8 9 25 
CALL[ ]	/* CallFunction */";
};
width = 327;
}
);
note = zcaron;
unicode = 382;
},
{
glyphname = florin;
layers = (
{
layerId = m01;
shapes = (
{
closed = 1;
nodes = (
(58,302,o),
(59,310,qs),
(68,359,ls),
(70,368,o),
(78,368,qs),
(145,368,l),
(157,442,ls),
(167,499,o),
(231,562,o),
(278,562,qs),
(312,562,o),
(355,524,o),
(355,495,qs),
(355,471,o),
(341,471,qs),
(338,471,o),
(334,474,qs),
(306,496,o),
(285,496,qs),
(242,496,o),
(232,437,qs),
(219,368,l),
(310,368,ls),
(318,368,o),
(317,359,qs),
(308,310,ls),
(307,302,o),
(298,302,qs),
(209,302,l),
(145,-52,ls),
(123,-171,o),
(26,-171,qs),
(-9,-171,o),
(-52,-133,o),
(-52,-103,qs),
(-52,-81,o),
(-39,-81,qs),
(-36,-81,o),
(-32,-83,q),
(-31,-83,l),
(-3,-106,o),
(17,-106,qs),
(61,-106,o),
(71,-47,qs),
(133,302,l),
(66,302,ls)
);
}
);
userData = {
assembly = "NPUSHB[ ]	/* 68 values pushed */
0 6 5 4 5 6 4 128 0 1 3 0 3 1 0 128 0 5 5 7 97 0 7 7 39 77 10 9 2 3 3 4 95 8 1 4 4 42 77 0 0 0 2 97 0 2 2 44 2 78 0 0 0 45 0 44 35 35 34 34 35 34 35 35 34 11 9 31 
CALL[ ]	/* CallFunction */";
};
width = 359;
}
);
note = florin;
unicode = 402;
},
{
glyphname = circumflex;
layers = (
{
layerId = m01;
shapes = (
{
closed = 1;
nodes = (
(72,431,o),
(54,431,qs),
(7,431,ls),
(3,431,o),
(1,437,o),
(4,439,qs),
(83,506,ls),
(94,516,o),
(109,516,qs),
(161,516,ls),
(174,516,o),
(182,506,qs),
(238,439,ls),
(244,431,o),
(232,431,qs),
(189,431,ls),
(172,431,o),
(163,442,qs),
(131,485,l),
(84,442,ls)
);
}
);
userData = {
assembly = "PUSHB[ ]	/* 2 values pushed */
6 100 
WCVTP[ ]	/* WriteCVTInPixels */
NPUSHB[ ]	/* 16 values pushed */
0 1 0 1 133 2 1 0 0 118 52 51 50 3 9 25 
CALL[ ]	/* CallFunction */
PUSHB[ ]	/* 2 values pushed */
6 0 
WCVTP[ ]	/* WriteCVTInPixels */";
};
width = 238;
}
);
note = circumflex;
unicode = 710;
},
{
glyphname = caron;
layers = (
{
layerId = m01;
shapes = (
{
closed = 1;
nodes = (
(169,516,o),
(186,516,qs),
(233,516,ls),
(238,516,o),
(239,509,o),
(236,507,qs),
(157,440,ls),
(146,431,o),
(132,431,qs),
(79,431,ls),
(65,431,o),
(57,440,qs),
(3,507,l),
(0,509,o),
(4,516,o),
(8,516,qs),
(51,516,ls),
(69,516,o),
(77,505,qs),
(109,462,l),
(157,505,ls)
);
}
);
userData = {
assembly = "PUSHB[ ]	/* 2 values pushed */
6 100 
WCVTP[ ]	/* WriteCVTInPixels */
NPUSHB[ ]	/* 24 values pushed */
2 1 0 1 1 0 89 2 1 0 0 1 97 0 1 0 1 81 52 53 34 3 9 25 
CALL[ ]	/* CallFunction */
PUSHB[ ]	/* 2 values pushed */
6 0 
WCVTP[ ]	/* WriteCVTInPixels */";
};
width = 238;
}
);
note = caron;
unicode = 711;
},
{
glyphname = breve;
layers = (
{
layerId = m01;
shapes = (
{
closed = 1;
nodes = (
(8,516,qs),
(48,516,ls),
(53,516,o),
(54,508,qs),
(57,470,o),
(98,470,qs),
(140,470,o),
(156,508,qs),
(160,516,o),
(167,516,qs),
(208,516,ls),
(214,516,o),
(211,507,qs),
(182,422,o),
(93,422,qs),
(50,422,o),
(0,468,o),
(0,507,qs),
(0,516,o)
);
}
);
userData = {
assembly = "PUSHB[ ]	/* 2 values pushed */
6 100 
WCVTP[ ]	/* WriteCVTInPixels */
MPPEM[ ]	/* MeasurePixelPerEm */
PUSHB[ ]	/* 1 value pushed */
22 
LT[ ]	/* LessThan */
IF[ ]	/* If */
NPUSHB[ ]	/* 23 values pushed */
3 1 1 2 2 1 112 0 2 0 0 2 89 0 2 2 0 98 0 0 2 0 82 
ELSE[ ]	/* Else */
NPUSHB[ ]	/* 22 values pushed */
3 1 1 2 1 133 0 2 0 0 2 89 0 2 2 0 98 0 0 2 0 82 
EIF[ ]	/* EndIf */
PUSHB[ ]	/* 7 values pushed */
50 34 50 34 4 9 26 
CALL[ ]	/* CallFunction */
PUSHB[ ]	/* 2 values pushed */
6 0 
WCVTP[ ]	/* WriteCVTInPixels */";
};
width = 212;
}
);
note = breve;
unicode = 728;
},
{
glyphname = dotaccent;
layers = (
{
layerId = m01;
shapes = (
{
closed = 1;
nodes = (
(0,460,qs),
(0,481,o),
(31,513,o),
(52,513,qs),
(89,513,o),
(89,476,qs),
(89,453,o),
(58,422,o),
(37,422,qs),
(0,422,o)
);
}
);
userData = {
assembly = "PUSHB[ ]	/* 2 values pushed */
6 100 
WCVTP[ ]	/* WriteCVTInPixels */
NPUSHB[ ]	/* 28 values pushed */
0 1 0 0 1 89 0 1 1 0 97 2 1 0 1 0 81 1 0 6 4 0 9 1 9 3 9 22 
CALL[ ]	/* CallFunction */
PUSHB[ ]	/* 2 values pushed */
6 0 
WCVTP[ ]	/* WriteCVTInPixels */";
};
width = 89;
}
);
note = dotaccent;
unicode = 729;
},
